# Blender v2.82 (sub 7) OBJ File: ''
# www.blender.org
mtllib rock2.mtl
o Rock.Landscape.Style_4_Rock.Landscape.Style_4.Mesh
v -0.06839907 0.1167278 -0.039370933
v -0.059584286 0.12647515 -0.048738063
v -0.05974416 0.10743583 -0.051489979
v -0.06165439 0.083277503 -0.049918783
v 0.068274384 0.15335351 -0.0443351
v 0.067941865 0.14083313 -0.05026564
v 0.07363407 0.13870533 -0.047485053
v 0.072328489 0.12278606 -0.050855955
v 0.078195775 -0.083534779 -0.058328583
v 0.077109065 -0.10060852 -0.058676916
v -0.059324578 -0.10104757 -0.04576719
v -0.06641116 -0.087867619 -0.044893617
v -0.045650411 -0.083543902 -0.052435232
v -0.061384778 -0.070027002 -0.047208575
v 0.05907017 0.10921451 -0.056684748
v 0.065557659 0.10675167 -0.053268921
v 0.056816646 0.12966542 -0.055867479
v -0.040020856 0.085286527 0.014806229
v -0.03345951 0.10336357 0.010902093
v -0.036005501 0.12311954 0.0050743438
v -0.046816013 0.067344684 0.020067382
v -0.046518945 0.087289295 0.01079383
v -0.042803094 0.11772615 0.0021476965
v -0.039134075 0.065429849 0.024178833
v -0.055732108 0.085352736 0.0035901235
v -0.052438185 0.10595205 -0.0024134868
v 0.04973206 0.12352175 0.012905121
v 0.062680276 0.11109963 0.013075161
v 0.061191279 0.14289037 0.0045874236
v 0.054481879 0.15958164 0.0028490561
v 0.083163852 -0.065160233 0.027316618
v 0.071093814 -0.083484294 0.030747737
v 0.086981014 -0.10318562 0.017510617
v 0.092487192 -0.066713182 0.018772578
v -0.041476574 -0.10837466 0.039001136
v -0.055041783 -0.096109549 0.037790788
v -0.078731787 -0.099965812 0.029925081
v -0.057497933 -0.12001964 0.028865657
v -0.074955807 -0.11324594 0.027381089
v -0.083989202 -0.11656202 0.022731367
v -0.060231513 -0.13786973 0.018049844
v -0.068218689 0.11578324 -0.02065405
v -0.068785547 0.11982753 -0.027293245
v -0.077919818 0.087007688 -0.03015212
v -0.064939624 0.13219768 -0.035728067
v 0.06552438 0.17388757 -0.015497944
v 0.0621288 0.18044465 -0.024033818
v 0.061718517 0.18357618 -0.015697092
v 0.067676682 0.16686997 -0.029022055
v 0.070958007 0.15555699 -0.029177324
v 0.066373712 0.16598059 -0.034233334
v 0.072812543 0.14930071 -0.041231028
v 0.10491921 -0.11265745 -0.01481292
v 0.10177022 -0.11356299 -0.024032427
v 0.10107772 -0.13859368 -0.012905295
v 0.096559108 -0.13979864 -0.023880895
v 0.09313103 -0.12960295 -0.03381575
v 0.096074187 -0.0952809 -0.03476422
v 0.095040829 -0.15051132 -0.015374042
v -0.085516083 -0.13520461 -0.017368642
v -0.097517829 -0.12427333 -0.011014873
v -0.080902856 -0.12576215 -0.027797456
v -0.092287002 -0.11735696 -0.022079968
v -0.071892312 -0.11326801 -0.037367817
v -0.067136241 -0.1529321 -0.0093176907
v -0.087187984 -0.13825169 -0.010957962
v -0.080569117 -0.10388663 -0.035330729
v 0.055436342 0.16287304 -0.042504982
v 0.059963291 0.14759823 -0.050489461
v 0.016952883 0.14107433 -0.059982668
v 0.071799949 -0.11203229 -0.059362807
v 0.060683507 -0.1215109 -0.058785524
v 0.066517165 -0.11016742 -0.0622282
v 0.071300691 -0.094396381 -0.063017143
v 0.051371462 0.064136779 -0.065648285
v 0.048333425 0.12413978 -0.059653538
v 0.053836735 0.074907759 0.022990119
v 0.057496717 0.051283793 0.028475877
v 0.072100844 0.066077771 0.02092514
v 0.066106967 0.06421194 0.023671321
v 0.039559392 0.11952681 0.014660258
v 0.047080325 -0.11573763 0.033135678
v 0.073828175 -0.11385381 0.021725465
v 0.083988681 -0.13800189 0.008685494
v 0.061884211 -0.14335609 0.015787542
v 0.054931349 0.18968597 -0.016265513
v 0.054499951 0.18635782 -0.023603461
v 0.057579171 0.17738446 -0.031565526
v 0.039158057 0.19300153 -0.012522987
v 0.085537372 -0.15430294 -0.024994972
v 0.082154735 -0.16213858 -0.015853577
v 0.082245447 -0.14444211 -0.035183801
v 0.061135323 -0.13849185 -0.048166254
v 0.05272674 -0.17493083 -0.020789682
v 0.035148177 -0.12861851 -0.057198864
v 0.0091579037 -0.13173805 -0.055693443
v -0.0093503609 -0.12866291 -0.054789026
v 0.013469371 -0.11808308 -0.061790022
v -0.018193296 -0.11129157 -0.058629474
v 0.0019051053 -0.090779584 -0.064934064
v 0.018194947 0.063947364 0.024946315
v 0.0084520259 0.091474948 0.018838873
v 0.01411269 0.13735735 0.012420981
v -0.023337324 0.080801976 0.019122302
v 0.036907311 0.048378345 0.029444852
v -0.017508532 0.099043844 0.015014674
v 0.00465285 0.050203864 0.030479079
v 0.01476991 -0.13184518 0.03960692
v 0.02536972 -0.15731108 0.026969501
v 0.0079644111 -0.16409051 0.02887478
v -0.0038136863 -0.16899847 0.027665473
v 0.019424585 -0.17618263 0.01924464
v 0.0013207838 -0.18227399 0.019550572
v 0.02959091 -0.11249966 0.039954818
v -0.012729433 -0.18225149 0.017419124
v 0.021241847 -0.17955145 -0.025692769
v 0.021166602 -0.18857806 -0.015915267
v -0.0028423658 -0.17961122 -0.025596237
v -0.0044489243 -0.19064243 -0.013934135
v 0.057132134 -0.16209235 -0.032242818
v 0.024309165 -0.16096238 -0.039127559
v -5.2045888e-05 -0.16162551 -0.038863332
v -0.049051294 0.14270252 -0.047741198
v -0.030616536 0.14273728 -0.056199217
v -0.011519258 0.1464268 -0.058189994
v -0.046221439 0.12992 -0.055974786
v 0.00021026886 0.16058493 -0.047490352
v -0.046739553 0.098312422 -0.05831294
v -0.035845106 0.1132363 -0.061029058
v -0.022179107 0.127384 -0.062533089
v -0.0033824613 0.1152647 -0.06480599
v -0.027012684 0.13379486 0.0063765335
v -0.0037128093 0.13845301 0.011516217
v -0.01881524 0.14898244 0.0060215963
v -0.0010619446 0.15891842 0.0073018032
v -0.035353754 0.17512763 -0.01910701
v -0.041680937 0.16781384 -0.027237724
v -0.019397389 0.18447234 -0.022266429
v -0.01299757 0.18891979 -0.016957662
v -0.021390251 0.17494665 -0.032507739
v -0.042281852 0.16110643 -0.035724158
v -0.0077798609 0.18548033 -0.025838654
v -0.032678735 -0.13039363 -0.04636237
v -0.028592568 0.068429913 0.023725018
v -0.014282208 -0.16567196 0.027170386
v -0.02442881 -0.13577234 0.03660833
v -0.027672424 -0.15986081 0.024468779
v -0.029274204 -0.1716509 -0.02343403
v -0.038982455 -0.17276011 -0.01459457
v -0.020602699 -0.15909898 -0.035788194
v -0.042582917 -0.14364082 -0.035421787
v -0.020828955 -0.18613243 -0.011084384
v -0.060877352 0.13313929 -0.044199558
v -0.052742033 0.11550929 -0.055546341
v -0.054917621 0.092201591 -0.054890947
v -0.047774823 0.15017141 -0.012745681
v -0.058578212 0.14411966 -0.023417782
v -0.051668444 0.15744315 -0.025200201
v -0.060656309 0.14319275 -0.032366807
v -0.055121634 0.15006506 -0.035656124
v -0.066595882 0.098341614 -0.0092786781
v -0.05973947 0.12496539 -0.015071498
v 0.064865683 0.1453407 0.001189583
v 0.063385459 0.17547266 -0.0092122089
v 0.06725771 0.1459351 -0.003637043
v 0.099646674 -0.063583737 0.0088550993
v 0.095090179 -0.11734245 0.0082034397
v 0.10175944 -0.10383285 0.0029171763
v 0.096501851 -0.13403206 0.0012166052
v 0.10507239 -0.10127539 -0.0048954412
v 0.10279193 -0.12573383 -0.0050459313
v 0.10434314 -0.073040798 -0.004435196
v 0.094328956 -0.14948925 -0.0069784064
v -0.063909049 -0.14710027 0.0088028799
v -0.088372178 -0.12695808 0.013206014
v -0.090674535 -0.13291016 0.005019952
v -0.066603618 -0.15213195 -0.00042592476
v -0.088815135 -0.13808191 -0.0043179838
v -0.096921953 -0.12823325 -0.0012843778
v -0.09661098 -0.11597196 0.012253114
v 0.035181542 0.17797434 -0.0002308613
v 0.058343527 0.17346868 -0.0032375322
v 0.047697839 0.18522453 -0.0060586105
v 0.056783627 0.18561874 -0.0095721856
v 0.08496139 -0.1524066 -2.6500827e-05
v 0.060144454 -0.16355789 0.0047268788
v 0.082065069 -0.16131114 -0.0078118356
v 0.058455352 -0.17295561 -0.0037267983
v 0.050359044 -0.17915637 -0.014003472
v 0.027048917 -0.18526546 0.0064436112
v 0.0082768601 -0.19302629 0.0054801972
v -0.0012234694 -0.19350904 0.0052001573
v 0.026669303 -0.18963106 -0.0013977666
v 0.0011877584 -0.194276 -0.0065762888
v 0.022909574 -0.19156275 -0.0079133207
v -0.011584598 -0.19067119 0.0061865964
v -0.012465902 -0.19203351 -0.0024765675
v -0.028945854 0.16437342 -0.0041025018
v -0.011260332 0.17000707 0.0013326006
v -0.018618526 0.18042146 -0.0072350733
v -0.046982752 0.16023747 -0.017633129
v -0.032510346 0.17456659 -0.013440872
v -0.01144019 0.1884638 -0.011450703
v 0.00084541983 0.17960662 -0.00045581424
v 0.001785982 0.18833295 -0.0060900638
v -0.030131093 -0.1732916 0.013869143
v -0.029888762 -0.18071444 0.0047384348
v -0.031757375 -0.18156438 -0.0047254886
v -0.074320051 0.02701251 -0.040870705
v -0.063483471 0.0090914345 -0.045997617
v -0.052967855 0.014679634 -0.049516317
v 0.07849571 0.056618453 -0.045632079
v 0.076595644 0.019482539 -0.050053459
v 0.071730441 0.078873154 -0.052499701
v 0.072937835 0.016120931 -0.05428221
v 0.065320716 0.066700064 -0.05644798
v 0.076121584 0.11432196 -0.048320478
v 0.058682651 0.019882745 -0.067310102
v 0.068377346 -0.037207161 -0.062782893
v 0.059691507 0.040022418 -0.065313155
v -0.044806989 -0.040288036 0.061438215
v -0.049236886 -0.018098153 0.057602197
v -0.050244961 0.0062210039 0.0523705
v -0.057649029 -0.045447443 0.043586563
v -0.060859191 -0.041410365 0.039794598
v -0.059360029 -0.0058333968 0.038606927
v -0.038959344 -0.06289133 0.061488956
v -0.042510627 -0.011969859 0.063401534
v -0.043487684 0.014730637 0.054524713
v -0.06087518 0.012677214 0.031342311
v -0.06652759 -0.026620906 0.034045222
v -0.067126422 -0.0020149317 0.029837672
v -0.084547804 -0.042079404 0.024876283
v -0.082044216 -0.0067025372 0.020685069
v -0.083970175 0.022439684 0.011056927
v 0.079251634 0.030706118 0.02820357
v 0.070508014 0.029812909 0.032957558
v 0.086727911 0.010335409 0.023945018
v 0.08316281 0.041320263 0.017716107
v -0.10394458 -0.058380194 -0.012166747
v -0.097507579 -0.072162359 -0.022923215
v -0.1006133 -0.013839514 -0.016887543
v -0.094898332 0.02934076 -0.018482285
v -0.093705796 -0.00077608324 -0.025668441
v -0.089206302 -0.022374779 -0.031020043
v -0.10364882 -0.022554202 -0.0064834055
v -0.095453895 0.031853994 -0.011063965
v -0.088239934 0.040573462 -0.027262661
v -0.080089582 0.048359578 -0.035701567
v 0.081182462 0.080562426 -0.015990686
v 0.082985821 0.065810591 -0.025231481
v 0.09695636 -0.01817392 -0.01465209
v 0.078562005 0.10330292 -0.032882921
v 0.08104031 0.063817556 -0.037526475
v 0.050020269 -0.015651389 -0.068711345
v 0.050395972 0.026025376 -0.068408193
v 0.080404118 -0.0304034 0.032599145
v 0.075467317 0.0045063569 0.034699401
v 0.063157204 -0.023968043 0.040431835
v 0.065094548 0.0082411491 0.038351997
v 0.046142023 -0.058491585 0.043097819
v 0.072982845 -0.049575661 0.035443336
v 0.032915591 -0.061601131 0.047498345
v 0.03652622 -0.01869907 0.046651535
v 0.035580358 0.011353389 0.043244746
v 0.0077875068 -0.0648901 0.059676299
v 0.0050927639 -0.029793185 0.061750662
v -0.010784794 -0.063070751 0.066445741
v -0.011227749 -0.020934437 0.066164309
v -0.010065709 -0.0014521584 0.061806531
v -0.016140046 -0.041246236 0.068624108
v -0.0086841038 -0.084937584 0.062256179
v -0.031280968 0.034825128 -0.062174416
v -0.0047800541 -0.0020052872 -0.067375877
v -0.030155769 -0.044672573 0.068945856
v -0.031457438 -0.017073223 0.067453206
v -0.031706806 0.00077226016 0.063208035
v -0.035817997 -0.051256249 0.066198805
v -0.021194754 -0.080831522 0.063459401
v -0.045600451 0.025133471 -0.055491691
v -0.094331128 -0.047079369 0.016409138
v -0.096579962 -0.0030381243 0.0050312472
v -0.10140068 -0.050784795 0.0069286196
v -0.10507239 -0.078503442 -0.0031025952
v -0.093034324 0.028779898 -0.0027387084
v 0.076047728 0.090146084 0.0040769569
v 0.090245569 0.018988494 0.010437764
v 0.090895838 0.023433335 0.0010428293
v 0.083530781 -0.008610336 0.030283755
v 0.093290733 -0.025679736 0.017675704
v 0.10283624 -0.065921025 -0.016926643
v 0.087209443 0.019061307 -0.030774933
v 0.099722178 -0.072762148 -0.026435053
v 0.082880426 0.0010356176 -0.043804478
v 0.099788127 -0.031086773 -0.00050151728
v -0.048780462 -0.051474079 -0.05027711
v -0.046570121 -0.087598613 0.044856864
v -0.053316103 -0.06808106 0.045596453
v -0.059828095 -0.082392809 0.038254335
v -0.065577642 -0.067512289 0.036581742
v -0.083705513 -0.076660637 0.028212694
v -0.091360341 -0.10455541 0.021437953
v -0.10164883 -0.096982428 -0.014287595
v -0.078009224 -0.074333343 -0.039322624
v 0.05629184 -0.10928055 -0.064555059
v 0.055151176 -0.086322403 -0.067095835
v 0.059634681 -0.056021967 -0.067336602
v 0.05315119 -0.079792079 0.038846824
v 0.034849891 -0.09108699 0.042518449
v 0.0015161949 -0.10367028 0.054222517
v -0.0082798143 -0.1154701 0.051663494
v -0.038494667 -0.069465012 -0.055599779
v -0.026576681 -0.085713406 -0.059487579
v -0.016782583 -0.080148754 -0.062594869
v -0.01844866 -0.10775045 0.053683813
v -0.029329204 -0.086423282 0.05888171
v -0.095761827 -0.086253415 0.018501313
v -0.10273276 -0.090115237 0.0062358617
v -0.1027053 -0.10903274 -0.001186542
v -0.066735337 0.074771867 -0.046786471
v -0.044755638 0.032709406 0.043520093
v -0.050230623 0.031023519 0.040000002
v -0.052549836 0.058800732 0.019848164
v -0.058704806 0.036993243 0.024437325
v -0.073584631 0.051253207 0.0076629099
v -0.084978856 0.067933002 -0.021507811
v -0.082831768 0.074415973 -0.015754611
v -0.069144134 0.094579715 -0.044035426
v 0.060881956 0.026435661 0.035898108
v 0.020224997 0.018797775 0.045533375
v 0.032737384 0.033285734 0.036218202
v 0.012447221 0.032023599 0.040236856
v -0.01581691 0.017375593 0.055023362
v -0.0088534483 0.0511956 -0.066703623
v -0.028976352 0.053820401 0.031825061
v -0.033234905 0.020174602 0.054372486
v -0.083109112 0.05936672 -0.0048657256
v 0.076322123 0.13372161 -0.043837754
v 0.067717779 0.10992056 0.011124091
v 0.069905012 0.11728719 0.0064170233
v 0.075151482 0.075667681 0.014030928
v 0.075222206 0.1191903 -0.020257145
v 0.01087507 0.14650856 -0.057708027
v -0.0025908251 0.13612085 -0.062489384
v 0.017391928 0.12024086 -0.0637258
v 0.024506575 0.16147788 0.0065334529
v 0.0093580068 0.19264668 -0.019762406
v 0.036310478 0.19223126 -0.020674555
v 0.0060963199 0.18364421 -0.030146298
v 0.032592368 0.17878023 -0.034142884
v 0.014849586 0.194276 -0.012492403
v 0.042899801 -0.13791804 0.02728082
v 0.025248077 0.18910799 -0.005755024
v 0.054399942 -0.1772709 -0.0093200367
v 0.015618024 0.031547019 -0.068657387
v 0.021492779 -0.00093152579 -0.068945856
v 0.047431005 -0.021333166 0.043184357
v 0.048897851 0.0053343123 0.040791549
v 0.028631407 -0.093688245 -0.066307677
v 0.050488769 0.027251192 0.036283542
vt -0.049682 -0.014295
vt -0.031155 -0.021098
vt -0.052548 0.041387
vt -0.039408 0.087090
vt -0.050208 0.103638
vt -0.034641 0.021791
vt -0.037071 -0.042919
vt 0.180909 -0.064418
vt 0.173417 -0.037036
vt 0.160089 -0.061056
vt 0.185195 -0.036523
vt 0.177411 0.011356
vt 0.161272 0.003391
vt 0.163640 0.080646
vt 0.140629 0.007181
vt -0.067766 0.534267
vt -0.034535 0.527862
vt -0.058301 0.572584
vt -0.056131 0.491756
vt -0.003677 0.536783
vt 0.571182 0.062603
vt 0.577323 -0.000565
vt 0.572417 0.098889
vt 0.582008 0.099114
vt 0.569786 0.155224
vt 0.589763 0.016034
vt 0.560761 0.145057
vt 0.433864 0.584757
vt 0.441557 0.578661
vt 0.441372 0.645793
vt 0.448569 0.590920
vt 0.446246 0.636379
vt 0.384473 0.076220
vt 0.412306 0.020287
vt 0.410548 0.114368
vt 0.433057 0.118546
vt 0.415006 0.212715
vt 0.708451 1.063132
vt 0.739275 1.071733
vt 0.733950 1.110104
vt 0.712378 1.145997
vt 0.709948 1.110585
vt 0.650274 0.003739
vt 0.660919 -0.028180
vt 0.667609 0.044823
vt 0.648919 -0.056188
vt 0.640145 0.020179
vt 0.653446 0.115672
vt 0.772849 0.674775
vt 0.786249 0.688272
vt 0.772297 0.700131
vt 0.792139 0.618956
vt 0.793324 0.652782
vt 0.803350 0.650036
vt 0.822723 0.616399
vt 0.800778 0.669042
vt 0.815403 0.605528
vt 0.738758 -0.130997
vt 0.758166 -0.111353
vt 0.763086 0.004760
vt 0.738611 -0.201000
vt 0.758654 -0.188354
vt 0.771915 -0.152205
vt 0.783116 -0.043900
vt 0.816570 -0.067788
vt 0.818666 -0.007155
vt -0.125656 0.618760
vt -0.102326 0.636368
vt -0.121495 0.676273
vt -0.132740 0.698846
vt -0.098593 0.748067
vt -0.144847 0.647262
vt -0.097378 0.574801
vt -0.080687 0.600961
vt 0.152838 -0.100269
vt 0.097740 -0.048124
vt 0.168549 0.614029
vt 0.156744 0.629487
vt 0.157025 0.577315
vt 0.132514 0.708644
vt 0.133122 0.649756
vt 0.153506 0.223224
vt 0.403838 0.490614
vt 0.418484 0.464588
vt 0.418166 0.626413
vt 0.398784 0.433899
vt 0.344027 0.005434
vt 0.385732 -0.002850
vt 0.403971 -0.069201
vt 0.164143 -0.200377
vt 0.162873 -0.165056
vt 0.150488 -0.209545
vt 0.149657 -0.177265
vt 0.153968 -0.138459
vt 0.119672 -0.202899
vt 0.113033 -0.145437
vt 0.082349 -0.069480
vt 0.183797 0.793689
vt 0.161819 0.763689
vt 0.186645 0.750100
vt 0.158241 0.720517
vt 0.177998 0.704606
vt 0.155321 0.808075
vt 0.103707 0.818195
vt 0.115059 0.764443
vt 0.048493 0.663587
vt 0.059929 0.623377
vt 0.089237 0.661402
vt 0.020162 0.652502
vt 0.010326 0.601863
vt 0.045201 0.554433
vt 0.128184 0.612345
vt 0.338839 0.565276
vt 0.293691 0.542148
vt 0.347675 0.479795
vt 0.321002 0.451947
vt 0.369964 0.434920
vt 0.271699 -0.127591
vt 0.305427 -0.098198
vt 0.288780 -0.035824
vt 0.296691 -0.153256
vt 0.251760 -0.162650
vt 0.264578 -0.185222
vt 0.314580 0.020642
vt 0.048438 0.857159
vt 0.014783 0.801842
vt 0.053312 0.808912
vt 0.027573 0.741165
vt 0.066811 0.746935
vt 0.097481 0.850076
vt -0.018138 -0.066255
vt 0.015894 -0.062728
vt -0.008588 -0.031129
vt 0.049987 -0.068526
vt 0.064505 -0.038275
vt 0.032108 -0.021201
vt 0.007694 0.014067
vt -0.021382 0.004065
vt 0.558078 -0.003470
vt 0.558742 -0.076055
vt 0.565789 -0.028162
vt 0.544692 -0.036568
vt 0.543842 -0.087215
vt -0.000510 -0.173206
vt 0.030269 -0.185459
vt -0.011103 -0.138603
vt 0.026180 -0.145856
vt -0.010863 -0.113263
vt 0.050990 -0.179859
vt 0.074289 -0.164528
vt -0.024634 -0.111097
vt -0.018685 0.660201
vt 0.018302 0.523931
vt 0.263260 0.520769
vt 0.279381 0.507591
vt 0.291664 0.616483
vt 0.273443 0.563112
vt 0.562851 0.791231
vt 0.574273 0.754494
vt 0.577784 0.840824
vt 0.514078 0.672247
vt 0.558296 0.823231
vt 0.561624 0.613704
vt 0.590804 0.646819
vt 0.604531 0.674333
vt -0.029231 0.781960
vt -0.051445 0.799602
vt -0.023085 0.839880
vt -0.042425 0.695308
vt -0.006760 0.736615
vt 0.005579 0.849514
vt -0.042926 -0.047707
vt -0.034755 -0.067242
vt -0.025404 0.066383
vt -0.006408 0.052035
vt 0.602209 0.047806
vt 0.630483 -0.100449
vt 0.651549 -0.074855
vt 0.662670 -0.047752
vt 0.614222 -0.106700
vt 0.633322 -0.054009
vt 0.632496 -0.116520
vt 0.624355 0.001774
vt 0.599274 0.106586
vt 0.624774 0.068191
vt 0.610554 0.199509
vt 0.736390 0.597837
vt 0.741943 0.599129
vt 0.752597 0.672208
vt 0.750246 0.600157
vt 0.761736 0.682113
vt 0.428561 -0.022925
vt 0.446880 0.003967
vt 0.461318 -0.008972
vt 0.452594 0.089421
vt 0.432351 -0.075831
vt 0.449703 -0.068225
vt 0.431381 -0.133743
vt 0.450972 -0.118750
vt 0.467394 -0.059852
vt 0.468220 0.043053
vt 0.749814 1.125385
vt 0.713924 1.176561
vt 0.746127 1.176764
vt 0.713345 1.201269
vt 0.755609 1.185407
vt 0.739478 1.200018
vt 0.712331 1.227834
vt 0.760950 1.160559
vt 0.747839 1.156125
vt 0.754108 1.202019
vt 0.738382 1.214515
vt 0.392812 0.725200
vt 0.440071 0.715748
vt 0.415288 0.767968
vt 0.453930 0.759982
vt 0.442493 0.799464
vt 0.460674 0.810539
vt 0.438235 0.850270
vt 0.469915 0.794695
vt 0.475722 0.828726
vt 0.463946 0.843033
vt 0.367576 -0.129369
vt 0.409466 -0.117853
vt 0.367744 -0.172551
vt 0.410268 -0.162761
vt 0.359450 -0.219050
vt 0.415301 -0.188655
vt 0.439670 -0.160768
vt 0.281522 -0.207949
vt 0.314941 -0.202706
vt 0.311238 -0.177827
vt 0.275939 -0.231807
vt 0.311238 -0.220439
vt 0.265630 -0.220188
vt 0.250198 -0.210914
vt 0.256834 -0.236040
vt 0.269758 -0.240855
vt 0.311481 -0.233386
vt 0.592026 -0.154431
vt 0.600208 -0.177087
vt 0.581455 -0.110532
vt 0.557522 -0.133272
vt 0.555505 -0.167080
vt 0.573727 -0.167942
vt 0.560343 -0.190502
vt 0.572247 -0.209895
vt 0.577137 -0.231474
vt 0.610224 -0.065486
vt 0.606263 0.812453
vt 0.592695 0.863886
vt 0.594387 0.785587
vt 0.640574 0.726027
vt 0.622556 0.821580
vt 0.605840 0.867949
vt 0.623937 0.854977
vt 0.657785 0.748469
vt 0.641258 0.817532
vt -0.068534 0.233106
vt -0.053961 0.282359
vt -0.093227 0.493941
vt 0.168551 0.291046
vt 0.162219 0.214923
vt 0.170438 0.129845
vt 0.769010 1.089255
vt 0.780640 1.196117
vt 0.774008 1.223384
vt 0.527001 0.392555
vt 0.557880 0.453159
vt 0.516545 0.442412
vt 0.534984 0.327559
vt 0.565006 0.354923
vt 0.524405 0.301975
vt 0.513083 0.372348
vt 0.729913 0.876546
vt 0.732035 0.811861
vt 0.752721 0.920424
vt 0.724188 0.769655
vt 0.721765 0.834158
vt 0.753091 1.009870
vt 0.432579 0.462832
vt 0.430110 0.370439
vt 0.441898 0.484458
vt 0.436249 0.315482
vt 0.440007 0.390053
vt -0.136278 0.339406
vt -0.125063 0.493292
vt -0.153113 0.465681
vt -0.120012 0.221713
vt -0.112776 0.304234
vt -0.101825 0.362666
vt -0.129206 0.208790
vt -0.151238 0.344003
vt -0.098142 0.194447
vt 0.765691 0.424180
vt 0.777461 0.383285
vt 0.794519 0.481336
vt 0.784191 0.260108
vt 0.801036 0.381913
vt 0.751233 0.160160
vt 0.807621 0.216948
vt 0.814526 0.344587
vt 0.094477 0.326194
vt 0.129751 0.369225
vt 0.127609 0.548582
vt 0.133959 0.256924
vt 0.140395 0.473460
vt 0.413094 0.304850
vt 0.385072 0.237402
vt 0.395303 0.165982
vt 0.346536 0.159651
vt 0.326956 0.151411
vt 0.286351 0.243035
vt 0.279290 0.142245
vt 0.341579 0.261990
vt 0.349021 0.340868
vt 0.242531 0.150175
vt 0.268035 0.327478
vt 0.259205 0.278155
vt 0.243774 0.223269
vt 0.240631 0.055076
vt -0.021567 0.242474
vt -0.020433 0.487524
vt 0.221036 0.217628
vt 0.226897 0.294891
vt 0.207494 0.312883
vt 0.233390 0.341006
vt 0.198994 0.249620
vt 0.209826 0.203725
vt 0.220027 0.132552
vt 0.234218 0.093280
vt 0.604242 0.455657
vt 0.639889 0.347671
vt 0.622403 0.460615
vt 0.644847 0.468994
vt 0.669255 0.398722
vt 0.670868 0.550401
vt 0.600630 0.358847
vt 0.608989 0.281115
vt 0.646721 0.256629
vt 0.664682 0.246214
vt 0.683472 0.503266
vt 0.716911 0.423993
vt 0.703538 0.323395
vt 0.731281 0.450747
vt 0.712873 0.266073
vt 0.158338 0.464160
vt 0.177274 0.316197
vt 0.173792 0.279781
vt 0.182072 0.180361
vt 0.170441 0.472174
vt 0.166377 0.474194
vt 0.438286 0.218770
vt 0.425172 0.268405
vt 0.743159 0.003931
vt 0.698356 0.145231
vt 0.693443 0.238506
vt 0.709474 0.050825
vt 0.726374 0.003533
vt 0.731391 0.131652
vt -0.035615 0.443896
vt 0.164525 0.528543
vt 0.510828 0.503762
vt 0.552697 0.513964
vt 0.552271 0.567059
vt 0.569872 0.442342
vt 0.573477 0.511949
vt 0.721181 1.017468
vt 0.725078 0.980064
vt 0.760430 1.089135
vt 0.762549 1.029691
vt -0.148020 0.571608
vt 0.358340 0.094640
vt 0.323857 0.085866
vt 0.262422 0.029196
vt 0.243950 -0.017836
vt 0.016444 0.225176
vt 0.044197 0.321726
vt 0.517484 0.632681
vt 0.490106 0.592226
vt 0.496777 0.567315
vt 0.515515 0.571060
vt 0.551667 0.688179
vt 0.498901 0.517745
vt -0.037179 0.267889
vt 0.622788 0.624471
vt 0.626022 0.564009
vt 0.644324 0.661069
vt 0.667662 0.635824
vt 0.671997 0.699156
vt 0.653177 0.577674
vt 0.685684 0.616377
vt -0.078524 0.172671
vt 0.540235 0.249050
vt 0.549480 0.252266
vt 0.577589 0.190932
vt 0.577582 0.240016
vt -0.094349 0.112738
vt -0.084412 0.062986
vt -0.072349 0.062679
vt -0.060811 0.025335
vt -0.053382 0.045251
vt 0.137667 0.143691
vt 0.149776 0.272997
vt 0.413874 0.374209
vt 0.395445 0.368617
vt 0.396095 0.317445
vt 0.316495 0.401981
vt 0.354516 0.395108
vt 0.324753 0.369658
vt 0.270919 0.379085
vt 0.377144 0.374021
vt 0.043967 0.179199
vt 0.270464 0.473755
vt 0.241366 0.390416
vt 0.231126 0.434023
vt 0.218250 0.377629
vt 0.638359 0.172719
vt 0.571918 0.306567
vt 0.185498 0.032535
vt 0.774561 0.525789
vt 0.819037 0.566150
vt 0.732572 0.529832
vt 0.731599 0.274162
vt 0.065160 -0.103032
vt 0.100178 0.008170
vt 0.061846 0.022518
vt 0.339825 0.683612
vt 0.367844 0.670976
vt 0.351053 0.739583
vt 0.075769 -0.210169
vt 0.038811 -0.215617
vt 0.083564 -0.236378
vt 0.145064 0.619996
vt 0.396974 0.612836
vt 0.335824 -0.054588
vt 0.365173 -0.078018
vt 0.362865 0.798695
vt 0.408590 0.818271
vt 0.371452 0.828773
vt 0.399101 0.861337
vt 0.361875 0.851274
vt 0.367467 0.875079
vt 0.346251 0.773769
vt 0.363971 -0.199842
vt 0.078810 0.236683
vt 0.370761 0.320459
vt 0.359679 0.250724
vt 0.080795 0.567102
vt 0.776947 0.810566
vt 0.786062 0.833312
vt 0.782181 0.926801
vt 0.775502 0.775448
vt 0.688366 1.083338
vt 0.669617 0.005802
vt 0.826100 0.593954
vt 0.827779 0.613197
vt 0.824957 0.620642
vt 0.737980 -0.235870
vt 0.124881 -0.232904
vt 0.164893 -0.111481
vt 0.547313 0.000411
vt -0.021727 -0.138546
vt 0.308054 0.591785
vt 0.300572 0.664415
vt 0.295299 0.662614
vt 0.651102 -0.086165
vt 0.665956 -0.060932
vt 0.477655 0.019719
vt 0.446769 0.701696
vt 0.253703 -0.228530
vt 0.621649 0.702717
vt 0.617480 0.878765
vt 0.767936 0.990607
vt 0.744952 0.824723
vt 0.738634 0.764583
vt 0.723442 0.920953
vt 0.815131 0.445998
vt 0.199731 0.201385
vt 0.694047 0.071356
vt 0.166192 0.561209
vt 0.568038 0.592866
vt 0.569518 0.551465
vt 0.684332 0.697308
vt 0.624611 0.664978
vt -0.064866 0.014241
vt 0.190805 -0.013844
vn -0.8946 0.2135 -0.3926
vn -0.7441 0.2564 -0.6170
vn -0.8567 0.1335 -0.4983
vn -0.6318 0.0258 -0.7747
vn -0.5563 -0.0199 -0.8308
vn -0.5763 -0.0032 -0.8172
vn -0.6183 0.0618 -0.7835
vn -0.7352 0.3845 -0.5583
vn 0.3338 0.4485 -0.8291
vn 0.3968 0.2594 -0.8805
vn 0.2284 0.3930 -0.8907
vn 0.5141 0.2123 -0.8311
vn 0.5075 0.0757 -0.8583
vn 0.3442 0.1194 -0.9313
vn 0.3760 0.0507 -0.9252
vn 0.2183 0.1705 -0.9609
vn -0.4058 -0.0783 -0.9106
vn -0.3475 -0.0404 -0.9368
vn -0.3619 -0.1820 -0.9143
vn -0.3566 0.0062 -0.9343
vn -0.3074 -0.0851 -0.9478
vn -0.1743 0.2396 0.9551
vn -0.1531 0.2614 0.9530
vn -0.1723 0.2643 0.9489
vn -0.4112 0.3606 0.8372
vn -0.5349 0.3228 0.7808
vn -0.5818 0.3812 0.7185
vn -0.5911 0.2597 0.7637
vn -0.2014 0.4666 0.8612
vn -0.1856 0.4113 0.8924
vn -0.3351 0.4421 0.8320
vn 0.4021 0.2458 0.8820
vn 0.5648 0.2382 0.7901
vn 0.4004 0.2538 0.8805
vn 0.8291 0.2256 0.5116
vn 0.6667 0.2506 0.7019
vn 0.4313 -0.1834 0.8834
vn 0.5523 -0.1797 0.8141
vn 0.5594 -0.1126 0.8212
vn 0.6573 -0.1249 0.7432
vn 0.6589 -0.1251 0.7417
vn 0.6777 -0.0537 0.7334
vn 0.5691 -0.0285 0.8217
vn -0.3277 -0.1741 0.9286
vn -0.2909 -0.1919 0.9373
vn -0.2673 -0.2541 0.9295
vn -0.2859 -0.3779 0.8806
vn -0.3679 -0.5323 0.7624
vn -0.2291 -0.4273 0.8746
vn -0.9405 0.3136 0.1306
vn -0.9212 0.3474 -0.1751
vn -0.9617 0.2712 -0.0408
vn -0.8846 0.4570 -0.0931
vn -0.8280 0.3406 0.4454
vn -0.8257 0.3446 0.4467
vn 0.9276 0.3625 -0.0905
vn 0.9604 0.2785 0.0084
vn 0.8447 0.4511 -0.2882
vn 0.5540 0.5693 -0.6074
vn 0.9604 0.2785 0.0032
vn 0.7453 0.4813 -0.4613
vn 0.9469 -0.0757 -0.3124
vn 0.8981 -0.0772 -0.4329
vn 0.8991 0.0557 -0.4342
vn 0.9159 -0.1840 -0.3569
vn 0.8203 -0.1437 -0.5536
vn 0.8414 -0.0121 -0.5402
vn 0.6486 -0.1175 -0.7520
vn 0.6884 0.0209 -0.7250
vn -0.6396 -0.2464 -0.7282
vn -0.4988 -0.4130 -0.7620
vn -0.5104 -0.5189 -0.6857
vn -0.6528 -0.6912 -0.3100
vn -0.6378 -0.6004 -0.4824
vn -0.5795 -0.7529 -0.3119
vn -0.8644 -0.3646 -0.3463
vn -0.5865 -0.1477 -0.7964
vn -0.4292 -0.3339 -0.8393
vn -0.4127 -0.1882 -0.8912
vn -0.3937 -0.2102 -0.8949
vn 0.1696 0.4955 -0.8519
vn 0.0966 0.3375 -0.9364
vn 0.4828 -0.2991 -0.8231
vn 0.3996 -0.0675 -0.9142
vn 0.1701 -0.5204 -0.8368
vn 0.2067 -0.4624 -0.8622
vn 0.5335 0.0783 -0.8422
vn 0.1961 0.2242 0.9546
vn 0.0714 0.2228 0.9723
vn 0.2423 0.2563 0.9357
vn 0.1515 0.2254 0.9624
vn 0.0562 0.2777 0.9590
vn 0.3590 -0.2576 0.8971
vn 0.4252 -0.2588 0.8673
vn 0.4635 -0.3671 0.8065
vn 0.6611 0.7125 -0.2351
vn 0.2154 0.6900 -0.6910
vn 0.3353 0.6849 -0.6468
vn 0.1025 0.6797 -0.7263
vn 0.4855 0.6675 -0.5645
vn 0.0627 0.6322 -0.7723
vn 0.1892 0.5613 -0.8057
vn 0.0415 0.5021 -0.8638
vn 0.7733 -0.6206 -0.1295
vn 0.6010 -0.6660 -0.4419
vn 0.7069 -0.4986 -0.5017
vn 0.6432 -0.4124 -0.6451
vn 0.4852 -0.4926 -0.7224
vn 0.6087 -0.3824 -0.6952
vn 0.5625 -0.7753 -0.2871
vn 0.3890 -0.8298 -0.4002
vn 0.4727 -0.5646 -0.6766
vn 0.2663 -0.6354 -0.7248
vn -0.0545 -0.4348 -0.8989
vn -0.0041 -0.4066 -0.9136
vn 0.0474 -0.4840 -0.8738
vn -0.1931 -0.3828 -0.9034
vn -0.0807 -0.2454 -0.9661
vn -0.2504 -0.2276 -0.9410
vn -0.1130 -0.0965 -0.9889
vn 0.0215 -0.3787 -0.9253
vn 0.1003 -0.2378 -0.9661
vn -0.0435 0.1752 0.9836
vn -0.0885 0.3112 0.9462
vn -0.0146 0.2572 0.9663
vn 0.0404 0.3218 0.9459
vn 0.0490 0.3311 0.9423
vn 0.0092 0.2948 0.9555
vn 0.2300 -0.4180 0.8789
vn 0.3341 -0.3946 0.8560
vn 0.2912 -0.3278 0.8987
vn 0.2868 -0.5229 0.8027
vn -0.0482 -0.4767 0.8778
vn -0.0675 -0.6429 0.7629
vn 0.0957 -0.4267 0.8993
vn 0.3407 -0.2327 0.9109
vn -0.0009 -0.7348 -0.6783
vn -0.0579 -0.6141 -0.7871
vn 0.0346 -0.6494 -0.7597
vn 0.2525 -0.6913 -0.6770
vn 0.2092 -0.6900 -0.6930
vn -0.0895 -0.5316 -0.8422
vn 0.0600 -0.5491 -0.8336
vn 0.3419 -0.8475 -0.4060
vn 0.3031 -0.8528 -0.4253
vn 0.1498 -0.5703 -0.8076
vn 0.2926 -0.5307 -0.7955
vn -0.4553 0.5428 -0.7057
vn -0.2568 0.4581 -0.8510
vn -0.3748 0.4420 -0.8150
vn -0.1010 0.4843 -0.8691
vn -0.0155 0.2497 -0.9682
vn -0.1494 0.1671 -0.9746
vn -0.3263 0.1761 -0.9287
vn -0.2307 0.0618 -0.9711
vn -0.4493 0.1034 -0.8874
vn -0.3491 0.2098 0.9133
vn -0.1261 0.1810 0.9754
vn -0.1019 0.2834 0.9536
vn -0.2154 0.2198 0.9515
vn -0.5255 0.7941 -0.3054
vn -0.3815 0.7127 -0.5887
vn -0.2596 0.6780 -0.6877
vn -0.3622 0.6225 -0.6937
vn -0.2512 0.7637 -0.5947
vn -0.1783 0.7795 -0.6005
vn -0.0578 0.6878 -0.7236
vn -0.5723 0.6626 -0.4831
vn -0.3398 -0.3121 -0.8872
vn -0.3271 -0.3836 -0.8636
vn -0.2161 -0.0632 -0.9743
vn -0.0256 0.4122 0.9107
vn -0.2787 -0.4562 0.8451
vn -0.3715 -0.4016 0.8371
vn -0.1756 -0.6219 0.7631
vn 0.0396 -0.3884 0.9206
vn -0.3167 -0.3362 0.8869
vn -0.4429 -0.6799 -0.5845
vn -0.4590 -0.6663 -0.5877
vn -0.4219 -0.7181 -0.5535
vn -0.3692 -0.4634 -0.8056
vn -0.3077 -0.5717 -0.7606
vn -0.2686 -0.5119 -0.8160
vn -0.1696 -0.6855 -0.7080
vn -0.1093 -0.7146 -0.6910
vn -0.5432 0.3980 -0.7392
vn -0.5729 0.1635 -0.8032
vn -0.7025 0.5730 -0.4220
vn -0.4785 -0.0229 -0.8778
vn -0.3201 0.0007 -0.9474
vn -0.6051 0.2869 0.7427
vn -0.8031 0.5784 -0.1429
vn -0.8180 0.4688 0.3334
vn -0.7237 0.6534 -0.2220
vn -0.6806 0.2751 0.6790
vn -0.5705 0.3404 0.7474
vn -0.6134 0.3385 0.7136
vn -0.5869 0.3322 0.7384
vn 0.5599 0.2540 0.7887
vn 0.8680 0.1996 0.4547
vn 0.8367 0.3569 0.4154
vn 0.9438 0.2324 0.2349
vn 0.7617 0.5535 0.3370
vn 0.6677 -0.1984 0.7175
vn 0.7491 -0.1124 0.6529
vn 0.7364 -0.1018 0.6689
vn 0.9216 -0.0089 0.3879
vn 0.7213 -0.3150 0.6168
vn 0.8170 -0.2101 0.5370
vn 0.7995 -0.1716 0.5756
vn 0.7978 -0.5751 0.1813
vn 0.8746 -0.3693 0.3140
vn 0.8673 -0.3387 0.3649
vn 0.9915 -0.0930 0.0914
vn 0.9986 0.0265 -0.0459
vn -0.4420 -0.3943 0.8057
vn -0.4393 -0.5386 0.7190
vn -0.5102 -0.6768 0.5307
vn -0.4386 -0.6768 0.5913
vn -0.5148 -0.6806 0.5214
vn -0.7181 -0.6595 0.2223
vn -0.5862 -0.7992 0.1327
vn -0.5484 -0.7857 0.2862
vn -0.5915 -0.7994 0.1052
vn -0.6693 -0.3294 0.6660
vn -0.5412 -0.4978 0.6777
vn -0.6950 -0.4743 0.5404
vn -0.7008 -0.6966 -0.1539
vn -0.7909 -0.5852 -0.1789
vn 0.0550 0.2919 0.9549
vn 0.1432 0.2637 0.9539
vn 0.0806 0.3330 0.9395
vn 0.1136 0.4513 0.8851
vn 0.2257 0.3501 0.9091
vn 0.1643 0.4299 0.8878
vn 0.2219 0.6740 0.7046
vn 0.4878 0.6561 0.5759
vn 0.1272 0.7458 0.6539
vn 0.5046 0.4492 0.7373
vn 0.4187 0.8229 0.3841
vn 0.3633 -0.4641 0.8079
vn 0.5062 -0.5342 0.6770
vn 0.6538 -0.4813 0.5838
vn 0.4343 -0.6688 0.6034
vn 0.4758 -0.6615 0.5796
vn 0.4740 -0.8753 0.0954
vn 0.6727 -0.7325 0.1044
vn 0.2237 -0.6274 0.7459
vn 0.2488 -0.7063 0.6628
vn 0.3217 -0.8338 0.4486
vn 0.3840 -0.8145 0.4349
vn 0.3895 -0.8126 0.4335
vn 0.1256 -0.9917 0.0289
vn 0.0484 -0.9960 0.0748
vn -0.0959 -0.7754 0.6241
vn -0.1928 -0.9758 -0.1035
vn -0.1983 -0.9707 -0.1357
vn -0.1523 -0.9878 0.0332
vn 0.0474 -0.9325 -0.3581
vn 0.3058 -0.8683 -0.3905
vn -0.6991 0.5865 0.4089
vn -0.4224 0.2885 0.8593
vn -0.4981 0.3646 0.7867
vn -0.5407 0.2717 0.7961
vn -0.1842 0.3323 0.9250
vn -0.2578 0.5286 0.8088
vn -0.4229 0.5871 0.6902
vn -0.3355 0.4208 0.8428
vn -0.1955 0.8395 0.5071
vn -0.3138 0.6950 0.6470
vn -0.3358 0.9262 0.1716
vn -0.4104 0.8919 0.1899
vn -0.5276 0.8213 0.2172
vn -0.6532 0.3803 0.6547
vn -0.6594 0.3131 0.6835
vn -0.4421 -0.7388 0.5087
vn -0.4683 -0.6916 0.5498
vn -0.5252 -0.6656 0.5302
vn -0.5228 -0.6696 0.5275
vn -0.5725 -0.6436 0.5080
vn -0.4853 -0.8548 0.1838
vn -0.6196 -0.7614 0.1907
vn -0.4570 -0.8756 -0.1563
vn -0.4589 -0.4968 0.7366
vn -0.4750 -0.4899 0.7310
vn -0.4377 -0.5066 0.7428
vn -0.5883 -0.7677 -0.2542
vn -0.8485 0.3805 0.3679
vn -0.5423 -0.0052 -0.8402
vn -0.3701 -0.0108 -0.9289
vn -0.5441 -0.0216 -0.8388
vn 0.6941 0.0548 -0.7178
vn 0.5872 0.0675 -0.8066
vn 0.5211 0.0364 -0.8527
vn 0.3929 0.0327 -0.9190
vn 0.5631 0.0359 -0.8256
vn 0.2472 0.0019 -0.9690
vn -0.8009 -0.0590 0.5959
vn -0.8007 -0.0874 0.5926
vn -0.8025 -0.0575 0.5939
vn -0.7492 0.1715 0.6398
vn -0.8352 0.1096 0.5389
vn -0.7211 0.0517 0.6909
vn -0.4641 0.2641 0.8455
vn -0.4918 0.1402 0.8593
vn -0.5160 0.1098 0.8495
vn -0.5461 0.1564 0.8230
vn -0.5291 0.0796 0.8448
vn -0.7394 0.1982 0.6434
vn -0.6649 0.0660 0.7440
vn -0.5384 0.0140 0.8426
vn 0.5225 0.2624 0.8112
vn 0.4616 0.2209 0.8591
vn 0.8110 0.2322 0.5371
vn 0.7975 0.1924 0.5717
vn 0.8459 0.1249 0.5185
vn 0.8821 0.2213 0.4159
vn -0.8133 0.0364 -0.5806
vn -0.8514 -0.0286 -0.5237
vn -0.8796 -0.0052 -0.4756
vn -0.8447 0.0923 -0.5272
vn -0.8355 0.0760 -0.5442
vn -0.6549 0.0521 -0.7539
vn -0.6551 0.0137 -0.7554
vn -0.6616 -0.0347 -0.7491
vn -0.9758 0.1323 -0.1739
vn -0.6426 0.0555 -0.7642
vn 0.9930 0.1182 0.0051
vn 0.9934 0.1138 -0.0169
vn 0.9937 0.1122 -0.0082
vn 0.9848 0.1232 -0.1222
vn 0.9330 0.1005 -0.3455
vn 0.9661 0.0602 -0.2510
vn 0.9766 0.1433 -0.1601
vn 0.8460 0.0777 -0.5275
vn 0.9072 0.0343 -0.4193
vn -0.0288 -0.0111 -0.9995
vn 0.0790 -0.0062 -0.9969
vn 0.0980 -0.0598 -0.9934
vn 0.0919 0.0353 -0.9951
vn 0.4750 0.0848 0.8759
vn 0.2898 0.0046 0.9571
vn 0.4191 -0.0845 0.9040
vn 0.2970 -0.0668 0.9525
vn 0.3915 -0.0750 0.9171
vn 0.4119 0.0027 0.9112
vn 0.3867 -0.0998 0.9168
vn 0.3648 0.0630 0.9290
vn 0.3739 0.1161 0.9202
vn 0.3331 -0.0916 0.9384
vn 0.3134 0.0683 0.9472
vn 0.3487 0.1847 0.9188
vn 0.2149 0.1434 0.9661
vn 0.1529 0.0047 0.9882
vn 0.3259 -0.1476 0.9338
vn -0.5571 -0.0500 -0.8289
vn -0.3938 -0.0140 -0.9191
vn -0.0195 -0.0289 0.9994
vn 0.0719 -0.1109 0.9912
vn 0.1007 0.2834 0.9537
vn -0.1137 0.1314 0.9848
vn -0.1012 0.3118 0.9447
vn -0.5304 -0.0416 0.8467
vn -0.5503 -0.1436 0.8225
vn -0.3684 -0.0681 0.9272
vn -0.2975 -0.1425 0.9440
vn -0.2283 -0.2011 0.9526
vn 0.0338 -0.1849 0.9822
vn -0.6814 0.1159 0.7227
vn -0.6894 0.1480 0.7091
vn -0.6815 0.0989 0.7251
vn -0.8144 0.0873 0.5737
vn -0.8165 0.1050 0.5678
vn -0.8138 0.0788 0.5758
vn -0.9620 0.0489 0.2685
vn -0.9412 0.1045 0.3213
vn -0.9762 0.0111 0.2166
vn -0.6283 0.1697 0.7593
vn -0.6043 0.2500 0.7565
vn -0.7037 0.1590 0.6925
vn -0.9232 0.1851 0.3367
vn -0.9967 0.0206 -0.0782
vn 0.9418 0.1925 0.2755
vn 0.9551 0.1673 0.2444
vn 0.7513 0.0414 -0.6587
vn 0.7913 0.0008 0.6114
vn 0.6695 0.0409 0.7417
vn 0.9716 0.0909 -0.2186
vn 0.9406 0.1158 0.3192
vn 0.9560 0.0773 0.2829
vn 0.9977 0.0673 -0.0001
vn 0.9875 0.0955 0.1254
vn 0.9889 0.1353 -0.0615
vn 0.9855 0.1515 -0.0759
vn -0.3728 -0.0015 -0.9279
vn -0.5569 -0.2362 0.7963
vn -0.6944 -0.2006 0.6910
vn -0.5661 -0.2802 0.7752
vn -0.5931 -0.0601 0.8029
vn -0.5921 0.0078 0.8058
vn -0.5451 -0.0555 0.8365
vn -0.4398 -0.1303 0.8886
vn -0.4815 -0.1184 0.8684
vn -0.6552 -0.1478 0.7408
vn -0.4305 0.0278 0.9021
vn -0.6576 -0.0161 0.7532
vn -0.9023 -0.1076 -0.4175
vn -0.7836 -0.2543 -0.5668
vn 0.3214 -0.1498 0.9350
vn 0.3260 -0.1752 0.9290
vn 0.3703 -0.2244 0.9014
vn 0.4184 -0.1540 0.8951
vn 0.3816 -0.1973 0.9030
vn -0.2826 -0.0210 -0.9590
vn -0.1383 -0.0215 -0.9902
vn -0.3425 -0.4042 0.8481
vn -0.0616 -0.3279 0.9427
vn -0.3127 -0.2857 0.9059
vn -0.4307 -0.3322 0.8392
vn -0.5078 -0.3716 0.7772
vn -0.4288 -0.3810 0.8191
vn -0.4481 -0.0451 -0.8929
vn -0.9025 -0.2722 0.3337
vn -0.9809 -0.1869 0.0548
vn -0.8874 -0.4515 0.0933
vn -0.9269 -0.1382 0.3489
vn -0.9802 -0.0421 0.1933
vn -0.9842 -0.0660 0.1645
vn -0.8659 -0.0236 0.4996
vn -0.8720 0.0209 0.4890
vn -0.8639 -0.0360 0.5023
vn -0.9765 -0.0512 -0.2095
vn -0.6468 0.0161 -0.7625
vn -0.6606 0.3575 0.6601
vn -0.5780 0.4337 0.6913
vn -0.6567 0.3644 0.6603
vn -0.6421 0.4143 0.6450
vn -0.7988 0.2688 0.5381
vn -0.6769 0.3026 0.6710
vn -0.7691 0.3320 0.5461
vn -0.8852 0.1944 -0.4226
vn -0.7420 0.0522 -0.6684
vn -0.7434 0.0559 -0.6665
vn -0.7430 0.0547 -0.6671
vn -0.9572 0.2875 0.0332
vn -0.8926 0.1546 -0.4234
vn 0.2067 0.0931 -0.9740
vn 0.3328 0.2212 0.9167
vn 0.1899 0.2785 0.9415
vn 0.2430 0.1127 0.9634
vn 0.1359 0.5131 0.8475
vn 0.2079 0.4666 0.8597
vn 0.1758 0.5105 0.8417
vn 0.0981 0.4820 0.8707
vn 0.1249 0.3773 0.9176
vn 0.1546 0.3458 0.9255
vn 0.1119 0.3392 0.9340
vn 0.2837 0.3059 0.9088
vn -0.1298 0.0128 -0.9915
vn 0.1065 0.5616 0.8205
vn -0.0811 0.4766 0.8753
vn 0.0593 0.4412 0.8955
vn 0.0296 0.5181 0.8548
vn 0.0883 0.5002 0.8614
vn -0.2080 0.5240 0.8260
vn -0.2194 0.4385 0.8716
vn -0.6670 0.3468 0.6594
vn -0.8762 0.3100 0.3691
vn 0.6727 0.0318 -0.7393
vn 0.9773 0.1535 0.1462
vn 0.9719 0.1430 -0.1869
vn 0.9748 0.1685 0.1459
vn 0.9350 0.1965 0.2952
vn 0.9161 0.3082 -0.2564
vn 0.9806 0.1811 0.0753
vn -0.0426 0.6114 -0.7902
vn 0.0753 0.1179 -0.9902
vn -0.0254 0.0698 -0.9972
vn 0.0039 0.1869 0.9824
vn -0.0902 0.9169 -0.3887
vn -0.0027 0.8775 -0.4796
vn -0.2568 0.8873 -0.3832
vn -0.4625 0.8699 -0.1713
vn -0.0458 0.9816 -0.1854
vn 0.2883 -0.2630 -0.9207
vn 0.0491 0.1886 0.9808
vn 0.3743 -0.3244 0.8687
vn 0.3893 -0.4056 0.8270
vn 0.0116 0.3729 0.9278
vn -0.0300 0.5445 0.8383
vn -0.0345 0.7666 0.6412
vn 0.0393 0.4729 0.8803
vn -0.2085 0.9681 0.1391
vn -0.0733 0.3589 0.9305
vn 0.4208 -0.4540 0.7854
vn 0.4521 -0.6401 0.6212
vn 0.3987 -0.8429 0.3612
vn -0.0306 0.0252 -0.9992
vn 0.1823 0.1148 0.9765
vn 0.2390 0.0377 0.9703
vn -0.0396 -0.0947 -0.9947
vn 0.1144 0.2072 0.9716
vn 0.0810 0.2365 0.9682
vn 0.2125 0.3248 0.9216
vn 0.5700 0.0906 -0.8166
vn -0.5496 0.2624 0.7931
vn 0.5529 0.2660 0.7897
vn 0.4032 0.2536 0.8793
vn -0.2893 -0.3085 0.9061
vn 0.9161 0.3964 -0.0599
vn 0.8465 0.4476 -0.2881
vn 0.9658 0.1500 0.2116
vn 0.9705 0.1426 0.1943
vn 0.8842 0.2454 -0.3975
vn 0.7307 0.3881 -0.5616
vn 0.5731 0.5779 -0.5810
vn 0.9785 0.0344 -0.2035
vn 0.9387 -0.1614 -0.3047
vn 0.8621 -0.1740 -0.4760
vn 0.8709 -0.3754 -0.3173
vn 0.4544 -0.4326 -0.7787
vn 0.2188 0.8837 -0.4137
vn 0.5560 0.7442 -0.3702
vn 0.1504 0.6095 -0.7784
vn 0.1689 0.9740 -0.1510
vn 0.2941 0.5473 -0.7836
vn 0.0700 0.6974 -0.7133
vn 0.6403 -0.4381 -0.6309
vn 0.2087 -0.7194 -0.6625
vn 0.0055 -0.7268 -0.6868
vn 0.1453 -0.5952 -0.7904
vn 0.1024 -0.5111 -0.8534
vn -0.1429 0.2015 0.9690
vn -0.4195 0.2469 0.8735
vn -0.5166 0.8514 -0.0906
vn -0.4213 0.7258 -0.5438
vn -0.7245 0.6871 -0.0543
vn -0.3853 0.2151 0.8974
vn -0.4114 -0.3654 0.8350
vn -0.4183 -0.3340 0.8447
vn -0.4177 -0.5145 0.7489
vn -0.3705 -0.4109 -0.8330
vn -0.3107 -0.7808 -0.5421
vn -0.3062 -0.7148 -0.6288
vn -0.3099 -0.8363 -0.4523
vn -0.5855 -0.7485 -0.3114
vn -0.5143 0.3810 -0.7683
vn -0.8688 0.4710 0.1530
vn -0.7533 0.6121 0.2404
vn 0.6909 0.2660 0.6722
vn 0.8580 0.2389 0.4547
vn 0.8163 -0.0421 0.5760
vn 0.9271 -0.0887 0.3641
vn 0.9892 -0.1449 0.0214
vn 0.9469 0.0192 0.3209
vn -0.4378 -0.6642 0.6060
vn -0.5459 -0.7743 0.3201
vn -0.7777 -0.4569 0.4317
vn -0.7859 -0.5880 -0.1912
vn 0.3553 0.2906 0.8884
vn 0.4257 0.2613 0.8663
vn 0.2834 0.8524 0.4395
vn 0.3712 -0.4703 0.8006
vn 0.4138 -0.6488 0.6386
vn 0.4632 -0.8318 0.3059
vn 0.5014 -0.8610 -0.0860
vn 0.4763 -0.8772 -0.0596
vn 0.4377 -0.8990 -0.0133
vn 0.3481 -0.6549 0.6708
vn 0.2591 -0.7082 0.6568
vn 0.3544 -0.6503 0.6719
vn 0.0220 -0.7891 0.6139
vn 0.2335 -0.9607 0.1501
vn -0.2098 -0.8983 0.3860
vn -0.1631 -0.7974 0.5811
vn -0.2081 -0.8867 0.4129
vn -0.2446 -0.9537 0.1749
vn -0.2365 -0.9309 -0.2785
vn 0.0784 -0.8687 -0.4891
vn 0.4272 -0.5976 0.6785
vn -0.5616 0.4768 0.6762
vn -0.2557 0.5437 0.7994
vn -0.5391 0.7677 0.3465
vn -0.4983 -0.5065 0.7037
vn -0.5722 -0.6383 0.5150
vn -0.4812 -0.8595 0.1722
vn -0.6338 -0.7660 0.1069
vn -0.5194 -0.7904 -0.3249
vn -0.3029 -0.8974 -0.3209
vn -0.7516 -0.1380 0.6450
vn -0.7992 -0.0755 0.5963
vn -0.8666 0.0531 0.4961
vn -0.7868 0.0537 0.6149
vn -0.6402 0.1328 0.7567
vn -0.9688 0.0466 -0.2436
vn -0.9852 0.1261 -0.1165
vn -0.8464 0.0917 -0.5246
vn -0.7416 0.0513 -0.6689
vn 0.9859 0.0451 -0.1609
vn 0.3287 0.1740 0.9283
vn -0.4283 -0.0086 0.9036
vn -0.0194 -0.1547 0.9878
vn -0.9366 0.1565 0.3134
vn -0.9408 0.1666 0.2953
vn -0.7602 0.2328 0.6065
vn 0.8220 0.0511 0.5672
vn 0.9458 0.1138 0.3042
vn 0.9460 0.0859 0.3126
vn 0.8108 -0.0002 0.5853
vn -0.4980 -0.2041 0.8428
vn -0.5013 -0.2034 0.8410
vn -0.3808 -0.3361 0.8614
vn -0.6717 0.0303 0.7402
vn 0.3853 -0.1785 0.9054
vn 0.1595 -0.3339 0.9290
vn 0.1443 -0.3226 0.9355
vn -0.0224 -0.3433 0.9390
vn -0.3379 -0.2511 0.9071
vn -0.8549 -0.0832 0.5121
vn -0.6716 0.0639 0.7382
vn -0.8114 0.0607 0.5813
vn -0.5804 0.3637 0.7286
vn -0.2971 0.5232 0.7988
vn -0.9246 0.1934 -0.3283
vn -0.9255 0.2268 -0.3034
vn -0.8988 0.1748 -0.4019
vn -0.8719 0.1651 -0.4611
vn -0.9601 0.2349 -0.1515
vn -0.9539 0.2997 0.0183
vn -0.9471 0.2776 -0.1609
vn 0.2920 0.3259 0.8992
vn 0.1478 0.4414 0.8851
vn 0.0518 0.3969 0.9164
vn 0.2201 0.3895 0.8944
vn 0.0096 0.5558 0.8312
vn -0.2493 0.4927 0.8337
vn -0.6462 0.3148 0.6952
vn -0.7373 0.2819 0.6140
vn -0.8685 0.3010 0.3938
vn 0.9854 0.1588 0.0609
vn 0.0519 0.9924 -0.1119
vn -0.2104 0.8742 -0.4376
vn 0.0939 -0.5261 -0.8452
vn 0.0158 0.4557 0.8900
vn -0.1752 0.8738 0.4536
vn 0.0652 0.8011 0.5949
vn 0.0439 0.8243 0.5645
vn 0.4167 -0.4639 0.7818
vn 0.4457 -0.7911 0.4189
vn 0.4643 -0.8857 -0.0053
vn 0.4136 -0.9104 0.0097
vn 0.2136 0.0756 0.9740
vn 0.2551 0.1770 0.9506
usemtl Material.001
s 1
f 1/1/1 2/2/2 328/3/3
f 328/3/4 4/4/5 320/5/6
f 328/3/4 3/6/7 4/4/5
f 1/1/1 153/7/8 2/2/2
f 5/8/9 6/9/10 69/10/11
f 7/11/12 6/9/10 5/8/9
f 8/12/13 17/13/14 6/9/10
f 8/12/13 16/14/15 17/13/14
f 6/9/10 76/15/16 69/10/11
f 12/16/17 13/17/18 11/18/19
f 14/19/20 13/17/18 12/16/17
f 13/17/18 313/20/21 11/18/19
f 19/21/22 20/22/23 18/23/24
f 18/23/25 22/24/26 21/25/27
f 18/23/25 23/26/28 22/24/26
f 24/27/29 18/23/30 21/25/31
f 28/28/32 339/29/33 29/30/34
f 339/29/33 340/31/35 163/32/36
f 32/33/37 33/34/38 31/35/39
f 33/34/38 34/36/40 31/35/41
f 31/35/39 34/36/42 257/37/43
f 36/38/44 37/39/45 39/40/46
f 39/40/47 41/41/48 38/42/49
f 43/43/50 45/44/51 44/45/52
f 43/43/50 159/46/53 45/44/51
f 42/47/54 43/43/50 327/48/55
f 46/49/56 47/50/56 48/51/56
f 50/52/57 49/53/57 46/49/57
f 49/53/58 51/54/58 47/50/58
f 51/54/59 5/55/59 88/56/59
f 50/52/60 52/57/60 49/53/60
f 52/57/61 5/55/61 51/54/61
f 53/58/62 54/59/63 293/60/64
f 55/61/65 56/62/65 54/59/65
f 54/59/63 57/63/66 58/64/67
f 58/64/67 10/65/68 9/66/69
f 63/67/70 62/68/71 60/69/72
f 66/70/73 60/69/74 65/71/75
f 61/72/76 60/69/74 66/70/73
f 67/73/77 64/74/78 62/68/71
f 67/73/79 11/18/19 64/74/80
f 68/75/81 69/10/11 70/76/82
f 10/77/68 71/78/83 74/79/84
f 93/80/85 72/81/86 71/78/83
f 76/15/16 17/13/14 220/82/87
f 28/28/88 77/83/89 80/84/90
f 28/28/88 27/85/91 77/83/89
f 80/84/90 77/83/89 78/86/92
f 82/87/93 83/88/94 32/33/37
f 82/87/93 84/89/95 83/88/94
f 48/90/96 47/91/96 86/92/96
f 87/93/97 88/94/98 348/95/99
f 47/91/100 88/94/98 87/93/97
f 350/96/101 68/75/102 343/97/103
f 59/98/104 90/99/105 56/100/106
f 56/100/107 92/101/108 57/102/109
f 91/103/110 94/104/111 90/99/105
f 90/99/112 120/105/113 92/101/108
f 57/102/66 71/78/83 10/77/68
f 96/106/114 98/107/115 95/108/116
f 97/109/117 98/107/118 96/106/114
f 99/110/119 100/111/120 98/107/118
f 95/108/121 98/107/118 305/112/122
f 102/113/123 104/114/124 101/115/125
f 101/115/126 107/116/127 105/117/128
f 110/118/129 109/119/130 108/120/131
f 110/118/129 112/121/132 109/119/130
f 111/122/133 113/123/134 110/118/135
f 108/120/131 82/87/93 114/124/136
f 108/120/131 109/119/130 82/87/93
f 117/125/137 118/126/138 116/127/139
f 94/104/140 116/127/141 120/105/113
f 116/127/139 122/128/142 121/129/143
f 118/126/138 122/128/142 116/127/139
f 189/130/144 117/125/145 94/104/111
f 121/129/143 96/106/114 95/108/116
f 120/105/113 121/129/146 93/80/147
f 123/131/148 124/132/149 126/133/150
f 125/134/151 344/135/152 130/136/153
f 126/133/154 129/137/155 154/138/156
f 19/139/157 134/140/157 132/141/157
f 133/142/158 135/143/159 134/140/160
f 136/144/161 138/145/161 137/146/161
f 138/145/162 140/147/163 141/148/164
f 138/145/165 142/149/166 140/147/163
f 142/149/166 349/150/167 140/147/163
f 141/148/164 124/132/149 123/131/148
f 137/146/168 141/148/168 160/151/168
f 64/74/169 99/110/119 143/152/170
f 11/18/19 313/20/21 99/110/119
f 313/20/21 314/153/171 99/110/119
f 104/114/124 24/154/29 144/155/172
f 19/156/22 18/157/24 104/114/124
f 145/158/173 147/159/174 115/160/175
f 311/161/176 145/158/173 111/162/133
f 35/163/177 38/164/49 41/165/48
f 60/69/72 148/166/178 149/167/179
f 149/167/179 148/166/178 152/168/180
f 62/68/71 151/169/181 148/166/182
f 143/152/170 97/109/117 150/170/183
f 150/170/183 97/109/117 122/128/142
f 150/170/183 122/128/142 118/126/138
f 148/166/182 118/126/184 119/171/185
f 153/7/8 123/131/186 2/2/2
f 2/2/187 154/138/156 3/6/7
f 45/172/51 153/7/8 1/1/1
f 160/173/188 123/131/148 153/7/8
f 3/6/7 155/174/189 4/4/5
f 154/138/156 128/175/190 155/174/189
f 23/26/28 26/176/191 22/24/26
f 158/177/192 160/178/188 159/46/53
f 159/46/53 153/179/8 45/44/51
f 159/46/53 160/178/188 153/179/8
f 201/180/193 158/177/193 157/181/193
f 158/177/194 137/182/194 160/178/194
f 26/176/191 162/183/195 25/184/196
f 25/184/196 161/185/197 325/186/198
f 29/187/199 163/188/199 182/189/199
f 163/188/200 165/190/200 164/191/200
f 164/191/201 46/49/202 48/51/203
f 33/34/38 167/192/204 34/36/40
f 167/192/204 168/193/205 34/36/206
f 168/193/207 170/194/207 166/195/207
f 169/196/208 171/197/209 168/193/210
f 173/198/211 55/199/212 171/197/213
f 171/197/214 53/200/214 170/194/214
f 170/194/215 53/200/215 172/201/215
f 40/202/216 174/203/217 41/41/48
f 174/203/218 176/204/219 177/205/220
f 176/204/221 179/206/221 178/207/221
f 177/205/222 178/207/223 65/208/224
f 40/202/216 180/209/225 175/210/226
f 175/210/226 180/209/225 176/204/227
f 178/207/228 61/211/229 66/212/73
f 346/213/230 30/214/231 181/215/232
f 181/215/233 182/216/234 183/217/235
f 183/217/236 184/218/237 89/219/238
f 182/216/239 164/220/201 184/218/237
f 184/218/237 48/221/203 86/222/240
f 186/223/241 185/224/242 84/89/95
f 185/224/242 173/198/243 169/196/208
f 188/225/244 187/226/245 185/224/242
f 187/226/246 189/227/246 91/228/246
f 187/226/247 59/229/104 173/198/211
f 173/198/211 59/229/104 55/199/212
f 84/89/95 169/196/208 167/192/204
f 84/89/95 167/192/204 33/34/38
f 113/123/248 191/230/249 112/121/132
f 191/230/250 193/231/251 190/232/252
f 191/230/253 194/233/253 195/234/253
f 192/235/254 194/233/254 191/230/254
f 113/123/134 115/236/175 192/235/255
f 197/237/256 194/233/257 192/235/258
f 195/234/259 119/238/259 117/239/259
f 195/234/260 117/239/260 189/227/260
f 202/240/261 136/241/261 201/180/261
f 134/140/262 198/242/263 20/22/264
f 135/143/159 199/243/265 134/140/160
f 204/244/266 200/245/267 199/243/268
f 205/246/269 203/247/270 200/245/267
f 203/247/271 139/248/272 136/241/273
f 198/242/263 201/180/274 156/249/275
f 115/160/276 207/250/276 196/251/276
f 115/160/277 206/252/278 207/250/279
f 206/252/278 177/253/280 207/250/279
f 196/251/281 208/254/281 197/255/281
f 207/250/282 177/253/282 208/254/282
f 208/254/283 152/256/283 197/255/283
f 147/159/284 41/165/285 206/252/286
f 65/257/287 149/258/287 208/254/287
f 156/249/275 42/47/54 162/183/195
f 156/249/275 157/181/288 42/47/54
f 20/22/264 156/249/275 23/26/28
f 209/259/289 210/260/290 304/261/291
f 215/262/292 216/263/293 214/264/294
f 218/265/295 219/266/296 307/267/297
f 222/268/298 224/269/299 221/270/300
f 223/271/301 226/272/302 222/268/303
f 229/273/304 223/271/301 228/274/305
f 231/275/306 232/276/307 233/277/308
f 230/278/309 231/275/310 226/279/302
f 231/275/306 233/277/308 301/280/311
f 79/281/312 236/282/313 341/283/314
f 236/282/315 238/284/316 239/285/317
f 242/286/318 241/287/319 240/288/320
f 243/289/321 244/290/322 242/286/318
f 244/290/323 245/291/324 241/287/325
f 247/292/326 242/286/326 246/293/326
f 248/294/327 245/291/324 244/290/323
f 250/295/328 251/296/329 253/297/330
f 251/296/331 292/298/332 254/299/333
f 252/300/334 292/298/332 251/296/331
f 292/298/332 294/301/335 254/299/333
f 254/299/333 294/301/335 212/302/336
f 356/303/337 255/304/338 306/305/339
f 255/304/338 256/306/340 307/307/297
f 257/37/43 258/308/341 259/309/342
f 262/310/343 259/309/342 261/311/344
f 263/312/345 267/313/346 266/314/347
f 264/315/348 265/316/349 267/313/346
f 266/314/347 267/313/346 268/317/350
f 267/313/351 270/318/352 269/319/353
f 267/313/351 269/319/353 271/320/354
f 266/314/347 268/317/350 272/321/355
f 280/322/356 128/175/190 312/323/357
f 271/320/354 275/324/358 268/317/359
f 270/318/360 276/325/361 269/319/353
f 276/325/361 275/324/358 271/320/354
f 276/325/361 228/326/305 275/324/358
f 277/327/362 228/326/305 276/325/361
f 228/326/305 221/328/363 278/329/364
f 275/324/365 278/329/366 279/330/367
f 268/317/368 279/330/368 272/331/368
f 233/332/369 282/333/370 281/334/371
f 281/334/372 282/333/373 283/335/374
f 283/335/375 246/336/376 284/337/377
f 234/338/378 235/339/379 282/333/380
f 285/340/381 247/341/381 282/333/381
f 246/336/376 240/342/382 284/337/377
f 341/343/314 239/344/317 286/345/383
f 239/344/317 287/346/384 286/345/383
f 215/262/292 219/347/296 216/263/293
f 294/348/335 213/349/385 212/350/336
f 294/348/335 9/351/69 213/349/385
f 213/349/385 9/352/69 219/347/296
f 34/36/386 290/353/386 289/354/386
f 257/37/43 289/354/387 258/308/341
f 291/355/388 293/60/64 292/298/332
f 292/298/332 293/60/64 294/301/335
f 293/60/64 58/64/67 294/301/335
f 290/356/389 287/346/384 238/357/316
f 166/358/390 172/359/391 295/360/392
f 172/359/391 291/355/388 295/360/392
f 295/360/393 252/300/334 250/295/394
f 304/261/291 14/19/20 12/16/17
f 210/260/290 296/361/395 14/19/20
f 219/347/296 9/362/69 74/79/84
f 306/305/339 74/79/84 305/112/122
f 307/307/297 74/79/84 306/305/339
f 227/363/396 298/364/397 297/365/398
f 298/364/399 225/366/400 300/367/401
f 36/38/44 299/368/402 37/39/45
f 299/368/402 300/369/401 37/39/45
f 37/39/403 301/280/311 302/370/404
f 300/369/405 231/275/306 301/280/311
f 301/280/311 233/277/308 317/371/406
f 303/372/407 63/67/408 61/72/76
f 241/287/325 67/73/77 63/67/70
f 245/291/324 304/261/291 241/287/325
f 304/261/291 12/16/17 67/73/77
f 32/33/37 262/310/343 308/373/409
f 32/33/37 308/373/409 82/87/93
f 262/310/343 261/311/344 308/373/409
f 31/35/39 262/310/343 32/33/37
f 114/124/136 309/374/410 310/375/411
f 108/120/131 310/375/411 110/118/129
f 309/374/412 266/314/347 272/321/413
f 110/118/135 311/376/176 111/122/133
f 312/323/357 273/377/414 313/20/21
f 314/153/171 274/378/415 100/111/120
f 311/161/176 315/379/416 145/158/173
f 272/380/417 315/379/417 311/161/417
f 279/381/418 316/382/419 315/379/416
f 316/382/419 35/163/420 146/383/421
f 278/384/364 227/363/396 316/382/419
f 227/363/396 297/365/398 316/382/419
f 316/382/419 297/365/398 35/163/420
f 315/379/416 146/383/421 145/158/173
f 296/361/395 211/385/422 312/323/357
f 302/386/404 317/387/406 180/388/225
f 180/388/423 319/389/424 179/390/425
f 180/388/423 318/391/426 319/389/424
f 318/391/427 284/337/377 319/389/428
f 317/387/429 283/335/430 318/391/431
f 284/337/432 303/392/407 319/389/424
f 209/259/289 320/5/6 210/260/290
f 210/260/290 4/4/5 211/385/422
f 249/393/433 320/5/6 209/259/289
f 321/394/434 223/271/434 229/273/434
f 21/25/435 322/395/435 321/394/435
f 21/25/27 323/396/436 322/395/437
f 322/395/438 324/397/438 223/271/438
f 323/396/436 324/397/439 322/395/440
f 25/184/196 324/397/439 323/396/436
f 25/184/196 325/186/198 324/397/439
f 326/398/441 248/294/441 243/289/441
f 248/294/442 328/3/443 249/393/444
f 327/399/445 326/398/445 247/292/445
f 44/400/446 1/401/1 328/402/3
f 256/306/340 75/403/447 218/404/295
f 237/405/448 80/84/90 329/406/449
f 258/308/341 237/405/448 260/407/450
f 79/281/312 80/84/90 237/405/448
f 107/116/451 332/408/451 331/409/451
f 330/410/452 332/408/453 333/411/454
f 105/117/455 331/409/456 360/412/457
f 265/316/458 330/410/458 270/318/458
f 129/137/155 334/413/459 273/377/414
f 335/414/460 336/415/461 333/411/454
f 107/116/462 335/414/463 332/408/464
f 144/155/172 24/154/29 335/414/463
f 24/154/465 321/416/465 336/415/465
f 336/415/461 229/417/466 277/327/362
f 333/411/454 277/327/362 270/318/360
f 4/4/5 280/322/356 211/385/422
f 155/174/189 128/175/190 280/322/356
f 161/185/197 337/418/467 325/186/198
f 337/418/468 247/341/468 285/340/468
f 42/47/54 327/48/55 337/418/467
f 325/186/198 235/339/379 230/419/309
f 161/185/197 42/47/54 337/418/467
f 217/420/469 8/12/13 7/11/12
f 214/264/294 16/14/15 8/12/13
f 213/349/385 214/264/294 217/420/469
f 339/29/33 341/283/314 340/31/35
f 80/84/90 79/281/312 28/28/88
f 342/421/470 338/422/471 50/52/472
f 165/190/473 342/421/470 50/52/472
f 338/422/471 52/57/474 50/52/472
f 340/423/35 286/345/383 165/190/473
f 286/345/383 288/424/475 342/421/470
f 127/425/476 343/97/103 125/134/151
f 343/97/103 344/135/152 125/134/151
f 344/135/152 70/76/82 345/426/477
f 131/427/478 345/426/477 256/306/340
f 133/428/158 103/429/479 135/430/159
f 102/113/123 103/429/479 133/428/158
f 347/431/480 348/95/481 349/150/167
f 349/150/167 350/96/101 127/425/476
f 139/432/482 347/431/480 138/145/483
f 351/433/484 348/95/481 347/431/480
f 72/81/86 305/112/122 73/434/485
f 77/83/89 101/115/125 78/86/92
f 81/435/486 102/113/123 77/83/89
f 352/436/487 85/437/488 82/87/93
f 109/119/130 352/436/487 82/87/93
f 346/213/230 181/215/232 204/438/489
f 204/438/490 353/439/490 205/440/490
f 353/439/491 351/441/491 205/440/491
f 181/215/233 183/217/235 353/439/492
f 203/442/271 351/441/493 139/443/272
f 135/430/159 204/438/494 199/444/265
f 112/121/132 186/223/495 109/119/130
f 190/232/496 188/225/496 186/223/496
f 188/225/497 195/234/497 354/445/497
f 274/378/415 355/446/498 356/303/337
f 356/303/337 256/306/340 255/304/338
f 259/309/342 358/447/499 357/448/500
f 261/311/344 264/315/348 263/312/345
f 357/448/500 265/316/349 264/315/348
f 100/111/120 356/303/337 359/449/501
f 359/449/501 356/303/337 306/305/339
f 359/449/501 306/305/339 305/112/122
f 308/373/409 261/311/344 309/374/410
f 308/373/409 309/374/410 114/124/136
f 334/413/459 131/427/478 355/446/498
f 329/406/502 78/86/92 360/412/503
f 360/412/457 331/409/456 265/316/504
f 260/407/450 360/412/503 358/447/499
f 328/3/4 2/2/187 3/6/7
f 7/11/12 8/12/13 6/9/10
f 67/73/77 12/16/17 11/18/19
f 14/19/20 296/361/395 13/17/18
f 15/450/505 16/451/15 216/452/293
f 15/450/505 17/453/14 16/451/15
f 18/23/506 20/22/264 23/26/28
f 22/24/26 25/184/196 21/25/27
f 22/24/26 26/176/191 25/184/196
f 29/30/507 339/29/507 163/32/507
f 30/214/508 28/28/508 29/30/508
f 262/310/343 31/35/39 257/37/43
f 35/454/177 36/38/509 38/42/49
f 36/38/509 39/40/47 38/42/49
f 39/40/47 37/39/403 40/202/216
f 39/40/47 40/202/216 41/41/48
f 42/47/54 157/181/288 43/43/50
f 44/45/446 45/44/51 1/455/1
f 43/43/50 157/181/288 159/46/53
f 46/49/510 49/53/510 47/50/510
f 49/53/511 52/57/511 51/54/511
f 46/49/202 165/190/512 50/52/513
f 52/57/474 7/456/514 5/55/515
f 5/55/9 69/457/11 68/458/81
f 47/50/516 51/54/516 88/56/516
f 291/355/388 53/58/517 293/60/64
f 53/58/62 55/61/518 54/59/63
f 54/59/63 56/62/519 57/63/66
f 293/60/64 54/59/63 58/64/67
f 58/64/67 57/63/66 10/65/68
f 55/61/520 59/459/520 56/62/520
f 294/301/335 58/64/67 9/66/69
f 61/72/76 63/67/408 60/69/74
f 62/68/71 64/74/78 151/169/181
f 63/67/70 67/73/77 62/68/71
f 69/10/11 76/15/16 70/76/82
f 343/97/103 68/75/102 70/76/82
f 6/9/10 17/13/14 76/15/16
f 71/78/83 72/81/86 73/434/485
f 71/78/83 73/434/485 74/79/84
f 92/101/108 93/80/147 71/78/521
f 75/403/447 345/426/477 76/15/16
f 27/85/91 28/28/88 30/214/231
f 82/87/93 85/437/488 84/89/95
f 83/88/94 84/89/95 33/34/38
f 32/33/37 83/88/94 33/34/38
f 86/92/522 87/93/522 348/95/522
f 86/92/523 47/91/523 87/93/523
f 88/94/524 68/75/102 350/96/101
f 89/460/525 86/92/525 348/95/525
f 88/94/524 5/461/526 68/75/102
f 348/95/527 88/94/524 350/96/101
f 59/98/104 91/103/110 90/99/105
f 56/100/528 90/99/112 92/101/108
f 91/103/110 189/130/144 94/104/111
f 90/99/112 94/104/140 120/105/113
f 92/101/108 120/105/113 93/80/147
f 57/102/109 92/101/108 71/78/521
f 97/109/117 99/110/119 98/107/118
f 98/107/118 100/111/120 359/449/501
f 98/107/118 359/449/501 305/112/122
f 81/435/486 103/429/479 102/113/123
f 101/115/125 104/114/124 144/155/172
f 101/115/125 144/155/172 107/116/462
f 110/118/129 113/123/248 112/121/132
f 113/123/134 111/122/133 115/236/175
f 94/104/529 117/125/529 116/127/529
f 117/125/530 119/171/185 118/126/184
f 120/105/531 116/127/139 121/129/143
f 122/128/142 97/109/117 96/106/114
f 121/129/143 122/128/142 96/106/114
f 93/80/532 121/129/143 95/108/116
f 124/132/149 140/147/163 125/134/151
f 140/147/163 127/425/476 125/134/151
f 124/132/149 125/134/151 130/136/153
f 126/133/154 124/132/149 130/136/153
f 126/133/154 130/136/153 129/137/155
f 154/138/156 129/137/155 128/175/190
f 130/136/153 344/135/152 131/427/478
f 130/136/153 131/427/478 334/413/459
f 129/137/155 130/136/153 334/413/459
f 128/175/190 129/137/155 273/377/414
f 19/139/22 106/462/533 133/142/158
f 19/139/22 133/142/158 134/140/160
f 132/141/534 134/140/534 20/22/534
f 136/144/535 139/432/482 138/145/483
f 137/146/536 138/145/536 141/148/536
f 140/147/163 349/150/167 127/425/476
f 141/148/164 140/147/163 124/132/149
f 158/463/537 136/144/537 137/146/537
f 143/152/170 99/110/119 97/109/117
f 64/74/80 11/18/19 99/110/119
f 13/17/18 312/323/357 313/20/21
f 99/110/119 314/153/171 100/111/120
f 102/113/123 106/464/533 104/114/124
f 106/464/533 19/156/22 104/114/124
f 19/156/538 132/465/538 20/466/538
f 104/114/124 18/157/30 24/154/29
f 145/158/173 146/383/421 147/159/174
f 147/159/174 146/383/421 41/165/539
f 146/383/421 35/163/420 41/165/540
f 115/160/541 147/159/284 206/252/286
f 111/162/133 145/158/173 115/160/175
f 148/166/182 151/169/181 150/170/183
f 151/169/181 143/152/170 150/170/183
f 151/169/181 64/74/542 143/152/170
f 152/168/543 148/166/544 119/171/545
f 65/71/75 60/69/74 149/167/546
f 60/69/72 62/68/71 148/166/178
f 148/166/182 150/170/183 118/126/184
f 2/2/547 123/131/547 126/133/547
f 2/2/187 126/133/154 154/138/156
f 3/6/7 154/138/156 155/174/189
f 157/181/288 158/177/548 159/46/53
f 201/180/549 136/241/549 158/177/549
f 160/178/188 141/467/164 123/468/148
f 25/184/196 162/183/195 161/185/197
f 161/185/197 162/183/195 42/47/54
f 182/189/550 163/188/550 164/191/550
f 164/191/201 165/190/512 46/49/202
f 163/188/551 340/423/35 165/190/473
f 34/36/552 168/193/552 166/195/552
f 167/192/204 169/196/208 168/193/205
f 168/193/553 171/197/553 170/194/553
f 169/196/208 173/198/243 171/197/209
f 171/197/554 55/199/554 53/200/554
f 172/201/391 53/200/517 291/469/388
f 166/195/555 170/194/555 172/201/555
f 40/202/216 175/210/226 174/203/217
f 174/203/218 175/210/556 176/204/219
f 177/205/222 176/204/557 178/207/223
f 176/204/558 180/209/423 179/206/425
f 178/207/559 179/206/425 61/211/76
f 65/208/75 178/207/228 66/212/73
f 181/215/233 30/214/560 182/216/234
f 183/217/236 182/216/239 184/218/237
f 346/213/230 27/85/91 30/214/231
f 30/214/560 29/470/561 182/216/234
f 184/218/237 164/220/201 48/221/203
f 89/219/562 184/218/237 86/222/240
f 85/437/488 186/223/563 84/89/95
f 84/89/95 185/224/242 169/196/208
f 185/224/242 187/226/245 173/198/243
f 186/223/564 188/225/564 185/224/564
f 188/225/565 354/445/565 187/226/565
f 187/226/566 354/445/567 189/227/568
f 187/226/247 91/228/110 59/229/104
f 112/121/569 191/230/570 190/232/571
f 113/123/572 192/235/572 191/230/572
f 193/231/573 191/230/573 195/234/573
f 192/235/574 115/236/575 196/471/576
f 196/471/576 197/237/577 192/235/574
f 197/237/256 119/238/578 194/233/257
f 195/234/579 194/233/579 119/238/579
f 112/121/569 190/232/571 186/223/580
f 134/140/262 199/243/268 198/242/263
f 199/243/268 200/245/267 198/242/263
f 198/242/263 202/240/581 201/180/274
f 198/242/263 200/245/267 202/240/581
f 200/245/267 203/247/270 202/240/581
f 20/22/264 198/242/263 156/249/275
f 204/244/266 205/246/582 200/245/267
f 202/240/583 203/247/583 136/241/583
f 206/252/584 41/165/48 174/472/217
f 206/252/585 174/472/218 177/253/220
f 196/251/586 207/250/586 208/254/586
f 177/253/222 65/257/224 208/254/587
f 208/254/588 149/258/588 152/256/588
f 197/255/589 152/256/543 119/473/545
f 23/26/28 156/249/275 162/183/195
f 156/249/275 201/180/274 157/181/288
f 23/26/28 162/183/195 26/176/191
f 210/260/290 211/385/422 296/361/395
f 304/261/291 210/260/290 14/19/20
f 213/349/385 215/262/292 214/264/294
f 212/350/336 213/349/385 217/420/469
f 218/265/295 220/474/87 219/266/296
f 220/474/87 216/452/293 219/266/296
f 221/270/590 224/269/299 298/364/397
f 222/268/298 225/366/591 224/269/299
f 222/268/592 226/272/302 225/366/593
f 228/274/305 222/268/303 221/270/363
f 228/274/305 223/271/301 222/268/303
f 223/271/301 230/419/309 226/272/302
f 231/275/306 230/278/309 232/276/307
f 233/277/594 232/276/307 234/475/378
f 234/475/378 232/276/307 235/476/379
f 225/477/593 226/279/302 231/275/310
f 230/278/309 235/476/379 232/276/307
f 341/283/314 236/282/315 239/285/317
f 79/281/312 237/405/448 236/282/313
f 237/405/448 258/308/341 236/282/313
f 242/286/318 244/290/322 241/287/319
f 245/291/324 209/259/289 304/261/291
f 246/293/595 242/286/595 240/288/595
f 247/292/596 243/289/596 242/286/596
f 243/289/597 248/294/597 244/290/597
f 248/294/442 249/393/444 245/291/598
f 250/295/394 252/300/334 251/296/331
f 251/296/329 217/478/599 253/297/330
f 251/296/331 254/299/333 217/478/469
f 254/299/333 212/302/336 217/478/469
f 256/306/340 218/404/295 307/307/297
f 262/310/343 257/37/43 259/309/342
f 259/309/342 258/308/341 260/407/450
f 263/312/345 264/315/348 267/313/346
f 267/313/600 265/316/600 270/318/600
f 268/317/359 267/313/351 271/320/354
f 312/323/357 128/175/190 273/377/414
f 313/20/21 273/377/414 314/153/171
f 314/153/171 273/377/414 274/378/415
f 269/319/353 276/325/361 271/320/354
f 270/318/360 277/327/362 276/325/361
f 275/324/365 228/326/601 278/329/366
f 277/327/362 229/417/304 228/326/305
f 278/329/364 221/328/363 227/479/396
f 268/317/359 275/324/358 279/330/602
f 312/323/357 211/385/422 280/322/356
f 233/332/594 234/338/378 282/333/380
f 283/335/375 282/333/603 246/336/376
f 282/333/603 247/341/604 246/336/376
f 235/339/605 285/340/605 282/333/605
f 239/344/317 238/357/316 287/346/384
f 286/345/383 287/346/384 288/424/475
f 342/421/470 288/424/475 250/295/394
f 215/262/292 213/349/385 219/347/296
f 257/37/43 34/36/42 289/354/387
f 289/354/387 290/353/606 238/284/316
f 236/282/315 289/354/387 238/284/316
f 236/282/315 258/308/341 289/354/387
f 252/300/334 291/355/388 292/298/332
f 290/356/607 295/360/607 287/346/607
f 290/356/608 166/358/608 295/360/608
f 287/346/384 295/360/393 288/424/475
f 34/480/609 166/358/609 290/356/609
f 295/360/393 291/355/388 252/300/334
f 288/424/475 295/360/393 250/295/394
f 305/112/122 74/79/84 73/434/485
f 307/307/297 219/347/296 74/79/84
f 74/79/84 9/362/69 10/481/68
f 297/365/398 298/364/397 36/482/610
f 298/364/611 299/483/402 36/482/44
f 299/483/402 298/364/399 300/367/401
f 35/163/612 297/365/612 36/482/612
f 227/363/396 221/270/590 298/364/397
f 298/364/397 224/269/299 225/366/591
f 37/39/403 300/369/405 301/280/311
f 300/369/613 225/477/613 231/275/613
f 302/370/404 301/280/311 317/371/406
f 40/202/216 37/39/403 302/370/404
f 240/288/320 241/287/319 303/372/407
f 303/372/407 241/287/319 63/67/408
f 241/287/325 304/261/291 67/73/77
f 306/305/339 255/304/338 307/307/297
f 108/120/131 114/124/136 310/375/411
f 310/375/411 309/374/410 272/321/614
f 110/118/135 310/375/615 311/376/176
f 309/374/412 263/312/345 266/314/347
f 310/375/615 272/321/616 311/376/176
f 272/380/617 279/381/617 315/379/617
f 315/379/416 316/382/419 146/383/421
f 279/381/418 278/384/618 316/382/419
f 13/17/18 296/361/395 312/323/357
f 180/388/619 317/387/429 318/391/431
f 179/390/425 319/389/424 61/484/76
f 40/485/216 302/386/404 180/388/225
f 317/387/620 233/332/369 281/334/371
f 317/387/621 281/334/372 283/335/374
f 318/391/427 283/335/375 284/337/377
f 284/337/432 240/342/320 303/392/407
f 319/389/424 303/392/407 61/484/76
f 210/260/290 320/5/6 4/4/5
f 249/393/433 328/3/4 320/5/6
f 220/474/87 17/453/14 15/450/505
f 220/474/87 15/450/505 216/452/293
f 321/394/622 322/395/622 223/271/622
f 24/27/29 21/25/31 321/394/623
f 223/271/301 324/397/439 230/419/309
f 324/397/439 325/186/198 230/419/309
f 21/25/27 25/184/196 323/396/436
f 326/398/624 44/400/625 248/294/626
f 248/294/626 44/400/625 328/3/627
f 245/291/324 249/393/433 209/259/289
f 247/292/628 326/398/628 243/289/628
f 327/399/629 43/486/629 326/398/629
f 326/398/624 43/486/630 44/400/625
f 218/404/295 75/403/447 220/82/87
f 75/403/447 76/15/16 220/82/87
f 329/406/502 80/84/90 78/86/92
f 260/407/450 237/405/448 329/406/502
f 265/316/504 331/409/456 330/410/631
f 330/410/632 331/409/632 332/408/632
f 105/117/633 107/116/633 331/409/633
f 270/318/634 330/410/634 333/411/634
f 273/377/414 334/413/459 274/378/415
f 335/414/463 24/154/29 336/415/635
f 332/408/453 335/414/460 333/411/454
f 107/116/462 144/155/172 335/414/463
f 336/415/461 321/416/636 229/417/466
f 333/411/454 336/415/461 277/327/362
f 4/4/5 155/174/189 280/322/356
f 325/186/198 337/418/637 235/339/379
f 235/339/638 337/418/638 285/340/638
f 337/418/639 327/48/639 247/341/639
f 338/487/471 217/420/599 7/11/514
f 217/420/469 214/264/294 8/12/13
f 214/264/294 216/263/293 16/14/15
f 28/28/32 79/281/312 339/29/33
f 339/29/33 79/281/312 341/283/314
f 342/421/470 253/297/330 338/422/471
f 342/421/470 250/295/640 253/297/330
f 253/297/330 217/478/599 338/422/471
f 52/57/474 338/422/471 7/456/514
f 165/190/473 286/345/383 342/421/470
f 340/423/35 341/343/314 286/345/383
f 343/97/103 70/76/82 344/135/152
f 131/427/478 344/135/152 345/426/477
f 345/426/477 70/76/82 76/15/16
f 135/430/159 103/429/479 346/213/230
f 103/429/479 81/435/486 346/213/230
f 106/464/533 102/113/123 133/428/158
f 81/435/486 27/85/91 346/213/230
f 142/149/166 347/431/480 349/150/167
f 349/150/167 348/95/527 350/96/101
f 139/432/482 351/433/484 347/431/480
f 351/433/641 89/460/641 348/95/641
f 127/425/476 350/96/101 343/97/103
f 138/145/165 347/431/642 142/149/166
f 72/81/86 93/80/85 95/108/643
f 72/81/86 95/108/121 305/112/122
f 27/85/91 81/435/486 77/83/89
f 77/83/89 102/113/123 101/115/125
f 78/86/92 101/115/126 105/117/128
f 352/436/487 109/119/130 85/437/488
f 135/430/159 346/213/230 204/438/494
f 204/438/644 181/215/233 353/439/492
f 205/440/269 351/441/645 203/442/270
f 353/439/646 89/219/238 351/441/647
f 353/439/646 183/217/236 89/219/238
f 109/119/130 186/223/648 85/437/488
f 190/232/252 193/231/251 188/225/649
f 188/225/650 193/231/650 195/234/650
f 354/445/567 195/234/651 189/227/568
f 261/311/344 259/309/342 357/448/500
f 259/309/342 260/407/450 358/447/499
f 261/311/344 357/448/500 264/315/348
f 357/448/500 358/447/499 265/316/652
f 100/111/120 274/378/415 356/303/337
f 82/87/93 308/373/409 114/124/136
f 309/374/410 261/311/344 263/312/345
f 355/446/498 131/427/478 256/306/340
f 256/306/340 345/426/477 75/403/447
f 356/303/337 355/446/498 256/306/340
f 274/378/415 334/413/459 355/446/498
f 78/86/92 105/117/128 360/412/503
f 358/447/499 360/412/503 265/316/653
f 260/407/450 329/406/502 360/412/503
