# Blender v2.82 (sub 7) OBJ File: ''
# www.blender.org
mtllib rock3.mtl
o Rock.Landscape.Style_3_Rock.Landscape.Style_3.Mesh
v -0.22124021 0.045286321 -0.13288969
v -0.20634629 0.079312403 -0.11162152
v -0.19509142 0.04692132 -0.16554894
v 0.19278565 0.2387726 -0.12032681
v 0.16517229 0.22027207 -0.1458735
v 0.2203357 0.20346335 -0.12229507
v 0.23992437 0.12218604 -0.12818667
v 0.20983436 0.15584687 -0.14583973
v 0.16392647 0.17020042 -0.16210359
v 0.2021615 -0.060420906 -0.13383468
v 0.19285968 -0.07841707 -0.12844544
v 0.12807931 -0.1363432 -0.13308718
v -0.22420378 -0.21144397 -0.11969317
v -0.2255961 -0.19416309 -0.13603398
v -0.26423955 -0.1792023 -0.11256852
v -0.26223774 -0.15670262 -0.13243856
v -0.23884227 -0.16848781 -0.14193608
v -0.19325602 -0.14474074 -0.17077289
v -0.16688155 -0.15870622 -0.17277448
v 0.17570092 0.099404097 -0.17355127
v 0.20538274 0.10125873 -0.15826235
v 0.20631744 0.070605757 -0.15988706
v -0.18140351 0.096510976 0.14922804
v -0.20914122 0.074764157 0.12058001
v -0.15394515 0.15790527 0.11092211
v -0.18948009 0.12979605 0.086617001
v -0.21593798 0.1091906 0.050814338
v -0.23568232 0.083707442 0.015690504
v -0.15266221 0.1246032 0.15332426
v -0.24795018 -0.022837415 -0.13148999
v -0.24981868 -0.053659928 -0.1412671
v -0.24008317 -0.073622789 -0.15618159
v -0.24075082 0.013282404 -0.11437484
v -0.26218965 -0.068185466 -0.024663759
v -0.25835467 -0.041395205 -0.023024512
v -0.25793865 -0.024443336 -0.048969317
v -0.27704644 -0.095572474 -0.061098276
v -0.24247103 0.06664687 -0.0055396471
v -0.23660741 0.07831463 -0.022216854
v -0.22449857 0.10284945 -0.00558863
v -0.24471708 0.028745328 -0.060395517
v -0.042862565 0.22889618 -0.14121342
v 0.0035360473 0.24722226 -0.14942867
v 0.023615884 0.22758707 -0.16155024
v -0.036754695 0.21242856 -0.15405766
v -0.01726802 0.20491539 -0.16245989
v -0.040237845 0.14441173 -0.1695009
v -0.00033896579 0.15325704 -0.17533612
v -0.0072321273 0.25548872 -0.13269711
v -0.059347418 0.21931098 0.1259802
v -0.023033682 0.23201431 0.12651297
v -0.016641979 0.24302874 0.084170987
v 0.022361789 0.23851897 0.10290302
v 0.03475266 0.25080091 0.06641325
v -0.050209098 0.22920842 0.0647825
v -0.039871928 0.23433596 -0.017175422
v -0.010560278 0.24881118 -0.016990227
v 0.040157772 0.26075315 0.011531659
v 0.17159844 0.22452418 0.012957529
v 0.23085337 0.21501548 -0.022264494
v 0.24924766 0.16939164 -0.015967626
v 0.26287049 0.17303381 -0.037944598
v 0.18213735 0.24644725 -0.0063034665
v 0.21921715 0.24760428 -0.036753577
v 0.24301611 0.22432937 -0.044886966
v 0.27354629 0.14781548 -0.049264556
v 0.26124533 0.19074771 -0.066484153
v 0.18870285 0.26304081 -0.028248678
v 0.24114827 0.022927105 -0.12655189
v 0.22392688 0.055948702 -0.14669368
v 0.21223698 0.0096816055 -0.15025288
v 0.2830465 0.036813183 -0.028122754
v 0.2826137 0.046265532 -0.050246898
v 0.28070897 0.0084243792 -0.045100567
v 0.26291052 0.019752837 -0.096650654
v 0.2519028 -0.060975598 -0.027281098
v 0.20657622 -0.09886148 -0.048704945
v 0.25506678 -0.051391061 -0.05163139
v 0.21364697 -0.089714662 -0.069280426
v 0.21010746 -0.079432738 -0.10393903
v 0.080907925 -0.16631757 -0.14383344
v 0.054041615 -0.21745835 -0.11077158
v 0.021913786 -0.20773067 -0.14304591
v -0.014944354 -0.2410238 -0.12386298
v 0.061165375 -0.22860117 0.0011034561
v 0.12046504 -0.18089567 -0.020712253
v 0.026464494 -0.21255895 0.079871454
v 0.0054228935 -0.24294464 0.05563434
v 0.013534587 -0.26507818 -0.0049373147
v 0.096252527 -0.20880807 -0.04613793
v 0.038187723 -0.25537712 -0.03930225
v -0.2096447 -0.20188024 0.015815309
v -0.1700245 -0.21216954 0.065474079
v -0.22943354 -0.17386832 0.019342075
v -0.2497442 -0.18080957 -0.037232669
v -0.26184923 -0.15453172 -0.032862459
v -0.25430296 -0.19308078 -0.079565033
v -0.21337723 -0.22215556 -0.049198128
v 0.14271578 -0.045641503 -0.18315056
v 0.16783414 0.004017712 -0.18002081
v -0.068545009 -0.085513765 -0.22854089
v -0.034352746 -0.040013843 -0.23663536
v -0.041371831 -0.1137847 -0.21876512
v -0.0090156401 -0.064751523 -0.23163218
v -0.0025338001 -0.11174889 -0.21618267
v 0.027233905 -0.086851511 -0.2188575
v -0.067836662 0.064656691 -0.20962568
v -0.023606043 0.11601509 -0.18687505
v -0.0054378791 0.073384136 -0.21443607
v 0.022902614 0.12307936 -0.1885049
v -0.19713081 -0.055749192 0.15891144
v -0.2019772 -0.013484598 0.16363101
v -0.22222389 -0.034304769 0.12740048
v -0.22070587 -0.098981587 0.10674873
v -0.24270364 -0.028159323 0.080358826
v -0.24831184 -0.076190695 0.061269383
v 0.062588788 -0.06484837 0.16179963
v 0.024769106 -0.0052744911 0.19328151
v 0.15825922 0.010269176 0.096701201
v 0.15548756 0.078559992 0.085228256
v 0.17062997 0.13430494 0.059598594
v 0.058236472 0.13026888 0.1586994
v 0.0038901105 0.067824021 0.19864144
v 0.080868785 0.071963186 0.14431566
v -0.22420669 0.019071103 -0.15426723
v -0.25659777 -0.016140632 -0.076482691
v -0.23269683 0.052987365 -0.078928258
v -0.21469328 0.083716612 -0.085682523
v 0.096785747 0.2340461 -0.15548979
v 0.069983406 0.26076121 -0.14007966
v 0.075689572 0.1456817 -0.17943346
v 0.12236844 0.15248384 -0.17418379
v 0.15229629 0.25293267 -0.12835329
v 0.019356165 0.26738037 -0.092432537
v 0.10018167 0.27793562 -0.056679756
v 0.15884031 0.2757976 -0.041502229
v 0.19510283 0.26774406 -0.059811077
v 0.12720701 0.27814251 -0.08236712
v 0.168691 0.270163 -0.092893959
v 0.078598798 0.27505793 -0.10726875
v 0.12304301 0.26897467 -0.1173496
v 0.033865601 0.26616654 -0.12716227
v 0.2062396 0.25580566 -0.084434243
v 0.22167748 0.25104627 -0.05738855
v 0.23299251 0.23322479 -0.080610002
v 0.250453 0.18703419 -0.095739216
v 0.26591682 0.13004566 -0.093664712
v 0.2290958 -0.023945456 -0.1266711
v 0.20029971 -0.028699029 -0.14974448
v 0.2571603 -0.0089341137 -0.093939822
v 0.23135595 -0.047912607 -0.10881697
v -0.12311951 -0.23602062 -0.13037859
v -0.17198113 -0.21118676 -0.14440782
v -0.17407688 -0.2311778 -0.12457468
v -0.11438468 -0.21528119 -0.14940496
v -0.12361538 -0.17138159 -0.17503529
v -0.12155944 -0.25925302 -0.022429112
v -0.15444706 -0.25211719 -0.068043326
v -0.14434519 -0.25164369 -0.091265672
v -0.18566009 -0.23770124 -0.1022309
v -0.1284233 -0.24839829 -0.1092379
v -0.1633937 -0.2438449 -0.018779107
v -0.21207684 -0.22731509 -0.093905381
v -0.26996763 -0.17151803 -0.081403568
v -0.24120151 -0.20673245 -0.095752638
v 0.13453833 0.043740566 -0.19603171
v 0.16499985 0.033045306 -0.18316801
v 0.1064394 -0.017349323 -0.20728793
v 0.020286169 0.018434102 -0.22844494
v 0.034048784 0.065186781 -0.215235
v 0.068623073 0.020711917 -0.21832942
v 0.088621044 0.072627252 -0.20384526
v 0.12254648 0.079955666 -0.19449312
v 0.03375019 -0.017881201 -0.22843644
v -0.22912689 0.0091318347 0.11489643
v -0.20352474 0.041400796 0.15639206
v -0.22470569 0.049263326 0.10571472
v -0.24417313 0.018693555 0.059120624
v -0.10139506 0.01071114 0.23500349
v -0.13595167 0.0453948 0.21692256
v -0.098098669 0.076658831 0.22012702
v -0.15060403 0.011701533 0.21261408
v -0.13531065 0.069552292 0.20854179
v -0.17955871 0.029959163 0.18861808
v -0.16553128 0.080340819 0.18040641
v -0.074634765 0.071212116 0.22510068
v -0.062572009 0.14096548 0.19232423
v -0.12510947 0.11018949 0.18912267
v -0.10069453 0.14801633 0.17249624
v -0.27828554 -0.14105495 -0.11539543
v -0.27920302 -0.10653412 -0.11084673
v -0.26946282 -0.12985308 -0.13112944
v -0.2762976 -0.12642496 -0.053849038
v -0.27956917 -0.1542953 -0.089872008
v -0.2830465 -0.12729278 -0.083615627
v -0.27954389 -0.08916601 -0.080240507
v -0.27366997 -0.071189303 -0.098998921
v -0.26039159 -0.10373024 -0.0057407231
v -0.2402337 -0.092782688 0.074842776
v -0.24024734 -0.13904553 0.031414893
v -0.25471786 -0.12440168 0.0053410318
v -0.25490775 -0.065880143 0.036056409
v -0.2548467 -0.014264521 0.011969149
v -0.2508377 0.0086402169 -0.048152266
v -0.22392554 0.10664975 0.018504893
v -0.18890348 0.091107653 -0.12038251
v -0.14583346 0.12319232 -0.13011064
v -0.16826873 0.089830745 -0.14005505
v -0.12889211 0.16499794 -0.11485483
v -0.19593554 0.12079618 -0.0489304
v -0.18368982 0.12226455 -0.092584182
v -0.17785617 0.13942062 -0.034764739
v -0.12080591 0.1821122 -0.095887504
v -0.029739859 0.2496743 -0.10564113
v -0.046168349 0.23680926 -0.12118547
v -0.19942562 0.13358786 0.022359328
v -0.1589177 0.16697784 0.059192416
v -0.18248941 0.14746768 0.066107497
v -0.025203018 0.18138729 0.17910601
v -0.055297499 0.18585726 0.17358795
v -0.0034351739 0.17979591 0.1756128
v 0.036611325 0.15346014 0.16635146
v 0.027690631 0.19843869 0.14675608
v -0.018455686 0.20687783 0.16175713
v -0.031118312 0.21755833 0.15137926
v 0.025666454 0.22469149 0.12255274
v 0.099996921 0.24137227 0.047264311
v 0.12405309 0.25819374 0.012161055
v 0.093083181 0.26544812 0.0071384118
v 0.13153807 0.21859077 0.044442765
v 0.073176465 0.1720309 0.12847743
v 0.10761879 0.2068841 0.072895541
v 0.1848974 0.14272708 0.044686561
v 0.25942469 0.12882355 -0.003186681
v 0.25757609 0.10914631 0.0038719936
v 0.2556671 0.087145636 -0.11461931
v 0.27761231 0.11870356 -0.066895476
v 0.27213652 0.082837153 -0.087545439
v 0.28243925 0.099291365 -0.034957315
v 0.27583998 0.11019822 -0.016617152
v 0.27454473 0.056704919 -0.01188438
v 0.23542958 0.053615419 0.018198471
v 0.26089507 0.023320981 0.0037843165
v 0.26616732 -0.0074988494 0.0030489028
v 0.27502204 -0.022124144 -0.021718973
v 0.27175338 -0.022564319 -0.05034464
v 0.23300437 -0.039889709 0.035145418
v 0.26363922 -0.03517058 0.00017971561
v 0.26445829 -0.046572625 -0.019647155
v 0.23461588 -0.065612862 0.015081238
v 0.20507497 -0.095688777 -0.020867701
v 0.18620763 -0.091451203 0.040100514
v 0.11888439 -0.16538086 -0.11096103
v 0.12675542 -0.17361691 -0.084181278
v 0.14411347 -0.16256781 -0.05793676
v 0.073872736 -0.22190148 -0.076786881
v 0.022640477 -0.25112321 -0.089222484
v 0.0045539512 -0.27103418 -0.053113848
v 0.15573113 -0.1170169 0.04002156
v 0.17595881 -0.11432731 0.0037661996
v 0.12334765 -0.13088262 0.06854322
v 0.092216923 -0.13599428 0.10080458
v -0.0011361113 -0.19482425 0.13247166
v -0.10734771 -0.23401321 0.089085155
v -0.13413305 -0.21469742 0.10506944
v -0.17181562 -0.22660204 0.030454248
v -0.1117405 -0.2538289 0.024782526
v -0.066661074 -0.22383373 0.12934279
v -0.095718412 -0.19141111 0.1607531
v -0.066664425 -0.18092251 0.17646899
v -0.13167518 -0.19705979 0.13262576
v -0.090883429 -0.21255135 0.13945183
v -0.17328533 -0.18825719 0.096866047
v -0.21800399 -0.12151012 0.095940292
v 0.11953952 -0.10946235 -0.1629542
v 0.12065449 -0.083844997 -0.18002796
v 0.029406149 -0.13402401 -0.19468054
v 0.07607674 -0.11259994 -0.18814033
v 0.09408319 -0.070053528 -0.20020599
v 0.058032039 -0.056604491 -0.21768168
v -0.045666442 -0.14207822 -0.20290944
v -0.013589162 -0.15056635 -0.19562598
v -0.21158589 -0.12376423 -0.17037834
v -0.24256743 -0.10996516 -0.15381856
v -0.22066964 -0.09116536 -0.17419386
v -0.16418525 -0.093955593 -0.21377759
v -0.21449444 -0.030161133 -0.19133495
v -0.20035137 -0.044639927 -0.20601124
v -0.18286136 -0.057649235 -0.21678434
v -0.19079905 -0.010704878 -0.21010298
v -0.20678222 -0.00046052825 -0.19185028
v -0.029200376 0.0081163912 -0.23449421
v -0.080695889 0.035357565 -0.22271864
v -0.014270225 0.048332205 -0.22416218
v -0.22625994 -0.010330013 -0.16952461
v -0.1766222 0.025980816 -0.19958286
v -0.15693401 0.052276778 -0.18842282
v -0.15807157 0.0072644473 -0.21985907
v -0.12188018 0.1065075 -0.1542858
v -0.18417562 -0.12858512 0.1376191
v -0.092723973 -0.15401662 0.18959595
v -0.10324209 -0.11262588 0.2084908
v -0.082550976 -0.11836516 0.21157963
v -0.12872324 -0.16639742 0.16250798
v -0.14413047 -0.11875344 0.18115032
v -0.13128019 -0.075510975 0.20857826
v -0.16810232 -0.082048512 0.17904898
v -0.091284461 -0.071533974 0.22664063
v -0.12503499 -0.03254094 0.22321943
v -0.16149053 -0.0265704 0.2019186
v -0.08245547 -0.020515762 0.23663536
v 0.13895752 -0.091793859 0.095825772
v 0.062013739 -0.12826752 0.13668351
v 0.029103753 -0.11212957 0.17079458
v 0.2068652 -0.068908582 0.048283557
v 0.18076338 -0.063521363 0.074706784
v 0.22949147 -0.008392395 0.040150615
v 0.18243416 -0.032125144 0.078954649
v 0.21730727 0.078124287 0.032427653
v 0.19552064 0.10293914 0.047499384
v -0.089787688 0.14033631 -0.15198942
v -0.12091908 0.18940863 0.098384739
v -0.12824549 0.17828303 -0.012489173
v -0.15551529 -0.064597642 -0.22567707
v -0.16451158 -0.024271338 -0.22578734
v -0.11833842 -0.065786205 -0.23131524
v -0.11952117 -0.031960079 -0.23373106
v -0.11423841 -0.0023739907 -0.23108666
v -0.1241978 -0.11374623 -0.21421844
v -0.078557863 0.10334307 -0.17653117
v -0.010960639 -0.21344534 -0.14987824
v -0.046981151 -0.21323487 -0.15462309
v -0.049876283 -0.24507551 -0.12359659
v -0.035248528 -0.27787367 -0.05240259
v -0.018651618 -0.27814251 -0.022699077
v -0.05131535 -0.27698415 -0.027651937
v -0.013475763 -0.26051092 -0.095772542
v -0.047403656 -0.26572368 -0.090935317
v -0.023121359 0.016380625 0.22146522
v -0.015280748 0.11130223 0.20235721
v -0.05573253 0.0010407178 0.23460761
v -0.060143668 0.032803524 0.23324615
v -0.038781108 0.10417556 0.20995693
v 0.014748199 0.12474679 0.18788333
v -0.10630497 0.19250372 -0.047999949
v -0.083534212 0.19598239 0.14755837
v -0.035337771 -0.25027127 0.074485577
v -0.0058145325 -0.26367513 0.023966145
v -0.059718928 -0.25902645 0.051317587
v -0.040481194 -0.27298365 0.013307343
v -0.040170074 -0.18918406 0.16502803
v -0.041695924 -0.16964729 0.17917535
v -0.031118983 -0.21932999 0.12662167
v -0.13197691 0.047473328 -0.20420089
v -0.011530317 -0.15700211 0.17241236
v -0.029171076 -0.11993775 0.20319506
v -0.05987594 -0.11991069 0.21177869
v -0.030239976 -0.085363462 0.21538173
v -0.022122467 -0.043456063 0.21944373
v -0.059553414 -0.063845678 0.22978648
vt 0.070630 0.142523
vt 0.052447 0.135388
vt 0.079553 0.126253
vt 0.072592 0.163403
vt 0.570906 0.929874
vt 0.565789 0.888962
vt 0.587714 0.892336
vt 0.560100 0.815442
vt 0.577793 0.843440
vt 0.536494 0.825546
vt 0.544808 0.874027
vt 0.575530 0.583881
vt 0.590692 0.604640
vt 0.559960 0.629862
vt 0.428145 0.047869
vt 0.455641 0.062435
vt 0.441305 0.066795
vt 0.393823 0.030464
vt 0.396767 0.059494
vt 0.598922 0.846358
vt 0.595734 0.789639
vt 0.615223 0.776546
vt 0.582310 0.794418
vt 0.197510 0.032301
vt 0.171402 0.062915
vt 0.173250 0.023543
vt 0.140556 0.056009
vt 0.145463 0.025258
vt 0.198364 0.080363
vt 0.217082 0.059552
vt 0.449466 0.709892
vt 0.464363 0.714319
vt 0.449627 0.735668
vt 0.468285 0.761899
vt 0.109279 0.059365
vt 0.114093 0.081565
vt 0.101303 0.075893
vt 0.074368 0.077049
vt 0.073222 0.103460
vt 0.449329 0.448968
vt 0.430019 0.479568
vt 0.439569 0.426276
vt 0.411741 0.461534
vt 0.421286 0.367501
vt 0.439604 0.348746
vt 0.424817 0.425122
vt 0.406535 0.383019
vt 0.262134 0.215559
vt 0.238865 0.205449
vt 0.262051 0.169903
vt 0.219042 0.183254
vt 0.250922 0.143178
vt 0.183477 0.239558
vt 0.189468 0.526899
vt 0.216885 0.536810
vt 0.204944 0.580156
vt 0.220732 0.508567
vt 0.197233 0.501041
vt 0.158591 0.500221
vt 0.150100 0.489135
vt 0.174402 0.491373
vt 0.553581 0.729201
vt 0.568664 0.754510
vt 0.546238 0.785177
vt 0.570374 0.712974
vt 0.594891 0.702817
vt 0.502839 0.723116
vt 0.507385 0.758720
vt 0.492667 0.755421
vt 0.529102 0.783330
vt 0.621875 0.077991
vt 0.608266 0.065927
vt 0.633855 0.036753
vt 0.627102 0.014307
vt 0.598984 0.051573
vt 0.590180 0.030502
vt 0.642496 0.026947
vt 0.286177 0.136985
vt 0.300825 0.132396
vt 0.284141 0.175652
vt 0.334674 0.177964
vt 0.317963 0.201929
vt 0.300493 0.232915
vt 0.561535 0.229485
vt 0.580099 0.161686
vt 0.626849 0.146906
vt 0.592731 0.276427
vt 0.570712 0.292692
vt 0.554315 0.173266
vt 0.630933 0.192709
vt 0.396797 0.831017
vt 0.374612 0.854130
vt 0.361032 0.824932
vt 0.440154 0.803874
vt 0.434630 0.829235
vt 0.405752 0.804053
vt 0.422306 0.880454
vt 0.617420 0.689645
vt 0.600529 0.660447
vt 0.613514 0.639208
vt 0.572753 0.677656
vt 0.559696 0.651165
vt 0.601821 0.626465
vt 0.372495 0.263741
vt 0.353464 0.253606
vt 0.374635 0.215545
vt 0.338744 0.215803
vt 0.357724 0.203433
vt 0.378650 0.297988
vt 0.343390 0.301588
vt 0.092318 0.308468
vt 0.076563 0.325424
vt 0.066127 0.288240
vt 0.106812 0.318091
vt 0.097842 0.328594
vt 0.092248 0.265714
vt 0.082294 0.266895
vt 0.356864 0.631490
vt 0.376780 0.656386
vt 0.351479 0.666829
vt 0.396732 0.718373
vt 0.375343 0.714805
vt 0.408804 0.706968
vt 0.390394 0.625673
vt 0.405688 0.662397
vt 0.346658 0.731078
vt 0.058287 0.655048
vt 0.084935 0.671380
vt 0.088312 0.816564
vt 0.040318 0.657571
vt 0.052661 0.784191
vt 0.026919 0.819809
vt 0.116609 0.664528
vt 0.154946 0.754191
vt 0.128637 0.748757
vt 0.132399 0.823765
vt 0.051252 0.104293
vt 0.037468 0.137715
vt 0.033358 0.102879
vt 0.021681 0.137990
vt 0.056423 0.068764
vt 0.066335 0.067354
vt 0.376351 0.495254
vt 0.335575 0.515372
vt 0.333871 0.485910
vt 0.341200 0.448879
vt 0.367693 0.418938
vt 0.353086 0.537237
vt 0.327202 0.541505
vt 0.235608 0.403994
vt 0.218443 0.447003
vt 0.209288 0.405265
vt 0.212787 0.368890
vt 0.182451 0.381394
vt 0.188811 0.422811
vt 0.161246 0.401492
vt 0.237106 0.329126
vt 0.209139 0.482319
vt 0.191179 0.456040
vt 0.156331 0.364532
vt 0.140426 0.363612
vt 0.543197 0.927210
vt 0.550993 0.956740
vt 0.522395 0.971481
vt 0.537571 0.984883
vt 0.523866 1.000000
vt 0.522811 0.931644
vt 0.531559 0.961542
vt 0.526657 0.887927
vt 0.551772 0.687493
vt 0.540271 0.668330
vt 0.530198 0.704355
vt 0.532576 0.730212
vt 0.540046 0.111227
vt 0.575879 0.031516
vt 0.585533 0.004748
vt 0.595540 0.004965
vt 0.366987 0.047964
vt 0.368404 0.078084
vt 0.407756 0.109762
vt 0.383880 0.119342
vt 0.515741 0.408479
vt 0.525267 0.434149
vt 0.502885 0.418911
vt 0.535657 0.399885
vt 0.518132 0.461151
vt 0.510625 0.480166
vt 0.495417 0.462303
vt 0.537501 0.469920
vt 0.542340 0.405564
vt 0.542340 0.437267
vt 0.533141 0.492654
vt 0.504714 0.494061
vt 0.452679 0.856235
vt 0.453406 0.880792
vt 0.461603 0.836449
vt 0.471215 0.824756
vt 0.472713 0.859903
vt 0.459793 0.904165
vt 0.438336 0.918268
vt 0.449295 0.931863
vt 0.613463 0.736662
vt 0.599379 0.729184
vt 0.365931 0.358802
vt 0.334703 0.340668
vt 0.359003 0.324386
vt 0.325308 0.401584
vt 0.314508 0.361836
vt 0.306603 0.320826
vt 0.390824 0.381835
vt 0.390361 0.365384
vt 0.342167 0.384569
vt 0.371438 0.587126
vt 0.397901 0.596533
vt 0.446548 0.607502
vt 0.420031 0.636434
vt 0.291446 0.592975
vt 0.318603 0.576281
vt 0.322433 0.598276
vt 0.326013 0.555575
vt 0.350973 0.557127
vt 0.347188 0.589806
vt 0.368572 0.560976
vt 0.300944 0.630953
vt 0.324918 0.632137
vt 0.257095 0.049152
vt 0.234869 0.052105
vt 0.235005 0.030489
vt 0.243673 0.090608
vt 0.268654 0.055820
vt 0.263669 0.103881
vt 0.470246 0.143295
vt 0.459069 0.116507
vt 0.467296 0.081734
vt 0.480979 0.119087
vt 0.479113 0.124132
vt 0.479079 0.085508
vt 0.469438 0.060032
vt 0.452602 0.034126
vt 0.472979 0.800255
vt 0.456621 0.785500
vt 0.477683 0.772818
vt 0.484085 0.798756
vt 0.483795 0.773185
vt 0.482731 0.822822
vt 0.035621 0.065480
vt 0.044672 0.044069
vt 0.427236 0.765277
vt 0.409445 0.769895
vt 0.435563 0.751520
vt 0.422329 0.709427
vt 0.438630 0.679388
vt 0.465965 0.685262
vt 0.471140 0.709862
vt 0.453172 0.627861
vt 0.085381 0.198621
vt 0.070779 0.187330
vt 0.081415 0.223772
vt 0.114155 0.211305
vt 0.097894 0.208677
vt 0.092178 0.154637
vt 0.193670 0.268505
vt 0.150220 0.299170
vt 0.172187 0.328150
vt 0.140150 0.337856
vt 0.132409 0.297152
vt 0.124696 0.064078
vt 0.143342 0.091495
vt 0.155060 0.165521
vt 0.122507 0.136215
vt 0.106910 0.126031
vt 0.171915 0.082294
vt 0.184322 0.108196
vt 0.157581 0.858437
vt 0.198360 0.821299
vt 0.204361 0.837759
vt 0.175268 0.771264
vt 0.194026 0.801227
vt 0.161823 0.802592
vt 0.214302 0.805920
vt 0.201622 0.762307
vt 0.222004 0.755201
vt 0.224811 0.813318
vt 0.176158 0.857988
vt 0.158075 0.835247
vt 0.236068 0.804530
vt 0.233109 0.834513
vt 0.221986 0.841121
vt 0.253683 0.305297
vt 0.245134 0.251909
vt 0.254330 0.331810
vt 0.247887 0.350070
vt 0.253450 0.383063
vt 0.256789 0.406980
vt 0.222728 0.288613
vt 0.254872 0.432244
vt 0.261166 0.260793
vt 0.196241 0.673016
vt 0.152984 0.630110
vt 0.180757 0.721928
vt 0.163754 0.525609
vt 0.205302 0.637404
vt 0.519521 0.819331
vt 0.512200 0.855653
vt 0.495419 0.819368
vt 0.501869 0.806869
vt 0.500022 0.850608
vt 0.505163 0.847423
vt 0.125157 0.544057
vt 0.095432 0.531291
vt 0.124728 0.514562
vt 0.114986 0.587445
vt 0.506832 0.675444
vt 0.504686 0.698189
vt 0.037563 0.608080
vt 0.035602 0.580295
vt 0.048266 0.555866
vt 0.063942 0.555640
vt 0.053655 0.529502
vt 0.084326 0.519591
vt 0.649598 0.070615
vt 0.584565 0.564490
vt 0.602308 0.591646
vt 0.554962 0.119673
vt 0.572198 0.120869
vt 0.513562 0.167231
vt 0.503657 0.216522
vt 0.486096 0.201236
vt 0.494203 0.186685
vt 0.616086 0.118007
vt 0.640321 0.119189
vt 0.647690 0.276812
vt 0.615299 0.320856
vt 0.634571 0.229813
vt 0.332289 0.817733
vt 0.350877 0.889039
vt 0.324434 0.844556
vt 0.386686 0.891472
vt 0.299344 0.803873
vt 0.288225 0.810683
vt 0.371249 0.916773
vt 0.321022 0.874416
vt 0.296035 0.780932
vt 0.277595 0.763554
vt 0.321925 0.792145
vt 0.313206 0.758082
vt 0.286710 0.742205
vt 0.354296 0.790772
vt 0.329093 0.246571
vt 0.298855 0.278245
vt 0.289230 0.254028
vt 0.321507 0.279578
vt 0.352650 0.172949
vt 0.336474 0.106444
vt 0.453722 0.142061
vt 0.439438 0.118280
vt 0.420456 0.168273
vt 0.425794 0.105979
vt 0.475980 0.191463
vt 0.466169 0.193105
vt 0.474786 0.164453
vt 0.453854 0.190948
vt 0.462065 0.217017
vt 0.468949 0.209872
vt 0.444541 0.227521
vt 0.440528 0.191620
vt 0.413729 0.323664
vt 0.392929 0.352418
vt 0.412575 0.300345
vt 0.386019 0.333197
vt 0.018595 0.164612
vt 0.044565 0.170581
vt 0.027070 0.195838
vt 0.045297 0.214864
vt 0.013201 0.200099
vt 0.007974 0.181478
vt 0.275770 0.702495
vt 0.291290 0.700634
vt 0.305479 0.669695
vt 0.316387 0.714663
vt 0.278645 0.660532
vt 0.330754 0.682268
vt 0.657112 0.183422
vt 0.658131 0.296093
vt 0.656006 0.110663
vt 0.065957 0.602918
vt 0.097759 0.570855
vt 0.080487 0.552947
vt 0.128928 0.607123
vt 0.155433 0.599770
vt 0.464663 0.332675
vt 0.453168 0.317376
vt 0.222390 0.116191
vt 0.424448 0.199440
vt 0.405709 0.213874
vt 0.395876 0.170305
vt 0.415029 0.239519
vt 0.420170 0.261045
vt 0.054653 0.244811
vt 0.311241 0.085650
vt 0.317367 0.117358
vt 0.330857 0.067948
vt 0.314996 0.025554
vt 0.323277 0.044036
vt 0.306214 0.058089
vt 0.338728 0.018283
vt 0.295169 0.026256
vt 0.296288 0.062809
vt 0.107902 0.863081
vt 0.122701 0.895260
vt 0.103457 0.896111
vt 0.095599 0.923208
vt 0.142841 0.896758
vt 0.118159 0.921517
vt 0.145209 0.201334
vt 0.662522 0.618076
vt 0.643354 0.639241
vt 0.661906 0.586015
vt 0.663136 0.657597
vt 0.647558 0.678845
vt 0.624440 0.652009
vt 0.650381 0.592081
vt 0.567149 0.331646
vt 0.543876 0.293858
vt 0.550600 0.339105
vt 0.529049 0.310675
vt 0.511104 0.289387
vt 0.530171 0.271920
vt 0.600764 0.346328
vt 0.523198 0.331136
vt 0.505728 0.313970
vt 0.507449 0.303753
vt 0.623018 0.364424
vt 0.600097 0.374911
vt 0.634221 0.341586
vt 0.633001 0.362927
vt 0.631223 0.387550
vt 0.441877 0.283887
vt 0.448903 0.250612
vt 0.449825 0.283032
vt 0.454252 0.265854
vt 0.034365 0.877698
vt 0.017294 0.885584
vt 0.013002 0.855557
vt 0.040098 0.908799
vt 0.020769 0.908236
vt 0.012338 0.823817
vt 0.001752 0.825732
vt 0.076247 0.866345
vt 0.070161 0.907217
vt 0.053946 0.878466
vt 0.062789 0.929393
vt 0.569991 0.564527
vt 0.424285 0.025386
vt 0.130547 0.034975
vt 0.028754 0.067697
vt 0.025474 0.097336
vt 0.470761 0.741905
vt 0.099586 0.063525
vt 0.440958 0.483302
vt 0.135756 0.529494
vt 0.238438 0.512436
vt 0.580313 0.765139
vt 0.489541 0.705950
vt 0.273700 0.169979
vt 0.526535 0.232717
vt 0.101511 0.295859
vt 0.403886 0.512910
vt 0.245572 0.453599
vt 0.231205 0.472824
vt 0.489324 0.484170
vt 0.441566 0.902325
vt 0.390248 0.577656
vt 0.303699 0.555177
vt 0.289378 0.557243
vt 0.214917 0.022183
vt 0.466943 0.044197
vt 0.058117 0.054374
vt 0.378220 0.745617
vt 0.470658 0.675165
vt 0.446645 0.607480
vt 0.434118 0.587567
vt 0.449209 0.595098
vt 0.124864 0.314112
vt 0.234110 0.760513
vt 0.491411 0.681458
vt 0.047065 0.596251
vt 0.040327 0.539392
vt 0.531685 0.176909
vt 0.504336 0.252809
vt 0.000000 0.190705
vt 0.276944 0.619572
vt 0.661638 0.147487
vt 0.476510 0.346486
vt 0.302417 0.007781
vt 0.320796 0.007965
vt 0.289254 0.007521
vt 0.340563 0.026948
vt 0.664758 0.695989
vt 0.665547 0.557151
vt 0.663684 0.552604
vt 0.040951 0.923600
vn -0.7104 0.5674 -0.4165
vn -0.7843 0.4846 -0.3873
vn -0.8045 0.5296 -0.2688
vn -0.6059 0.5890 -0.5348
vn 0.5350 0.4610 -0.7080
vn 0.5761 0.4823 -0.6599
vn 0.4608 0.4036 -0.7904
vn 0.6989 0.1311 -0.7031
vn 0.6146 0.1840 -0.7671
vn 0.6595 0.2112 -0.7214
vn 0.8412 0.1331 -0.5241
vn 0.8055 0.3086 -0.5059
vn 0.5422 -0.5818 -0.6063
vn 0.4982 -0.5275 -0.6881
vn 0.6031 -0.5476 -0.5800
vn -0.3380 -0.4488 -0.8272
vn -0.4998 -0.2678 -0.8237
vn -0.4517 -0.3608 -0.8159
vn -0.2180 -0.6757 -0.7042
vn -0.2191 -0.5746 -0.7886
vn 0.2874 0.2557 -0.9230
vn 0.3861 0.1408 -0.9116
vn 0.2568 0.1975 -0.9461
vn 0.5329 0.0974 -0.8405
vn -0.7091 0.5165 0.4801
vn -0.7306 0.5842 0.3535
vn -0.7884 0.4429 0.4269
vn -0.8671 0.3666 0.3372
vn -0.8391 0.4953 0.2248
vn -0.9099 0.2697 0.3152
vn -0.7032 0.5923 0.3933
vn -0.6356 0.5753 0.5148
vn -0.9888 0.1466 0.0275
vn -0.9704 0.2224 0.0947
vn -0.9768 0.1229 0.1754
vn -0.9610 0.0909 0.2612
vn -0.9258 0.3651 0.0978
vn -0.7978 0.5879 -0.1337
vn -0.8880 0.4337 -0.1528
vn -0.9301 0.3072 -0.2014
vn -0.4131 0.4966 -0.7634
vn -0.2728 0.7533 -0.5984
vn -0.4355 0.4476 -0.7810
vn -0.1127 0.4320 -0.8948
vn -0.0273 0.3882 -0.9212
vn -0.2026 0.3560 -0.9123
vn -0.3411 0.2247 -0.9128
vn -0.3376 0.2905 -0.8954
vn -0.3431 0.2616 -0.9021
vn -0.2055 0.2873 -0.9355
vn -0.1780 0.2562 -0.9501
vn -0.2045 0.3098 -0.9286
vn -0.0084 0.9681 0.2506
vn -0.4202 0.9036 0.0834
vn -0.4478 0.8939 0.0209
vn -0.4426 0.8579 0.2608
vn -0.3852 0.9228 0.0091
vn -0.4917 0.8695 0.0465
vn 0.5889 0.4100 0.6965
vn 0.5207 0.4362 0.7339
vn 0.5295 0.3858 0.7555
vn 0.5846 0.4950 0.6428
vn 0.6689 0.4881 0.5606
vn 0.7491 0.3648 0.5529
vn 0.9328 0.3275 0.1502
vn 0.7393 -0.1234 -0.6620
vn 0.6468 -0.0308 -0.7620
vn 0.7875 0.0159 -0.6162
vn 0.6102 -0.1415 -0.7795
vn 0.5015 -0.1232 -0.8564
vn 0.9975 -0.0561 -0.0435
vn 0.9989 -0.0086 -0.0450
vn 0.9757 -0.0154 0.2186
vn 0.9302 -0.0950 -0.3545
vn 0.9142 -0.0090 -0.4052
vn 0.9386 -0.0724 -0.3375
vn 0.6024 -0.7812 0.1636
vn 0.6034 -0.7883 0.1200
vn 0.6986 -0.7155 0.0030
vn 0.6809 -0.7073 -0.1899
vn 0.7912 -0.5543 -0.2583
vn 0.7068 -0.6845 -0.1786
vn 0.6936 -0.6074 -0.3872
vn 0.7133 -0.6487 -0.2653
vn 0.8355 -0.5414 0.0939
vn 0.4787 -0.7031 -0.5259
vn 0.3431 -0.6370 -0.6903
vn 0.4548 -0.6006 -0.6576
vn 0.1404 -0.5413 -0.8290
vn 0.2970 -0.5105 -0.8070
vn 0.3833 -0.4807 -0.7887
vn 0.6122 -0.7554 0.2334
vn 0.6622 -0.6940 0.2824
vn 0.6625 -0.6748 0.3251
vn 0.5585 -0.6871 0.4647
vn 0.5359 -0.7220 0.4376
vn 0.6081 -0.6837 0.4034
vn 0.6626 -0.7489 0.0116
vn 0.6190 -0.6707 0.4087
vn -0.6758 -0.6583 0.3315
vn -0.4929 -0.8189 0.2942
vn -0.5667 -0.7252 0.3911
vn -0.8821 -0.3356 0.3306
vn -0.7954 -0.5209 0.3098
vn -0.7813 -0.4908 0.3855
vn -0.6895 -0.6792 0.2514
vn -0.5446 -0.8039 0.2393
vn 0.3629 -0.1001 -0.9264
vn 0.4902 -0.2750 -0.8271
vn 0.3892 -0.3081 -0.8681
vn 0.5831 -0.2677 -0.7670
vn 0.6172 -0.4304 -0.6586
vn 0.4823 -0.4215 -0.7679
vn 0.0320 -0.0549 -0.9980
vn 0.1206 -0.1871 -0.9749
vn -0.0181 -0.2734 -0.9617
vn 0.1598 -0.4048 -0.9003
vn 0.0306 -0.4044 -0.9141
vn 0.0365 0.1108 -0.9932
vn 0.1990 -0.0256 -0.9797
vn -0.1355 0.4965 -0.8574
vn -0.0493 0.2988 -0.9530
vn -0.0455 0.4078 -0.9119
vn -0.1008 0.4439 -0.8904
vn -0.2674 0.4750 -0.8384
vn -0.2727 0.5349 -0.7997
vn -0.2738 0.5228 -0.8073
vn -0.8431 -0.0193 0.5374
vn -0.8473 -0.1080 0.5200
vn -0.8063 -0.2063 0.5543
vn -0.9063 -0.0696 0.4169
vn -0.8867 -0.2284 0.4021
vn -0.8479 -0.2405 0.4724
vn -0.9465 -0.0987 0.3074
vn -0.9179 -0.0320 0.3954
vn -0.9505 0.0204 0.3102
vn -0.7694 -0.3026 0.5625
vn -0.6881 -0.4130 0.5966
vn 0.6148 -0.0577 0.7866
vn 0.6058 0.0797 0.7916
vn 0.5534 0.0052 0.8329
vn 0.6116 -0.1476 0.7773
vn 0.5646 -0.1654 0.8086
vn 0.5380 -0.2285 0.8113
vn 0.6304 0.1329 0.7648
vn 0.5917 0.1705 0.7879
vn 0.5931 0.0769 0.8015
vn 0.5164 0.0997 0.8505
vn -0.9077 0.3432 -0.2415
vn -0.7973 0.3948 -0.4566
vn -0.8980 0.2906 -0.3304
vn -0.8266 0.3020 -0.4749
vn -0.9526 0.2783 -0.1228
vn -0.9543 0.2928 -0.0604
vn -0.9776 0.2089 -0.0269
vn -0.8569 0.4496 -0.2523
vn 0.1028 0.4846 -0.8687
vn 0.2978 0.4028 -0.8655
vn 0.1944 0.3709 -0.9081
vn 0.0731 0.2445 -0.9669
vn 0.1270 0.2739 -0.9533
vn 0.0789 0.3013 -0.9503
vn 0.3093 0.6167 -0.7239
vn 0.3613 0.6593 -0.6594
vn -0.0013 0.2981 -0.9545
vn 0.1699 0.9826 -0.0752
vn -0.0438 0.9983 -0.0381
vn 0.0726 0.9626 -0.2609
vn 0.1169 0.9572 -0.2648
vn 0.0328 0.9131 -0.4065
vn 0.0026 0.9923 0.1237
vn -0.0594 0.9903 0.1259
vn -0.0534 0.9811 0.1860
vn 0.3713 0.7560 -0.5390
vn 0.1631 0.7429 -0.6493
vn -0.0845 0.8128 -0.5764
vn 0.5945 0.6170 -0.5156
vn 0.7161 0.3416 -0.6087
vn 0.7667 0.4423 -0.4654
vn 0.5076 0.7992 0.3219
vn 0.4270 0.8798 0.2087
vn 0.3969 0.8282 0.3958
vn 0.7191 0.6665 0.1969
vn 0.8678 0.3391 -0.3632
vn 0.7133 -0.2737 -0.6452
vn 0.7530 -0.4531 -0.4772
vn 0.8409 -0.2788 -0.4638
vn 0.8633 -0.1048 -0.4938
vn 0.5793 -0.6566 -0.4830
vn -0.0961 -0.6630 -0.7425
vn -0.0731 -0.5931 -0.8018
vn -0.2536 -0.4808 -0.8393
vn -0.1221 -0.5274 -0.8408
vn -0.2430 -0.9697 0.0235
vn -0.4042 -0.8964 0.1820
vn -0.3366 -0.9367 0.0962
vn -0.2947 -0.9443 0.1468
vn -0.1897 -0.9230 -0.3347
vn -0.1286 -0.8976 -0.4215
vn -0.0711 -0.8681 -0.4912
vn -0.2135 -0.9107 -0.3536
vn -0.4336 -0.8982 0.0721
vn -0.3778 -0.9248 -0.0450
vn -0.1396 -0.8388 -0.5262
vn -0.0848 -0.8262 -0.5569
vn -0.6356 -0.7614 0.1277
vn -0.8920 -0.4305 0.1376
vn -0.9121 -0.4096 -0.0176
vn -0.8958 -0.4213 -0.1418
vn -0.6295 -0.7140 -0.3064
vn -0.3666 -0.8246 -0.4308
vn 0.3867 -0.0079 -0.9222
vn 0.4179 0.0639 -0.9062
vn 0.1904 0.2146 -0.9580
vn 0.2555 0.0701 -0.9642
vn 0.1368 0.1472 -0.9796
vn 0.3280 0.1130 -0.9379
vn 0.2760 0.1318 -0.9521
vn 0.0709 0.4294 -0.9003
vn 0.1486 0.3134 -0.9379
vn 0.1481 0.3369 -0.9298
vn -0.8824 0.2378 0.4061
vn -0.9335 0.1553 0.3231
vn -0.9663 0.1617 0.2003
vn -0.3676 -0.0234 0.9297
vn -0.5334 0.1791 0.8267
vn -0.5312 0.0232 0.8469
vn -0.5954 0.2880 0.7500
vn -0.7366 0.3693 0.5666
vn -0.7547 0.1889 0.6283
vn -0.7989 0.1303 0.5871
vn -0.3982 -0.1465 0.9055
vn -0.6125 -0.1405 0.7779
vn -0.3228 0.4490 0.8332
vn -0.3454 0.5056 0.7906
vn -0.3903 0.4144 0.8221
vn -0.2693 0.5279 0.8055
vn -0.4962 0.5536 0.6689
vn -0.5170 0.5633 0.6445
vn -0.5196 0.5754 0.6316
vn -0.1209 0.3332 0.9351
vn -0.0886 0.4361 0.8955
vn -0.1206 0.3340 0.9348
vn -0.6422 -0.0059 -0.7665
vn -0.8515 0.1927 -0.4876
vn -0.9206 0.1234 -0.3704
vn -0.8974 -0.1136 -0.4262
vn -0.7698 -0.2512 -0.5868
vn -0.8199 -0.3362 -0.4633
vn -0.9842 -0.1073 0.1407
vn -0.9545 -0.1016 0.2805
vn -0.9931 0.0971 -0.0662
vn -0.9468 0.2701 -0.1749
vn -0.9689 0.2352 -0.0764
vn -0.9827 -0.1664 0.0819
vn -0.9894 -0.0072 -0.1451
vn -0.9892 -0.1034 -0.1034
vn -0.8909 -0.3612 0.2754
vn -0.9257 -0.1973 0.3228
vn -0.8616 -0.3484 0.3691
vn -0.9661 -0.0325 0.2560
vn -0.9820 0.0004 0.1888
vn -0.9900 0.1159 0.0798
vn -0.9632 0.2686 -0.0082
vn -0.4512 0.5063 -0.7350
vn -0.4864 0.6112 -0.6244
vn -0.3948 0.5493 -0.7365
vn -0.6356 0.7518 -0.1758
vn -0.6260 0.6018 -0.4959
vn -0.7051 0.6272 -0.3307
vn -0.3590 0.9300 0.0786
vn -0.4650 0.8846 -0.0341
vn -0.2904 0.9547 0.0648
vn -0.2328 0.9637 -0.1309
vn -0.5745 0.7844 -0.2339
vn -0.8266 0.5612 0.0415
vn -0.6927 0.7206 -0.0307
vn -0.5966 0.7894 -0.1447
vn -0.5576 0.8279 -0.0602
vn -0.6269 0.7702 -0.1175
vn -0.6556 0.7422 -0.1392
vn -0.7339 0.6481 -0.2032
vn -0.7113 0.6959 0.0986
vn -0.5725 0.8198 0.0099
vn 0.1153 0.3323 0.9361
vn -0.0627 0.3798 0.9229
vn -0.1107 0.3855 0.9160
vn 0.5088 0.3335 0.7937
vn 0.4133 0.3692 0.8324
vn 0.4385 0.1899 0.8784
vn 0.1737 0.4187 0.8914
vn 0.1722 0.5227 0.8350
vn 0.1736 0.4266 0.8876
vn 0.3421 0.6276 0.6993
vn 0.3444 0.6011 0.7212
vn 0.3463 0.5724 0.7433
vn 0.1941 0.7923 0.5785
vn -0.1934 0.4355 0.8792
vn -0.2787 0.4080 0.8694
vn 0.2303 0.2878 0.9296
vn 0.3012 0.3012 0.9047
vn 0.1680 0.8275 0.5357
vn -0.3077 0.8626 0.4015
vn -0.3916 0.6305 0.6701
vn -0.3336 0.6982 0.6334
vn -0.4116 0.6043 0.6822
vn 0.2411 0.8921 0.3821
vn 0.4923 0.6040 0.6268
vn 0.5279 0.4030 0.7476
vn 0.5726 0.4024 0.7143
vn 0.1530 0.9138 0.3764
vn -0.0730 0.9826 0.1710
vn 0.2346 0.9087 0.3453
vn 0.1942 0.8879 0.4171
vn 0.4941 0.6071 0.6223
vn 0.5044 0.6060 0.6151
vn 0.6294 0.2415 0.7386
vn 0.5892 0.4024 0.7007
vn 0.5157 0.4457 0.7317
vn 0.6688 0.3710 0.6442
vn 0.9253 0.2120 -0.3144
vn 0.9653 0.2201 -0.1408
vn 0.8658 0.1599 0.4741
vn 0.9902 0.0975 0.1003
vn 0.9806 0.1908 0.0440
vn 0.9895 0.1243 -0.0740
vn 0.6814 0.2974 0.6688
vn 0.7947 0.3357 0.5058
vn 0.6460 0.1000 0.7568
vn 0.7863 0.0242 0.6174
vn 0.6202 0.0225 0.7841
vn 0.8671 -0.4164 -0.2735
vn 0.9111 -0.2025 -0.3591
vn 0.7190 -0.4113 0.5602
vn 0.9215 -0.0843 0.3792
vn 0.5936 -0.7707 0.2316
vn 0.6511 -0.7072 -0.2756
vn 0.6960 -0.7098 -0.1082
vn 0.4132 -0.8137 -0.4088
vn 0.1959 -0.7493 -0.6327
vn 0.6554 -0.7192 0.2305
vn 0.7032 -0.7039 0.1001
vn 0.6251 -0.7057 0.3335
vn 0.6123 -0.7308 0.3017
vn 0.5607 -0.4845 0.6714
vn 0.5084 -0.6334 0.5834
vn 0.5787 -0.5675 0.5857
vn -0.5018 -0.7199 0.4795
vn -0.2957 -0.9254 0.2372
vn -0.3420 -0.8682 0.3595
vn -0.2203 -0.8693 0.4424
vn -0.1631 -0.9047 0.3936
vn -0.1124 -0.7179 0.6870
vn -0.3683 -0.7003 0.6115
vn -0.4997 -0.5233 0.6902
vn -0.3409 -0.5842 0.7365
vn -0.2622 -0.5086 0.8202
vn -0.5076 -0.6421 0.5744
vn -0.3716 -0.8385 0.3985
vn -0.3234 -0.8278 0.4584
vn -0.0633 -0.7379 0.6719
vn -0.6520 -0.5783 0.4904
vn 0.2557 -0.3149 -0.9140
vn 0.2900 -0.1936 -0.9373
vn -0.0085 -0.5297 -0.8482
vn 0.0179 -0.6238 -0.7814
vn -0.6807 -0.0011 -0.7326
vn -0.4941 -0.2938 -0.8183
vn -0.3370 -0.3738 -0.8641
vn -0.3618 -0.4141 -0.8353
vn -0.5276 -0.1928 -0.8273
vn -0.8147 0.1366 -0.5636
vn -0.7595 0.0694 -0.6468
vn -0.8346 0.1005 -0.5416
vn -0.7871 -0.0445 -0.6152
vn -0.6386 -0.0558 -0.7675
vn -0.6413 -0.2141 -0.7368
vn -0.5499 0.2285 -0.8034
vn -0.6796 0.2632 -0.6848
vn -0.3213 0.0891 -0.9428
vn -0.4785 -0.1228 -0.8694
vn -0.5157 -0.3307 -0.7904
vn -0.1312 0.4519 -0.8824
vn 0.0804 0.2366 -0.9683
vn -0.7787 0.3310 -0.5330
vn -0.5815 0.5718 -0.5787
vn -0.4703 0.5141 -0.7173
vn -0.5971 0.4969 -0.6298
vn -0.3937 0.6251 -0.6740
vn -0.3054 0.3658 -0.8792
vn -0.1583 -0.3685 0.9161
vn -0.3551 -0.3813 0.8536
vn -0.0882 -0.5045 0.8589
vn -0.1797 -0.5698 0.8019
vn -0.4683 -0.2772 0.8390
vn -0.5451 -0.4029 0.7352
vn -0.3141 -0.2600 0.9131
vn -0.6405 -0.2975 0.7080
vn 0.5921 -0.4250 0.6846
vn 0.5393 -0.4306 0.7237
vn 0.5930 -0.5622 0.5764
vn 0.5869 -0.6910 0.4220
vn 0.5688 -0.7591 0.3165
vn 0.6088 -0.6961 0.3806
vn 0.6703 0.0623 0.7395
vn 0.6326 0.0983 0.7682
vn 0.6492 0.1225 0.7507
vn 0.6115 0.1454 0.7777
vn 0.5839 0.3112 0.7498
vn -0.5017 0.4086 -0.7625
vn -0.4089 0.4421 -0.7984
vn -0.5474 0.8202 0.1659
vn -0.2388 -0.1907 -0.9522
vn -0.1007 -0.1986 -0.9749
vn -0.1444 -0.4460 -0.8833
vn -0.1011 0.0152 -0.9948
vn -0.0752 0.1336 -0.9882
vn -0.2810 0.5462 -0.7891
vn 0.1791 -0.6346 -0.7518
vn 0.0094 -0.7701 -0.6378
vn 0.0978 -0.9399 -0.3272
vn 0.0529 -0.8423 -0.5365
vn -0.1738 -0.9536 -0.2459
vn 0.2034 -0.9458 -0.2532
vn 0.2356 -0.8553 -0.4615
vn 0.4181 0.1076 0.9020
vn 0.4366 0.0668 0.8972
vn 0.1693 0.1577 0.9729
vn 0.2210 0.0089 0.9752
vn -0.0777 -0.0805 0.9937
vn 0.0795 0.2775 0.9574
vn -0.0579 0.1862 0.9808
vn -0.5760 0.8174 0.0103
vn -0.5989 0.6209 0.5058
vn -0.5131 0.7723 0.3746
vn -0.6139 0.7059 0.3533
vn -0.4618 0.5336 0.7085
vn 0.3467 -0.8364 0.4245
vn 0.0064 -0.9376 0.3476
vn 0.2603 -0.9402 0.2199
vn 0.3206 -0.9407 0.1109
vn 0.4359 -0.8750 0.2107
vn 0.3571 -0.8156 0.4552
vn -0.2161 -0.9468 0.2383
vn -0.1829 -0.9684 0.1698
vn -0.1247 -0.9870 0.1015
vn 0.0309 -0.9995 0.0067
vn 0.5176 -0.7790 0.3540
vn 0.4756 -0.8038 0.3574
vn 0.3791 -0.6558 0.6528
vn 0.1449 -0.7615 0.6318
vn 0.3568 -0.7281 0.5853
vn 0.5091 -0.5368 0.6728
vn 0.3813 -0.4907 0.7835
vn 0.2658 -0.5208 0.8113
vn 0.1789 -0.6419 0.7456
vn 0.1162 -0.6138 0.7809
vn 0.0601 -0.7381 0.6721
vn -0.2010 0.4660 -0.8616
vn -0.0726 0.2770 -0.9581
vn -0.1682 0.3148 -0.9341
vn 0.3782 -0.4783 0.7926
vn 0.1370 -0.5076 0.8507
vn 0.4351 -0.1056 0.8942
vn 0.1460 -0.2020 0.9684
vn 0.3797 -0.2487 0.8911
vn -0.0676 -0.2386 0.9688
vn 0.2060 -0.3627 0.9088
vn 0.4566 -0.3297 0.8263
vn 0.4523 0.3131 -0.8351
vn 0.4111 0.2586 -0.8741
vn -0.5740 -0.5865 -0.5714
vn -0.5821 -0.5085 -0.6345
vn -0.3266 -0.6631 -0.6735
vn -0.7948 0.5378 0.2811
vn -0.8783 0.1921 -0.4377
vn -0.9725 0.1682 0.1610
vn -0.9710 0.1572 0.1801
vn -0.9520 0.2687 -0.1467
vn -0.2784 0.2975 -0.9132
vn -0.1298 0.2724 -0.9534
vn -0.3111 0.2255 -0.9232
vn -0.2826 0.7753 -0.5649
vn -0.3266 0.9256 0.1915
vn -0.0376 0.9509 0.3073
vn -0.4428 0.8963 0.0246
vn -0.2504 0.9673 0.0402
vn -0.2065 0.9734 0.0996
vn -0.0900 0.9815 0.1691
vn 0.7650 0.3601 0.5339
vn 0.7572 0.3787 0.5321
vn 0.9085 0.3763 0.1818
vn 0.4857 0.6212 0.6150
vn 0.5466 0.0222 -0.8371
vn 0.9891 -0.1265 0.0753
vn 0.9355 -0.0874 -0.3422
vn 0.7097 -0.7013 -0.0679
vn 0.6949 -0.7147 -0.0789
vn 0.5418 -0.8403 -0.0162
vn -0.6828 -0.6788 0.2703
vn -0.2778 0.5789 -0.7667
vn -0.2206 0.4118 -0.8842
vn -0.3381 0.3391 -0.8779
vn -0.1070 0.5072 -0.8551
vn -0.7023 -0.2252 0.6753
vn -0.8687 0.0200 0.4948
vn -0.9132 0.3584 -0.1940
vn 0.0617 0.5461 -0.8354
vn 0.1683 0.6138 -0.7714
vn 0.0270 0.9990 0.0364
vn 0.1810 0.9808 -0.0728
vn -0.1289 0.9917 -0.0014
vn -0.0052 0.9172 -0.3983
vn 0.2548 0.8182 -0.5154
vn 0.3945 0.8842 -0.2503
vn 0.4050 0.7579 -0.5115
vn -0.1520 0.9835 -0.0979
vn 0.7958 0.6011 -0.0736
vn 0.8438 0.5261 -0.1058
vn 0.6459 0.7243 -0.2412
vn 0.6334 0.5258 -0.5677
vn 0.5081 0.8377 0.2003
vn 0.5356 0.8292 -0.1598
vn 0.8543 -0.2159 -0.4728
vn -0.2824 -0.9487 -0.1422
vn -0.4280 -0.8992 0.0913
vn -0.2144 -0.9021 -0.3745
vn -0.7939 -0.5557 0.2466
vn -0.5787 -0.8119 0.0769
vn -0.7502 -0.6592 -0.0513
vn -0.8089 -0.5880 -0.0037
vn -0.8480 -0.4398 0.2957
vn -0.5512 -0.8010 -0.2337
vn -0.4318 -0.8445 -0.3167
vn 0.4816 -0.0356 -0.8757
vn 0.1736 0.2020 -0.9639
vn 0.2250 0.1805 -0.9575
vn 0.3101 0.0324 -0.9502
vn -0.0217 0.4156 -0.9093
vn -0.7918 0.3800 0.4782
vn -0.2650 0.2248 0.9377
vn -0.3366 0.3166 0.8868
vn -0.6449 0.0512 0.7625
vn -0.5903 0.2785 0.7576
vn -0.1519 0.2247 0.9625
vn -0.7107 0.3015 0.6356
vn -0.3171 0.5185 0.7941
vn -0.3389 0.4664 0.8171
vn -0.5045 0.4721 0.7229
vn -0.5419 0.5476 0.6376
vn -0.6072 0.5356 0.5869
vn -0.7689 -0.0472 -0.6376
vn -0.7584 0.1101 -0.6424
vn -0.9081 -0.3513 -0.2279
vn -0.9850 0.0768 0.1542
vn -0.7860 -0.3992 0.4721
vn -0.8950 -0.3051 0.3253
vn -0.5124 0.4699 -0.7187
vn -0.3725 0.9212 -0.1120
vn -0.1502 0.8446 -0.5140
vn -0.4894 0.7804 -0.3891
vn -0.5659 0.7170 -0.4071
vn -0.7103 0.6346 0.3046
vn -0.0647 0.5731 0.8169
vn -0.1077 0.6242 0.7738
vn 0.3397 0.6516 0.6783
vn 0.1731 0.3321 0.9272
vn 0.1678 0.8193 0.5483
vn -0.3661 0.8075 0.4626
vn 0.2778 0.7782 0.5633
vn 0.3480 0.6310 0.6934
vn 0.3413 0.6978 0.6297
vn 0.1486 0.9071 0.3939
vn 0.3324 0.7967 0.5047
vn 0.5988 0.4470 0.6646
vn 0.5180 0.5447 0.6596
vn 0.9407 0.0496 -0.3355
vn 0.9262 0.2777 0.2549
vn 0.6451 0.0923 0.7585
vn 0.8829 -0.0060 0.4696
vn 0.9599 -0.2595 -0.1056
vn 0.9365 -0.3228 0.1369
vn 0.7824 -0.0284 0.6221
vn 0.7098 -0.2035 0.6743
vn 0.8344 -0.3148 0.4525
vn 0.7190 -0.3861 0.5779
vn 0.7577 -0.5517 0.3486
vn 0.5885 -0.7599 -0.2760
vn 0.4296 -0.9004 -0.0681
vn 0.7094 -0.6709 0.2162
vn 0.7040 -0.7029 0.1012
vn 0.6658 -0.6733 0.3215
vn 0.6461 -0.6980 0.3087
vn 0.6649 -0.7022 0.2546
vn 0.5988 -0.6443 0.4757
vn -0.2455 -0.9216 0.3008
vn -0.3777 -0.7642 0.5228
vn -0.5873 -0.1190 -0.8005
vn -0.8221 0.0240 -0.5688
vn -0.0743 0.2740 -0.9589
vn -0.0960 0.3895 -0.9160
vn 0.0527 0.3452 -0.9370
vn 0.0927 0.2454 -0.9650
vn -0.6751 0.4783 -0.5616
vn -0.7016 -0.1113 0.7038
vn -0.0605 0.0154 0.9980
vn 0.5962 -0.6490 0.4725
vn 0.6079 -0.3839 0.6951
vn 0.6125 -0.3938 0.6854
vn 0.6562 -0.2724 0.7037
vn -0.5605 0.4748 -0.6785
vn -0.4232 0.2867 -0.8595
vn -0.3129 0.5610 -0.7664
vn -0.2666 0.6203 -0.7377
vn -0.2250 0.5966 -0.7703
vn 0.0955 -0.9867 -0.1315
vn -0.1985 -0.9756 -0.0938
vn -0.1430 -0.9863 -0.0823
vn 0.0110 0.0588 0.9982
vn -0.4937 0.5336 0.6866
vn -0.6066 0.7826 0.1402
vn -0.6264 0.7463 0.2252
vn -0.0584 -0.9119 0.4061
vn 0.1476 -0.9312 0.3333
vn 0.1802 -0.9524 0.2457
vn 0.1464 -0.8558 0.4961
vn -0.1603 0.3474 -0.9239
vn -0.1989 0.4713 -0.8593
vn 0.4890 -0.3606 0.7943
vn 0.4845 -0.4109 0.7723
vn 0.2458 -0.3982 0.8838
vn 0.2372 -0.4705 0.8499
vn -0.0295 -0.3110 0.9499
vn -0.0415 -0.4970 0.8668
usemtl Material.002
s 1
f 2/1/1 1/2/2 128/3/3
f 2/1/1 206/4/4 1/2/2
f 4/5/5 6/6/6 5/7/7
f 7/8/8 8/9/9 6/6/10
f 147/10/11 7/8/8 146/11/12
f 12/12/13 275/13/14 11/14/15
f 14/15/16 16/16/17 17/17/18
f 154/18/19 14/15/16 153/19/20
f 9/20/21 20/21/22 173/22/23
f 8/9/9 21/23/24 20/21/22
f 23/24/25 26/25/26 24/26/27
f 24/26/28 27/27/29 177/28/30
f 25/29/31 23/24/25 29/30/32
f 35/31/33 36/32/34 34/33/35
f 36/32/34 37/34/36 34/33/35
f 28/35/37 40/36/38 39/37/39
f 41/38/40 39/37/40 127/39/40
f 42/40/41 43/41/42 45/42/43
f 43/41/44 44/43/45 45/42/46
f 45/42/47 47/44/48 321/45/49
f 46/46/50 48/47/51 47/44/52
f 53/48/53 52/49/53 51/50/53
f 52/49/54 55/51/55 50/52/56
f 52/49/57 56/53/58 55/51/55
f 60/54/59 63/55/60 59/56/61
f 60/54/59 64/57/62 63/55/60
f 60/54/59 65/58/63 64/57/62
f 60/54/64 62/59/64 65/58/64
f 66/60/65 67/61/65 62/59/65
f 69/62/66 70/63/67 236/64/68
f 71/65/69 100/66/70 70/63/67
f 74/67/71 73/68/72 72/69/73
f 74/67/74 238/70/75 73/68/76
f 251/71/77 77/72/78 76/73/79
f 77/72/80 78/74/81 76/73/79
f 79/75/82 80/76/83 78/74/84
f 76/73/79 78/74/81 249/77/85
f 82/78/86 83/79/87 81/80/88
f 83/79/87 282/81/89 277/82/90
f 81/80/88 277/82/90 278/83/91
f 85/84/92 86/85/93 259/86/94
f 87/87/95 88/88/96 85/84/97
f 85/84/92 90/89/98 86/85/93
f 87/87/95 85/84/97 261/90/99
f 92/91/100 266/92/101 93/93/102
f 96/94/103 95/95/104 94/96/105
f 95/95/104 98/97/106 92/91/100
f 92/91/100 98/97/107 266/92/101
f 168/98/108 99/99/109 279/100/110
f 100/66/70 149/101/111 99/99/109
f 99/99/109 10/102/112 276/103/113
f 102/104/114 104/105/115 101/106/116
f 104/105/115 105/107/117 103/108/118
f 292/109/119 174/110/120 102/104/114
f 108/111/121 109/112/121 107/113/121
f 48/114/122 110/115/123 108/111/124
f 321/116/125 108/111/126 330/117/127
f 112/118/128 113/119/129 111/120/130
f 113/119/131 199/121/132 114/122/133
f 113/119/131 116/123/134 199/121/132
f 175/124/135 115/125/136 113/119/131
f 111/120/130 114/122/137 300/126/138
f 318/127/139 119/128/140 118/129/141
f 316/130/142 117/131/143 314/132/144
f 120/133/145 122/134/146 124/135/147
f 124/135/147 122/134/146 123/136/148
f 33/137/149 125/138/150 30/139/151
f 1/2/2 125/138/150 33/137/149
f 125/138/150 295/140/152 30/139/151
f 41/38/153 33/137/149 126/141/154
f 204/142/155 41/38/153 126/141/154
f 39/37/39 128/3/3 127/39/156
f 43/41/44 129/143/157 44/43/45
f 5/144/158 9/145/21 129/143/159
f 129/143/160 132/146/161 131/147/162
f 129/143/159 9/145/21 132/146/161
f 133/148/163 5/144/158 129/143/159
f 133/148/163 4/149/164 5/144/158
f 44/43/45 131/147/165 48/47/122
f 136/150/166 139/151/166 138/152/166
f 135/153/167 138/152/167 140/154/167
f 138/152/168 141/155/168 140/154/168
f 138/152/169 139/151/169 141/155/169
f 140/154/170 141/155/170 130/156/170
f 136/150/171 135/153/172 229/157/173
f 139/151/174 4/158/164 133/159/163
f 141/155/175 133/159/175 130/156/175
f 142/160/176 130/156/176 43/161/176
f 145/162/177 4/5/177 143/163/177
f 146/11/12 6/6/178 145/162/179
f 64/164/180 137/165/181 68/166/182
f 65/167/183 144/168/183 64/164/183
f 147/10/11 146/11/12 67/169/184
f 10/102/112 149/101/111 148/170/185
f 148/170/185 71/65/69 69/62/66
f 149/101/111 100/66/70 71/65/69
f 151/171/186 148/170/185 150/172/187
f 148/170/185 69/62/66 75/173/188
f 253/174/189 11/175/15 80/76/83
f 11/175/15 10/176/112 151/177/186
f 152/178/190 153/19/20 155/179/191
f 153/19/20 19/180/192 156/181/193
f 157/182/194 158/183/194 336/184/194
f 162/185/195 158/183/196 157/182/197
f 159/186/198 161/187/199 338/188/200
f 159/186/198 160/189/201 161/187/199
f 98/190/202 158/183/202 162/185/202
f 163/191/203 160/189/203 158/183/203
f 161/187/199 154/192/204 152/193/205
f 97/194/206 165/195/206 98/97/206
f 164/196/207 194/197/208 15/198/209
f 165/195/210 15/198/210 13/199/210
f 160/200/211 13/199/211 154/201/211
f 166/202/212 167/203/212 168/98/212
f 20/21/22 21/23/24 167/203/213
f 170/204/214 171/205/215 169/206/216
f 173/207/23 166/208/217 171/205/218
f 171/205/215 168/209/108 174/110/120
f 110/210/219 170/204/219 109/211/219
f 131/147/162 172/212/220 170/204/221
f 132/146/161 173/207/23 172/212/220
f 176/213/222 177/214/30 175/124/223
f 177/214/30 28/215/37 178/216/224
f 175/124/223 178/216/224 115/125/136
f 179/217/225 180/218/226 182/219/227
f 183/220/228 185/221/228 184/222/228
f 185/221/229 23/223/229 176/213/229
f 184/222/230 176/213/231 112/118/128
f 309/224/232 182/219/227 310/225/233
f 179/217/225 182/219/227 309/224/232
f 181/226/234 188/227/235 183/228/236
f 181/226/234 189/229/237 188/227/235
f 189/229/238 29/30/239 188/227/240
f 186/230/241 187/231/242 181/226/243
f 32/232/244 284/233/244 192/234/244
f 30/235/151 31/236/245 191/237/246
f 190/238/247 16/16/248 15/239/249
f 37/34/36 195/240/250 193/241/251
f 196/242/252 191/243/252 195/240/252
f 197/244/253 191/243/246 196/242/254
f 193/241/251 194/197/255 96/94/103
f 191/243/246 190/245/247 195/240/256
f 195/240/250 190/245/257 194/197/255
f 194/197/208 164/196/207 96/94/258
f 126/141/154 197/246/253 196/247/254
f 201/248/259 96/94/103 200/249/260
f 198/250/261 193/241/251 201/248/259
f 34/33/35 37/34/36 198/250/261
f 202/251/262 198/250/261 116/123/134
f 203/252/263 34/33/35 202/251/262
f 115/125/136 202/251/262 116/123/134
f 35/31/33 204/253/155 36/32/34
f 36/32/34 204/253/155 126/254/154
f 203/252/263 38/255/264 204/253/155
f 206/4/4 207/256/265 208/257/266
f 207/256/265 299/258/267 208/257/266
f 213/259/268 209/260/269 211/261/270
f 57/262/271 214/263/272 56/53/58
f 134/264/273 214/263/272 57/262/271
f 134/264/274 142/160/274 49/265/274
f 214/263/272 215/266/275 213/259/268
f 205/267/276 216/268/277 40/36/38
f 216/268/278 323/269/279 212/270/280
f 216/268/278 212/270/280 210/271/281
f 40/36/38 210/271/282 128/3/3
f 27/27/29 218/272/283 205/267/276
f 218/272/283 217/273/284 216/268/277
f 343/274/285 219/275/286 220/276/287
f 222/277/288 221/278/289 344/279/290
f 221/278/291 224/280/292 219/275/293
f 223/281/294 224/280/295 221/278/296
f 226/282/297 225/283/297 224/280/297
f 187/284/298 343/274/285 220/276/299
f 340/285/300 219/275/286 343/274/285
f 344/279/290 221/278/289 340/285/301
f 226/282/302 51/286/302 225/283/302
f 225/283/303 51/286/303 50/287/303
f 220/276/304 225/283/305 346/288/306
f 227/289/307 54/290/307 53/48/307
f 230/291/308 228/292/308 227/289/308
f 59/293/61 63/294/309 230/291/310
f 228/292/311 229/157/311 54/290/311
f 229/157/312 58/295/312 54/290/312
f 68/296/182 136/150/313 228/292/314
f 230/291/315 227/289/315 226/297/315
f 232/298/316 226/282/316 223/281/316
f 121/299/317 231/300/318 122/134/146
f 231/300/318 223/281/319 222/277/288
f 61/301/320 59/56/61 230/302/310
f 7/8/8 21/23/24 8/9/9
f 237/303/321 147/10/321 67/169/321
f 237/303/322 67/169/322 66/304/322
f 75/173/188 236/64/68 238/70/75
f 75/173/188 69/62/66 236/64/68
f 240/305/323 239/306/324 66/304/325
f 73/68/72 237/303/326 239/306/324
f 240/305/323 72/69/73 239/306/324
f 239/306/324 237/303/326 66/304/325
f 234/307/327 240/305/323 62/308/328
f 235/309/329 241/310/330 240/311/323
f 319/312/331 241/310/330 235/309/329
f 78/313/81 151/171/186 246/314/332
f 246/314/333 75/173/333 74/67/333
f 315/315/334 250/316/334 248/317/334
f 244/318/335 245/319/335 72/320/335
f 250/321/336 76/73/79 249/77/85
f 250/321/336 251/71/77 76/73/79
f 12/12/13 81/322/88 275/13/14
f 81/322/88 278/323/91 275/13/14
f 90/89/98 254/324/337 255/325/338
f 254/324/337 82/326/86 253/174/189
f 257/327/339 84/328/340 83/329/87
f 260/330/341 77/72/78 251/71/77
f 86/85/342 255/325/342 77/72/342
f 261/90/99 259/86/343 252/331/344
f 313/332/345 263/333/346 262/334/347
f 93/93/102 266/92/101 265/335/348
f 266/92/101 267/336/349 264/337/350
f 266/92/101 162/338/195 267/336/349
f 272/339/351 264/337/351 268/340/351
f 162/338/195 157/341/197 267/336/349
f 264/337/352 349/342/352 268/340/352
f 269/343/353 272/339/353 270/344/353
f 271/345/354 272/339/354 269/343/354
f 304/346/355 269/343/356 301/347/357
f 300/126/138 271/345/358 304/346/355
f 265/335/359 264/337/350 272/339/360
f 272/339/361 268/340/361 270/344/361
f 94/96/105 92/91/100 273/348/362
f 276/103/113 275/13/14 278/323/91
f 106/349/363 278/83/91 277/82/90
f 105/107/117 277/82/90 282/81/89
f 279/350/110 276/351/113 278/83/91
f 174/110/120 280/352/364 104/105/115
f 280/352/364 279/350/110 106/349/363
f 168/209/108 279/350/110 280/352/364
f 281/353/365 282/81/89 332/354/366
f 103/108/118 105/107/117 281/353/365
f 32/232/367 285/355/367 284/233/367
f 283/356/368 286/357/369 18/358/370
f 16/16/17 284/233/371 283/356/368
f 18/358/370 286/357/369 19/180/192
f 16/16/17 283/356/368 17/17/18
f 295/359/372 287/360/373 31/361/374
f 32/232/375 288/362/376 285/355/377
f 287/360/373 290/363/378 288/362/376
f 291/364/379 290/363/378 287/360/373
f 288/362/376 325/365/380 289/366/381
f 283/356/368 289/366/382 286/357/369
f 285/355/377 289/366/381 283/356/368
f 107/367/383 109/368/383 293/369/383
f 294/370/384 169/206/216 292/109/119
f 125/138/150 291/371/385 295/140/152
f 3/372/386 296/373/387 291/371/388
f 3/372/386 297/374/389 296/373/387
f 296/373/387 298/375/390 290/376/378
f 208/257/266 297/374/389 3/372/386
f 303/377/391 302/378/392 301/347/357
f 303/377/393 301/347/357 270/344/394
f 306/379/395 305/380/396 302/378/392
f 305/380/396 300/126/138 304/346/355
f 179/217/225 309/224/232 308/381/397
f 309/224/232 306/379/395 302/378/392
f 306/379/395 307/382/398 305/380/396
f 308/381/397 302/378/392 303/377/391
f 312/383/399 314/384/400 313/332/345
f 312/383/399 313/332/345 262/334/347
f 315/385/401 312/383/399 262/334/347
f 250/321/336 315/385/402 252/331/403
f 252/331/404 315/385/404 261/90/404
f 317/386/405 119/128/140 318/127/139
f 119/128/140 124/135/147 118/129/141
f 242/387/406 120/133/145 317/386/405
f 120/133/145 119/128/140 317/386/405
f 243/388/407 242/387/406 317/386/405
f 242/387/406 319/312/331 120/133/145
f 320/389/408 233/390/409 121/299/317
f 319/312/331 320/389/408 120/133/145
f 42/40/41 45/42/43 207/391/410
f 207/391/265 321/45/411 299/392/267
f 322/393/412 55/51/55 217/273/284
f 55/51/55 56/53/58 323/269/279
f 289/366/381 325/365/380 324/394/413
f 286/357/369 326/395/414 329/396/415
f 324/394/413 327/397/416 326/395/414
f 329/396/415 326/395/414 101/106/116
f 328/398/417 102/104/114 327/397/416
f 326/395/414 102/104/114 101/106/116
f 329/396/415 101/106/116 103/108/118
f 299/258/267 354/399/418 297/374/389
f 84/400/340 332/354/366 331/401/419
f 333/402/420 152/178/205 332/354/366
f 334/403/421 338/404/421 337/405/421
f 338/404/422 333/402/422 337/405/422
f 158/406/423 338/404/423 334/403/423
f 258/407/424 337/405/425 257/408/339
f 123/136/148 340/285/426 339/409/427
f 339/409/427 342/410/428 341/411/429
f 341/411/429 342/410/428 311/412/430
f 342/410/428 186/413/431 179/414/432
f 343/274/285 187/284/298 186/413/431
f 323/269/279 345/415/433 212/270/280
f 323/269/279 56/53/58 345/415/433
f 215/266/275 209/260/269 213/259/268
f 213/259/268 210/271/281 212/270/280
f 29/416/434 346/417/435 25/418/436
f 189/419/437 220/420/304 346/417/306
f 346/417/435 50/421/56 322/422/412
f 88/88/438 347/423/438 348/424/438
f 347/423/439 349/425/439 350/426/439
f 348/424/440 335/427/441 89/428/442
f 353/429/443 347/423/443 88/88/443
f 349/425/444 267/430/349 350/426/445
f 350/426/445 157/431/197 336/432/446
f 350/426/445 336/432/446 335/427/447
f 88/88/448 348/424/449 89/428/442
f 351/433/450 268/434/451 353/429/452
f 263/333/346 353/429/452 87/87/95
f 355/435/453 351/433/450 263/333/346
f 355/435/454 352/436/455 351/433/456
f 270/437/457 268/434/458 351/433/456
f 19/180/192 329/396/415 156/181/193
f 329/396/415 103/108/118 281/353/365
f 156/181/193 281/353/365 332/354/366
f 354/438/418 293/369/459 298/439/390
f 297/440/389 354/438/418 296/441/387
f 293/369/460 292/109/119 328/398/417
f 298/439/390 328/398/461 325/365/380
f 356/442/462 352/443/455 355/444/454
f 357/445/463 270/446/457 352/443/455
f 313/447/345 355/444/453 263/448/346
f 359/449/464 360/450/465 358/451/466
f 341/411/429 311/412/430 360/450/465
f 118/129/141 359/449/464 117/131/143
f 118/129/141 339/409/427 359/449/464
f 360/450/465 308/452/467 357/445/468
f 358/451/466 360/450/465 356/442/469
f 117/131/143 358/451/466 314/132/144
f 1/2/2 127/39/156 128/3/3
f 1/2/2 206/4/4 3/372/386
f 5/7/158 6/6/470 8/9/471
f 5/7/158 8/9/471 9/20/21
f 146/11/12 7/8/8 6/6/178
f 253/453/189 12/12/13 11/14/15
f 13/454/472 15/239/472 14/15/472
f 14/15/473 15/239/473 16/16/473
f 153/19/20 14/15/16 18/358/370
f 14/15/16 17/17/18 18/358/370
f 19/180/192 153/19/20 18/358/370
f 154/18/474 13/454/474 14/15/474
f 173/22/23 20/21/22 166/202/217
f 9/20/21 8/9/471 20/21/22
f 23/24/25 25/29/31 26/25/26
f 24/26/28 26/25/475 27/27/29
f 177/28/30 27/27/29 28/455/37
f 197/246/253 30/139/151 191/456/246
f 30/139/476 295/140/476 31/457/476
f 197/246/253 33/137/149 30/139/151
f 36/32/34 196/458/477 37/34/478
f 41/38/479 38/459/264 39/37/39
f 38/459/264 28/35/37 39/37/39
f 28/35/37 205/267/276 40/36/38
f 39/37/39 40/36/38 128/3/3
f 45/42/480 44/43/481 46/46/50
f 45/42/480 46/46/50 47/44/482
f 42/40/41 49/460/483 43/41/42
f 46/46/50 44/43/481 48/47/51
f 51/50/484 52/49/484 50/52/484
f 53/48/485 54/290/485 52/49/485
f 52/49/486 57/262/271 56/53/58
f 52/49/487 58/295/488 57/262/271
f 54/290/489 58/295/489 52/49/489
f 322/393/412 50/52/56 55/51/55
f 61/301/320 60/54/59 59/56/61
f 61/301/320 234/461/327 62/59/490
f 60/54/59 61/301/320 62/59/491
f 62/59/492 67/61/492 65/58/492
f 63/55/493 64/57/180 68/462/182
f 69/62/66 71/65/69 70/63/67
f 70/63/67 100/66/70 22/463/494
f 72/69/495 245/464/495 74/67/495
f 74/67/496 75/173/188 238/70/75
f 77/72/497 79/75/82 78/74/498
f 78/74/81 80/76/83 151/177/186
f 253/465/189 82/78/86 81/80/88
f 83/79/87 84/400/340 331/401/419
f 83/79/87 331/401/419 282/81/89
f 81/80/88 83/79/87 277/82/90
f 85/84/92 88/88/448 89/428/442
f 85/84/92 91/466/499 90/89/98
f 85/84/92 89/428/442 91/466/499
f 94/96/105 95/95/104 92/91/100
f 200/249/260 96/94/103 94/96/105
f 95/95/500 97/194/500 98/97/500
f 279/100/110 99/99/109 276/103/113
f 168/98/108 100/66/70 99/99/109
f 99/99/109 149/101/111 10/102/112
f 101/106/116 104/105/115 103/108/118
f 102/104/114 174/110/120 104/105/115
f 104/105/115 106/349/363 105/107/117
f 330/117/127 108/111/126 107/113/501
f 47/467/52 48/114/51 108/111/502
f 321/116/49 47/467/48 108/111/503
f 108/111/124 110/115/123 109/112/504
f 111/120/130 113/119/129 114/122/137
f 113/119/131 115/125/136 116/123/134
f 307/382/398 111/120/505 300/126/138
f 112/118/128 175/124/506 113/119/129
f 117/131/143 318/127/139 118/129/141
f 316/130/142 318/127/139 117/131/143
f 320/389/408 121/299/317 122/134/146
f 120/133/145 320/389/408 122/134/146
f 127/39/507 1/2/2 33/137/149
f 41/38/153 127/39/507 33/137/149
f 43/41/44 130/468/508 129/143/157
f 44/43/45 129/143/157 131/147/165
f 130/468/508 133/148/509 129/143/157
f 58/295/488 135/153/172 134/264/273
f 135/153/172 136/150/171 138/152/510
f 136/150/511 137/469/511 139/151/511
f 134/264/512 135/153/512 140/154/512
f 142/160/513 140/154/513 130/156/513
f 141/155/514 139/151/514 133/159/514
f 68/296/182 137/469/181 136/150/313
f 139/151/515 137/469/515 143/470/515
f 139/151/516 143/470/516 4/158/516
f 134/264/517 140/154/517 142/160/517
f 65/167/518 145/162/518 144/168/518
f 65/167/519 67/169/519 145/162/519
f 144/168/520 145/162/520 143/163/520
f 67/169/184 146/11/12 145/162/179
f 4/5/5 145/162/521 6/6/6
f 64/164/180 144/168/522 137/165/181
f 144/168/523 143/163/523 137/165/523
f 148/170/185 149/101/111 71/65/69
f 150/172/187 148/170/185 75/173/524
f 151/171/186 10/102/112 148/170/185
f 80/76/83 11/175/15 151/177/186
f 79/75/82 254/324/337 80/76/83
f 152/178/190 154/18/19 153/19/20
f 155/179/191 153/19/20 156/181/193
f 332/354/366 155/179/191 156/181/193
f 158/183/525 160/189/525 159/186/525
f 98/190/526 163/191/526 158/183/526
f 161/187/527 160/189/527 154/192/527
f 338/471/200 161/187/199 152/193/205
f 95/95/528 164/196/528 97/194/528
f 98/97/529 165/195/529 163/472/529
f 165/195/530 97/194/530 15/198/530
f 97/194/531 164/196/531 15/198/531
f 96/94/103 164/196/532 95/95/104
f 163/472/533 165/195/533 13/199/533
f 160/200/534 163/472/534 13/199/534
f 166/202/217 20/21/22 167/203/213
f 167/203/535 21/23/24 22/463/494
f 167/203/535 22/463/494 100/66/70
f 168/98/108 167/203/535 100/66/70
f 170/204/536 172/212/536 171/205/536
f 172/212/537 173/207/537 171/205/537
f 171/205/215 166/208/538 168/209/108
f 169/206/216 171/205/215 174/110/120
f 48/47/122 131/147/165 110/210/123
f 110/210/123 131/147/165 170/204/539
f 131/147/162 132/146/161 172/212/220
f 132/146/161 9/145/21 173/207/23
f 112/118/128 176/213/231 175/124/506
f 176/213/222 24/473/28 177/214/30
f 175/124/223 177/214/30 178/216/224
f 176/213/540 23/223/25 24/473/27
f 179/217/541 181/474/541 180/218/541
f 180/218/542 181/474/234 183/220/236
f 182/219/227 180/218/226 184/222/543
f 180/218/226 183/220/544 184/222/543
f 179/217/545 186/475/241 181/474/243
f 184/222/230 185/221/546 176/213/231
f 181/226/547 187/231/298 189/229/548
f 183/228/236 188/227/235 185/476/549
f 185/476/550 188/227/240 29/30/239
f 185/476/551 29/30/32 23/24/25
f 191/237/246 192/234/552 190/238/247
f 191/237/246 31/236/245 192/234/552
f 31/236/553 32/232/553 192/234/553
f 194/477/208 190/238/554 15/239/209
f 190/238/247 192/234/552 16/16/248
f 193/241/251 195/240/250 194/197/255
f 37/34/478 196/242/477 195/240/555
f 36/478/34 126/141/154 196/247/477
f 126/141/154 33/137/149 197/246/253
f 201/248/259 193/241/251 96/94/103
f 198/250/261 37/34/36 193/241/251
f 274/479/556 199/121/132 200/249/260
f 199/121/557 201/248/259 200/249/260
f 199/121/132 116/123/134 201/248/259
f 116/123/134 198/250/261 201/248/259
f 178/216/224 203/252/263 202/251/262
f 203/252/263 35/31/33 34/33/35
f 115/125/136 178/216/224 202/251/262
f 202/251/262 34/33/35 198/250/261
f 204/253/155 38/255/264 41/480/153
f 203/252/263 178/216/224 38/255/264
f 35/31/33 203/252/263 204/253/155
f 28/481/37 27/482/29 205/483/276
f 178/216/224 28/215/37 38/255/264
f 211/261/270 206/4/4 2/1/1
f 211/261/270 209/260/269 206/4/4
f 206/4/558 209/260/558 207/256/558
f 210/271/282 213/259/268 211/261/270
f 128/3/3 211/261/270 2/1/1
f 128/3/3 210/271/282 211/261/270
f 214/263/272 134/264/273 49/265/559
f 214/263/272 49/265/559 215/266/275
f 58/295/488 134/264/273 57/262/271
f 49/265/483 142/160/560 43/161/42
f 215/266/275 49/265/561 42/484/562
f 56/53/58 214/263/272 345/415/433
f 216/268/277 217/273/284 323/269/279
f 40/36/38 216/268/277 210/271/282
f 27/27/29 26/25/475 218/272/283
f 26/25/26 25/29/31 218/272/563
f 205/267/276 218/272/283 216/268/277
f 222/277/288 223/281/319 221/278/289
f 220/276/564 219/275/564 224/280/564
f 220/276/565 224/280/565 225/283/565
f 223/281/294 226/282/566 224/280/295
f 340/285/567 221/278/291 219/275/293
f 226/282/568 53/485/568 51/286/568
f 346/288/435 225/283/569 50/287/56
f 227/289/570 228/292/570 54/290/570
f 230/291/571 63/294/571 228/292/571
f 63/294/572 68/296/572 228/292/572
f 228/292/573 136/150/573 229/157/573
f 226/297/574 227/289/574 53/48/574
f 229/157/173 135/153/172 58/295/488
f 121/299/317 233/390/409 231/300/318
f 233/390/409 232/298/575 231/300/318
f 231/300/318 232/298/575 223/281/319
f 232/298/576 230/302/576 226/282/576
f 122/134/146 231/300/318 222/277/288
f 233/390/409 230/302/310 232/298/575
f 233/390/409 235/309/329 234/461/327
f 233/390/409 61/301/320 230/302/310
f 233/390/409 234/461/327 61/301/320
f 236/64/68 70/63/67 7/8/8
f 70/63/67 22/463/494 7/8/8
f 7/8/8 22/463/494 21/23/24
f 147/10/11 236/64/68 7/8/8
f 237/303/577 238/70/75 147/10/11
f 238/70/75 236/64/68 147/10/11
f 62/308/578 240/305/578 66/304/578
f 72/69/73 73/68/72 239/306/324
f 73/68/76 238/70/75 237/303/577
f 234/461/327 235/309/329 240/311/323
f 319/312/331 242/387/406 241/310/330
f 240/311/323 241/310/330 72/320/73
f 242/387/406 243/388/407 241/310/330
f 243/388/407 244/318/579 241/310/330
f 241/310/330 244/318/580 72/320/73
f 74/67/581 245/464/581 246/314/581
f 245/464/582 249/486/85 246/314/332
f 249/486/85 78/313/81 246/314/332
f 246/314/332 151/171/186 150/172/187
f 246/314/332 150/172/187 75/173/524
f 244/318/583 247/487/584 248/317/585
f 244/318/583 248/317/585 245/319/582
f 248/317/585 249/488/85 245/319/582
f 247/487/584 315/315/586 248/317/585
f 248/317/585 250/316/587 249/488/85
f 250/321/336 252/331/403 251/71/77
f 12/12/13 253/453/189 81/322/88
f 255/325/338 254/324/337 79/75/82
f 254/324/337 253/174/189 80/76/83
f 90/89/98 91/466/499 256/489/588
f 256/489/588 91/466/499 257/327/339
f 91/466/499 258/490/589 257/327/339
f 256/489/588 257/327/339 82/326/86
f 254/324/337 256/489/588 82/326/86
f 91/466/499 89/428/442 258/490/589
f 82/326/86 257/327/339 83/329/87
f 90/89/98 256/489/588 254/324/337
f 260/330/590 86/85/590 77/72/590
f 77/72/497 255/325/338 79/75/82
f 86/85/591 90/89/98 255/325/338
f 259/86/343 86/85/592 260/330/593
f 252/331/344 259/86/343 260/330/593
f 251/71/77 252/331/594 260/330/341
f 262/334/595 87/87/95 261/90/99
f 262/334/347 263/333/346 87/87/95
f 261/90/99 85/84/97 259/86/343
f 265/335/359 266/92/101 264/337/350
f 266/92/101 98/97/107 162/338/195
f 264/337/350 267/336/349 349/342/596
f 304/346/355 271/345/358 269/343/356
f 271/345/358 273/348/362 265/335/348
f 271/345/358 265/335/348 272/339/597
f 273/348/362 93/93/102 265/335/348
f 301/347/357 269/343/356 270/344/394
f 300/126/138 273/348/362 271/345/358
f 274/479/556 200/249/260 94/96/105
f 274/479/556 94/96/105 273/348/362
f 273/348/362 92/91/100 93/93/102
f 276/103/113 11/14/15 275/13/14
f 276/103/113 10/102/112 11/14/15
f 105/107/117 106/349/363 277/82/90
f 106/349/363 279/350/110 278/83/91
f 104/105/115 280/352/364 106/349/363
f 174/110/120 168/209/108 280/352/364
f 281/353/365 105/107/117 282/81/89
f 284/233/371 285/355/377 283/356/368
f 16/16/248 192/234/552 284/233/598
f 17/17/18 283/356/368 18/358/370
f 31/361/599 287/360/373 32/232/375
f 32/232/375 287/360/373 288/362/376
f 285/355/377 288/362/376 289/366/381
f 295/359/372 291/364/379 287/360/373
f 288/362/376 290/363/378 325/365/380
f 293/369/600 294/370/600 292/109/600
f 293/369/601 109/368/601 294/370/601
f 294/370/602 109/211/602 170/204/602
f 294/370/384 170/204/603 169/206/216
f 292/109/119 169/206/216 174/110/120
f 125/138/150 3/372/386 291/371/604
f 291/371/379 296/373/387 290/376/378
f 1/2/2 3/372/386 125/138/150
f 290/376/378 298/375/390 325/491/380
f 206/4/4 208/257/266 3/372/386
f 208/257/266 299/258/267 297/374/389
f 300/126/138 114/122/137 274/479/556
f 114/122/133 199/121/132 274/479/556
f 273/348/362 300/126/138 274/479/556
f 301/347/357 302/378/392 304/346/355
f 302/378/392 305/380/396 304/346/355
f 305/380/396 307/382/398 300/126/138
f 308/381/397 309/224/232 302/378/392
f 309/224/232 310/225/233 306/379/395
f 306/379/395 310/225/233 307/382/398
f 310/225/233 111/120/505 307/382/398
f 310/225/233 112/118/605 111/120/505
f 311/492/430 179/217/606 308/381/467
f 310/225/233 182/219/227 184/222/543
f 310/225/233 184/222/543 112/118/605
f 261/90/607 315/385/607 262/334/607
f 312/383/399 316/493/608 314/384/400
f 315/385/609 316/493/608 312/383/399
f 315/315/610 247/487/610 316/130/610
f 316/130/142 247/487/584 318/127/139
f 247/487/584 317/386/405 318/127/139
f 247/487/584 244/318/583 317/386/405
f 119/128/140 120/133/145 124/135/147
f 118/129/141 124/135/147 123/136/148
f 244/318/583 243/388/407 317/386/405
f 319/312/331 235/309/329 320/389/408
f 235/309/329 233/390/409 320/389/408
f 209/494/269 42/40/562 207/391/611
f 207/391/612 45/42/612 321/45/612
f 217/273/284 55/51/55 323/269/279
f 286/357/369 324/394/413 326/395/414
f 324/394/413 325/365/380 327/397/416
f 286/357/369 289/366/381 324/394/413
f 325/365/380 328/398/417 327/397/416
f 328/398/417 292/109/119 102/104/114
f 326/395/414 327/397/416 102/104/114
f 299/258/267 330/117/613 354/399/614
f 299/258/267 321/116/411 330/117/613
f 354/399/614 330/117/613 107/113/615
f 84/400/340 333/402/420 332/354/366
f 332/354/366 152/178/190 155/179/191
f 331/401/419 332/354/366 282/81/89
f 258/407/424 335/495/447 334/403/616
f 335/495/447 336/496/446 334/403/616
f 258/407/424 334/403/616 337/405/425
f 89/497/442 335/495/441 258/407/589
f 336/496/617 158/406/617 334/403/617
f 158/406/618 159/498/618 338/404/618
f 338/404/200 152/178/205 333/402/420
f 337/405/425 333/402/420 84/400/340
f 257/408/339 337/405/425 84/400/340
f 118/129/141 123/136/148 339/409/427
f 339/409/427 340/285/300 342/410/428
f 342/410/428 340/285/300 343/274/285
f 342/410/428 343/274/285 186/413/431
f 311/412/430 342/410/619 179/414/606
f 122/134/146 222/277/288 344/279/290
f 123/136/148 344/279/290 340/285/426
f 123/136/148 122/134/146 344/279/290
f 212/270/280 345/415/433 213/259/268
f 345/415/433 214/263/272 213/259/268
f 215/266/275 42/484/562 209/260/269
f 29/416/239 189/419/238 346/417/620
f 189/419/548 187/499/298 220/420/299
f 25/418/436 346/417/435 322/422/412
f 218/500/621 322/422/412 217/501/284
f 218/500/622 25/418/436 322/422/412
f 347/423/623 268/434/623 349/425/623
f 348/424/624 347/423/624 350/426/624
f 348/424/625 350/426/625 335/427/625
f 87/87/95 353/429/452 88/88/96
f 353/429/626 268/434/626 347/423/626
f 350/426/445 267/430/349 157/431/197
f 263/333/346 351/433/450 353/429/452
f 352/436/455 270/437/457 351/433/456
f 19/180/192 286/357/369 329/396/415
f 156/181/193 329/396/415 281/353/365
f 298/439/390 293/369/627 328/398/461
f 354/438/628 107/367/628 293/369/628
f 296/441/387 354/438/418 298/439/390
f 314/132/629 356/442/469 355/444/630
f 356/442/631 357/445/468 352/443/632
f 313/447/345 314/132/400 355/444/453
f 314/132/629 358/451/466 356/442/469
f 356/442/631 360/450/465 357/445/468
f 357/445/633 308/452/397 303/502/391
f 357/445/634 303/502/634 270/446/634
f 117/131/143 359/449/464 358/451/466
f 359/449/464 341/411/429 360/450/465
f 359/449/464 339/409/427 341/411/429
f 360/450/465 311/412/430 308/452/467
