# Blender v2.82 (sub 7) OBJ File: 'Rock1.blend'
# www.blender.org
mtllib rock1.mtl
o Cube
v 0.29355749 0.29214111 -0.17798849
v 0.24928961 -0.2990003 -0.16677985
v -0.24361749 -0.268063 -0.16362877
v -0.14449405 0.22538044 -0.17732646
v 0.40568325 0.27711496 0.15287241
v 0.1687254 -0.42221563 0.13880484
v -0.2347116 -0.30980406 0.1780075
v -0.14157834 0.40335432 0.17952558
v 0.3344797 0.035802974 -0.18925996
v 0.06489091 0.21096229 -0.16586482
v 0.37718706 0.33172577 0.0025232383
v 0.0037521973 -0.34371164 -0.17738186
v 0.36475884 -0.38576965 -0.014070327
v -0.25534345 0.027662189 -0.21583486
v -0.4078752 -0.24024619 -0.021244537
v -0.28045015 0.30743599 -0.013100168
v 0.31519339 -0.01818716 0.19774361
v 0.07536228 0.43187863 0.16474224
v -0.04869285 -0.48179741 0.17178692
v -0.27807051 -0.0076871262 0.21336674
v 0.042000136 0.011616818 -0.23201004
v 0.059059487 0.064944654 0.22668492
v 0.3702474 -0.051574109 0.0450294
v 0.11803243 -0.38132291 -0.021070625
v -0.40810148 0.012661117 -0.027360392
v -0.0087223291 0.41847198 -0.052992139
v 0.32440852 -0.13459568 -0.18067792
v -0.042246258 0.18850644 -0.16244501
v 0.42830338 0.3207368 0.076754402
v -0.10189308 -0.32314842 -0.16180889
v 0.30441416 -0.39814716 0.040916425
v -0.19132706 0.14304736 -0.20623939
v -0.3068707 -0.3407047 0.09781538
v -0.22224066 0.38953756 0.10941401
v 0.26917317 -0.25361122 0.22526469
v -0.0018783036 0.49143753 0.1703518
v -0.12185078 -0.37096812 0.1705654
v -0.32738597 0.19258634 0.19732413
v 0.33354675 0.17081758 -0.19832681
v 0.1756003 0.27801456 -0.18519798
v 0.34436457 0.34988069 -0.097560162
v 0.11348729 -0.33326177 -0.1848168
v 0.3259853 -0.36685239 -0.095251627
v -0.27218286 -0.13162236 -0.20586565
v -0.38673044 -0.2174042 -0.11542982
v -0.24670105 0.27492797 -0.12528519
v 0.38589451 0.15885735 0.1895601
v 0.25869904 0.35322856 0.16346671
v 0.028360041 -0.5 0.15815729
v -0.27788778 -0.18313749 0.20729994
v -0.084902077 0.0053185068 -0.22135401
v 0.17876268 0.025622927 -0.23184715
v 0.093975813 0.14176631 -0.19776979
v 0.01706128 -0.1692419 -0.2214389
v -0.0082223669 -0.1788484 0.22911445
v 0.063714868 0.26905934 0.205942
v 0.2148895 0.075156121 0.22689962
v -0.11993747 -0.0018788548 0.22448525
v 0.3956807 -0.28290283 0.02801332
v 0.39558313 0.18511116 0.019601055
v 0.39607703 0.012620601 -0.07937631
v 0.33599695 -0.059423572 0.14866904
v -0.24126982 -0.36041545 -0.034771905
v 0.23019375 -0.40426302 -0.024573117
v 0.0091109437 -0.41978996 -0.10264192
v 0.027921541 -0.44657212 0.033892148
v -0.43869895 0.19472647 -0.057734339
v -0.40744056 -0.13149972 -0.018322211
v -0.38041945 0.065456468 -0.18821373
v -0.36239766 -0.017480212 0.14867317
v -0.16737462 0.38156159 -0.008690358
v 0.19968007 0.40746923 -0.022000544
v 0.088582891 0.5 0.085483897
v -0.003400515 0.33509211 -0.12902664
v -0.12753805 -0.1682395 -0.20820313
v -0.14049215 -0.19741508 0.22065947
v 0.35391677 -0.27535407 0.14850119
v -0.2139673 -0.38873442 0.059128666
v -0.42754847 0.18788079 0.10677694
v -0.16064691 0.30452854 -0.10474154
v -0.052782949 0.15948492 -0.20636975
v 0.19740378 0.1762626 -0.22412943
v 0.15203675 -0.15193533 -0.22799794
v 0.14082674 -0.24303154 0.23201004
v 0.26727336 0.19253562 0.2216547
v -0.10363082 0.24014614 0.20973003
v 0.41778653 -0.21082035 -0.093522981
v 0.41120627 0.23095472 -0.11071683
v 0.43869895 0.18988147 0.10145761
v -0.14842236 -0.37622021 -0.093282371
v 0.1825802 -0.39069513 -0.10353518
v 0.19082517 -0.39372605 0.044737525
v -0.32474394 0.2177319 -0.16751409
v -0.38095331 -0.13938721 -0.13658753
v -0.34896538 -0.2108085 0.13450197
v -0.026189036 0.46817881 0.10685246
v 0.26740373 0.41631172 0.088534659
v 0.18766196 0.32530344 -0.11421298
vt 0.137636 0.563411
vt 0.082613 0.506661
vt 0.152906 0.498683
vt 0.155028 0.344089
vt 0.155630 0.402329
vt 0.099783 0.387655
vt 0.896175 0.282885
vt 0.794976 0.248970
vt 0.870663 0.174892
vt 0.944083 0.694636
vt 0.916733 0.604517
vt 0.949240 0.587705
vt 0.369246 0.000842
vt 0.460672 0.063535
vt 0.336809 0.082005
vt 0.485748 0.254952
vt 0.481603 0.323059
vt 0.447322 0.276247
vt 0.215363 0.578539
vt 0.270084 0.523882
vt 0.276846 0.583529
vt 0.226456 0.694739
vt 0.266533 0.646047
vt 0.288525 0.695621
vt 0.060049 0.668982
vt 0.140662 0.629249
vt 0.149628 0.688747
vt 0.046020 0.277128
vt 0.042023 0.402498
vt 0.011393 0.383384
vt 0.226136 0.127633
vt 0.116225 0.149680
vt 0.133867 0.094672
vt 0.335575 0.267841
vt 0.206193 0.274302
vt 0.273683 0.187557
vt 0.422948 0.654063
vt 0.477461 0.726331
vt 0.404599 0.713241
vt 0.529375 0.479105
vt 0.439840 0.553878
vt 0.422729 0.459207
vt 0.672331 0.787452
vt 0.731678 0.707183
vt 0.744126 0.814485
vt 0.006598 0.482318
vt 0.090851 0.431859
vt 0.016271 0.536299
vt 0.857058 0.070133
vt 0.818683 0.137473
vt 0.786060 0.070157
vt 0.720806 0.251159
vt 0.758736 0.168010
vt 0.829103 0.182611
vt 0.348488 0.225548
vt 0.408067 0.318081
vt 0.834672 0.401576
vt 0.758928 0.488146
vt 0.747834 0.361119
vt 0.844101 0.700647
vt 0.766456 0.640000
vt 0.853441 0.628842
vt 0.491069 0.166304
vt 0.554998 0.057463
vt 0.642437 0.169965
vt 0.608937 0.072162
vt 0.661203 0.071636
vt 0.628288 0.255903
vt 0.560004 0.310321
vt 0.556413 0.271543
vt 0.223692 0.502410
vt 0.220811 0.635843
vt 0.058285 0.569867
vt 0.115533 0.299946
vt 0.165692 0.199396
vt 0.258354 0.321530
vt 0.934356 0.187628
vt 0.907061 0.133559
vt 0.539575 0.580737
vt 0.617335 0.678426
vt 0.520455 0.684734
vt 0.622627 0.581780
vt 0.672331 0.661064
vt 0.869574 0.490922
vt 0.939564 0.506329
vt 0.744126 0.821215
vt 0.791426 0.711743
vt 0.791582 0.866218
vt 0.999879 0.706758
vt 1.000000 0.606532
vt 0.431026 0.176751
vt 0.672331 0.596657
vt 0.677773 0.459778
vt 0.674914 0.687648
vt 0.565426 0.199969
vt 0.387737 0.801509
vt 0.336920 0.785916
vt 0.384519 0.726331
vt 0.506205 0.350977
vt 0.512673 0.310590
vt 0.619708 0.321108
vt 0.559475 0.342029
vt 0.324683 0.722893
vt 0.320949 0.673747
vt 0.218381 0.752553
vt 0.278588 0.749240
vt 0.143231 0.752483
vt 0.069266 0.722735
vt 0.808347 0.361119
vt 0.854473 0.349296
vt 0.056221 0.145884
vt 0.000000 0.241327
vt 0.085645 0.065345
vt 0.116277 0.014773
vt 0.187902 0.035191
vt 0.316518 0.068429
vt 0.273048 0.064123
vt 0.336809 0.140426
vt 0.336809 0.674909
vt 0.340137 0.610197
vt 0.339988 0.536299
vt 0.336833 0.476818
vt 0.353162 0.419686
vt 0.517650 0.412671
vt 0.429528 0.400325
vt 0.604166 0.482239
vt 0.586459 0.423461
vt 0.646477 0.441109
vt 0.000000 0.608449
vt 0.053708 0.620010
vt 0.736508 0.092307
vt 0.012308 0.682984
vt 0.913859 0.076969
vt 0.855242 0.125920
vt 0.448079 0.354288
vt 0.232244 0.440506
vt 0.685316 0.388716
vt 0.130148 0.436240
vt 0.867108 0.417288
vt 0.821728 0.494375
vt 0.905653 0.682602
vt 0.489191 0.000000
vt 0.563922 0.000091
vt 0.582099 0.007382
vt 0.207942 0.000000
vt 0.579472 0.365264
vt 0.639569 0.392860
vt 0.693822 0.237100
vt 0.693981 0.150197
vt 0.668575 0.311882
vt 0.206316 0.378186
vt 0.683844 0.711964
vt 0.054401 0.402498
vt 0.693981 0.268226
vt 0.766741 0.707183
vt 0.662917 0.562066
vt 0.752056 0.707183
vt 0.336809 0.833560
vt 0.609960 0.361119
vt 0.670954 0.491413
vt 0.694133 0.143704
vt 0.019832 0.742597
vt 0.291247 0.454530
vt 0.293309 0.025246
vt 0.477201 0.361119
vn -0.0796 -0.1933 -0.9779
vn -0.3201 -0.5230 -0.7899
vn -0.2771 -0.2120 -0.9371
vn -0.0711 -0.1584 0.9848
vn -0.3451 -0.4751 0.8094
vn -0.3559 -0.4008 0.8442
vn 0.7746 -0.2971 0.5582
vn 0.4023 -0.8029 0.4399
vn 0.3900 -0.8845 0.2557
vn -0.6231 -0.7258 0.2915
vn -0.4088 -0.9120 0.0325
vn -0.4539 0.2292 0.8610
vn -0.5716 0.8077 0.1441
vn -0.8850 0.2854 0.3677
vn -0.1928 0.6932 -0.6945
vn 0.0979 0.5738 -0.8131
vn -0.2362 0.8031 -0.5470
vn -0.0570 0.0203 -0.9981
vn -0.0716 0.2246 -0.9718
vn 0.0461 0.4416 -0.8960
vn 0.0987 0.0367 -0.9944
vn -0.1115 0.2644 -0.9579
vn -0.0450 0.1710 -0.9842
vn 0.1037 -0.5063 -0.8561
vn -0.0700 -0.1560 -0.9853
vn 0.1192 -0.1395 -0.9830
vn 0.0425 -0.1706 0.9844
vn -0.3217 -0.8017 0.5038
vn 0.1152 -0.9330 0.3408
vn 0.0342 0.1730 0.9843
vn 0.1034 0.0072 0.9946
vn 0.1487 0.1511 0.9773
vn -0.0517 0.0276 0.9983
vn -0.0450 0.1196 0.9918
vn 0.9208 -0.1228 -0.3701
vn 0.6692 -0.7426 0.0250
vn 0.4377 -0.6741 -0.5950
vn 0.9820 -0.0315 -0.1864
vn 0.9827 -0.0417 -0.1804
vn 0.9183 0.1931 -0.3456
vn 0.6265 -0.0523 0.7776
vn 0.8902 -0.1271 0.4374
vn 0.9953 -0.0874 0.0411
vn -0.4311 -0.8576 -0.2804
vn -0.7423 -0.3693 -0.5591
vn -0.2406 -0.9239 -0.2975
vn 0.1145 -0.9080 -0.4030
vn 0.0598 -0.9883 -0.1403
vn -0.1155 -0.9883 -0.0996
vn 0.0297 -0.8456 -0.5329
vn 0.0609 -0.9814 -0.1822
vn -0.8922 0.3967 -0.2156
vn -0.3926 0.5675 -0.7237
vn -0.7945 -0.1467 -0.5893
vn -0.9937 -0.1122 -0.0037
vn -0.6686 0.0363 -0.7427
vn -0.4112 -0.1772 0.8941
vn -0.8157 -0.0997 0.5698
vn -0.7978 -0.2365 0.5545
vn -0.4000 0.8137 -0.4217
vn -0.2571 0.9580 -0.1272
vn 0.2356 0.8450 -0.4800
vn 0.0997 0.9913 0.0862
vn 0.4401 0.8779 0.1887
vn -0.0526 0.7426 -0.6677
vn -0.1146 0.4102 -0.9047
vn -0.0712 0.4951 -0.8659
vn -0.1237 0.0419 -0.9914
vn -0.0293 0.0791 -0.9964
vn -0.1957 -0.5088 -0.8383
vn -0.0556 -0.0828 0.9950
vn -0.0124 0.0552 0.9984
vn -0.3327 -0.0140 0.9429
vn 0.9409 -0.2248 0.2531
vn 0.9736 -0.0545 0.2216
vn 0.3573 -0.2334 0.9043
vn -0.9120 -0.4097 -0.0152
vn -0.5351 0.7972 -0.2795
vn -0.1291 0.8077 -0.5752
vn 0.0138 0.6475 -0.7619
vn -0.2665 0.6169 -0.7405
vn 0.2340 0.5620 -0.7933
vn 0.5922 -0.0725 -0.8025
vn 0.4834 0.0847 -0.8713
vn 0.5176 -0.1045 -0.8492
vn 0.3116 -0.4087 -0.8578
vn 0.5473 -0.1313 0.8266
vn 0.6389 0.3576 0.6811
vn 0.2576 0.5254 0.8109
vn 0.1259 0.9135 0.3867
vn 0.2369 0.5509 0.8003
vn -0.3230 0.6040 0.7285
vn 0.7469 0.6276 -0.2194
vn 0.4762 0.7765 -0.4125
vn 0.8630 0.5050 -0.0144
vn -0.1175 -0.5004 -0.8578
vn -0.0014 -0.9969 -0.0779
vn -0.9983 -0.0163 0.0552
usemtl Material
s 1
f 75/1/1 3/2/2 44/3/3
f 76/4/4 7/5/5 37/6/6
f 77/7/7 6/8/8 31/9/9
f 37/10/6 33/11/10 78/12/11
f 38/13/12 34/14/13 79/15/14
f 80/16/15 4/17/16 46/18/17
f 51/19/18 32/20/19 81/21/20
f 52/22/21 53/23/22 82/24/23
f 42/25/24 54/26/25 83/27/26
f 84/28/27 19/29/28 49/30/29
f 56/31/30 57/32/31 85/33/32
f 38/34/12 58/35/33 86/36/34
f 87/37/35 13/38/36 43/39/37
f 60/40/38 61/41/39 88/42/40
f 47/43/41 62/44/42 89/45/43
f 63/46/44 45/47/45 90/48/46
f 91/49/47 24/50/48 65/51/49
f 49/52/29 66/53/50 92/54/51
f 67/55/52 46/18/17 93/56/53
f 94/57/54 25/58/55 69/59/56
f 50/60/57 70/61/58 95/62/59
f 71/63/60 34/14/13 96/64/61
f 72/65/62 73/66/63 97/67/64
f 98/68/65 10/69/66 74/70/67
f 51/19/18 44/3/3 14/71/68
f 54/26/25 51/19/18 21/72/69
f 54/26/25 30/73/70 75/1/1
f 55/74/71 37/6/6 19/29/28
f 58/35/33 55/74/71 22/75/72
f 20/76/73 76/4/4 58/35/33
f 59/77/74 31/9/9 13/78/36
f 23/79/75 77/80/7 59/81/74
f 62/82/42 35/83/76 77/80/7
f 78/12/11 15/84/77 63/85/44
f 66/86/50 63/87/44 24/88/48
f 19/89/28 78/12/11 66/90/50
f 79/15/14 16/91/78 67/55/52
f 25/58/55 79/92/14 67/93/52
f 70/61/58 38/94/12 79/92/14
f 80/16/15 16/91/78 71/63/60
f 26/95/79 80/16/15 71/63/60
f 74/96/67 28/97/80 80/98/15
f 81/99/20 4/17/16 28/100/80
f 10/69/66 81/99/20 28/100/80
f 21/72/69 81/21/20 53/23/22
f 40/101/81 53/102/22 10/69/66
f 1/103/82 82/24/23 40/104/81
f 9/105/83 82/24/23 39/106/84
f 83/27/26 21/72/69 52/22/21
f 27/107/85 52/22/21 9/105/83
f 2/108/86 83/27/26 27/107/85
f 84/109/27 6/8/8 35/110/76
f 17/111/87 84/28/27 35/112/76
f 22/75/72 84/28/27 57/32/31
f 47/113/41 57/32/31 17/111/87
f 5/114/88 85/33/32 47/113/41
f 48/115/89 56/31/30 85/33/32
f 86/36/34 22/75/72 56/31/30
f 36/116/90 56/31/30 18/117/91
f 8/118/92 86/36/34 36/116/90
f 87/37/35 2/119/86 27/120/85
f 61/41/39 27/120/85 9/121/83
f 23/79/75 87/37/35 61/41/39
f 88/42/40 9/121/83 39/122/84
f 1/123/82 88/42/40 39/122/84
f 11/124/93 88/42/40 41/125/94
f 89/126/43 23/79/75 60/40/38
f 29/127/95 60/40/38 11/124/93
f 5/128/88 89/126/43 29/127/95
f 90/48/46 3/2/2 30/73/70
f 65/129/49 30/73/70 12/130/96
f 24/50/48 90/131/46 65/51/49
f 42/25/24 65/129/49 12/130/96
f 2/108/86 91/132/47 42/25/24
f 43/133/37 64/134/97 91/49/47
f 92/54/51 24/50/48 64/134/97
f 31/9/9 64/134/97 13/78/36
f 6/8/8 92/54/51 31/9/9
f 93/56/53 4/17/16 32/135/19
f 69/136/56 32/20/19 14/71/68
f 69/59/56 67/93/52 93/137/53
f 44/3/3 69/136/56 14/71/68
f 3/2/2 94/138/54 44/3/3
f 45/139/45 68/140/98 94/57/54
f 68/140/98 70/61/58 25/58/55
f 15/84/77 95/62/59 68/140/98
f 7/141/5 95/62/59 33/11/10
f 96/64/61 8/142/92 36/143/90
f 18/144/91 96/64/61 36/143/90
f 26/95/79 96/64/61 73/66/63
f 97/145/64 18/117/91 48/115/89
f 5/128/88 97/146/64 48/147/89
f 11/124/93 97/146/64 29/127/95
f 98/68/65 26/95/79 72/65/62
f 41/148/94 72/65/62 11/149/93
f 1/150/82 98/68/65 41/148/94
f 75/1/1 30/73/70 3/2/2
f 76/4/4 50/151/57 7/5/5
f 77/7/7 35/110/76 6/8/8
f 37/10/6 7/141/5 33/11/10
f 38/13/12 8/142/92 34/14/13
f 80/16/15 28/100/80 4/17/16
f 51/19/18 14/71/68 32/20/19
f 52/22/21 21/72/69 53/23/22
f 42/25/24 12/130/96 54/26/25
f 84/28/27 55/74/71 19/29/28
f 56/31/30 22/75/72 57/32/31
f 38/34/12 20/76/73 58/35/33
f 87/37/35 59/81/74 13/38/36
f 60/40/38 23/79/75 61/41/39
f 47/43/41 17/152/87 62/44/42
f 63/46/44 15/153/77 45/47/45
f 91/49/47 64/134/97 24/50/48
f 49/52/29 19/154/28 66/53/50
f 67/55/52 16/91/78 46/18/17
f 94/57/54 68/140/98 25/58/55
f 50/60/57 20/155/73 70/61/58
f 71/63/60 16/91/78 34/14/13
f 72/65/62 26/95/79 73/66/63
f 98/68/65 40/101/81 10/69/66
f 51/19/18 75/1/1 44/3/3
f 54/26/25 75/1/1 51/19/18
f 54/26/25 12/130/96 30/73/70
f 55/74/71 76/4/4 37/6/6
f 58/35/33 76/4/4 55/74/71
f 20/76/73 50/151/57 76/4/4
f 59/77/74 77/7/7 31/9/9
f 23/79/75 62/82/42 77/80/7
f 62/82/42 17/156/87 35/83/76
f 78/12/11 33/11/10 15/84/77
f 66/86/50 78/157/11 63/87/44
f 19/89/28 37/10/6 78/12/11
f 79/15/14 34/14/13 16/91/78
f 25/58/55 70/61/58 79/92/14
f 70/61/58 20/155/73 38/94/12
f 80/16/15 46/18/17 16/91/78
f 26/95/79 74/70/67 80/16/15
f 74/96/67 10/158/66 28/97/80
f 81/99/20 32/135/19 4/17/16
f 10/69/66 53/102/22 81/99/20
f 21/72/69 51/19/18 81/21/20
f 40/101/81 82/159/23 53/102/22
f 1/103/82 39/106/84 82/24/23
f 9/105/83 52/22/21 82/24/23
f 83/27/26 54/26/25 21/72/69
f 27/107/85 83/27/26 52/22/21
f 2/108/86 42/25/24 83/27/26
f 84/109/27 49/52/29 6/8/8
f 17/111/87 57/32/31 84/28/27
f 22/75/72 55/74/71 84/28/27
f 47/113/41 85/33/32 57/32/31
f 5/114/88 48/115/89 85/33/32
f 48/115/89 18/117/91 56/31/30
f 86/36/34 58/35/33 22/75/72
f 36/116/90 86/36/34 56/31/30
f 8/118/92 38/34/12 86/36/34
f 87/37/35 43/39/37 2/119/86
f 61/41/39 87/37/35 27/120/85
f 23/79/75 59/81/74 87/37/35
f 88/42/40 61/41/39 9/121/83
f 1/123/82 41/125/94 88/42/40
f 11/124/93 60/40/38 88/42/40
f 89/126/43 62/82/42 23/79/75
f 29/127/95 89/126/43 60/40/38
f 5/128/88 47/160/41 89/126/43
f 90/48/46 45/47/45 3/2/2
f 65/129/49 90/48/46 30/73/70
f 24/50/48 63/161/44 90/131/46
f 42/25/24 91/132/47 65/129/49
f 2/108/86 43/162/37 91/132/47
f 43/133/37 13/78/36 64/134/97
f 92/54/51 66/53/50 24/50/48
f 31/9/9 92/54/51 64/134/97
f 6/8/8 49/52/29 92/54/51
f 93/56/53 46/18/17 4/17/16
f 69/136/56 93/163/53 32/20/19
f 69/59/56 25/58/55 67/93/52
f 44/3/3 94/138/54 69/136/56
f 3/2/2 45/47/45 94/138/54
f 45/139/45 15/84/77 68/140/98
f 68/140/98 95/62/59 70/61/58
f 15/84/77 33/11/10 95/62/59
f 7/141/5 50/60/57 95/62/59
f 96/64/61 34/14/13 8/142/92
f 18/144/91 73/66/63 96/64/61
f 26/95/79 71/63/60 96/64/61
f 97/145/64 73/164/63 18/117/91
f 5/128/88 29/127/95 97/146/64
f 11/124/93 72/165/62 97/146/64
f 98/68/65 74/70/67 26/95/79
f 41/148/94 98/68/65 72/65/62
f 1/150/82 40/101/81 98/68/65
