# Blender v2.82 (sub 7) OBJ File: ''
# www.blender.org
mtllib rock5.mtl
o Rock.Landscape.Style_2_Rock.Landscape.Style_2.Mesh
v -0.43826254 0.088468125 -0.16500439
v -0.43788084 0.1362771 -0.064524572
v -0.40468825 0.11647634 -0.15777315
v -0.40222706 0.085770449 -0.20168016
v -0.47220775 0.086636441 -0.10963272
v -0.35960799 0.15229164 -0.13095843
v -0.35681508 0.10935295 -0.20412083
v 0.22597661 0.25671499 -0.14024154
v 0.20955117 0.23110588 -0.16482078
v 0.26513908 0.24632598 -0.1106134
v 0.34425346 0.11143349 -0.11786596
v 0.33342672 0.15042497 -0.088661868
v 0.28924113 0.17525517 -0.14012606
v 0.18249838 0.1804235 -0.19684092
v 0.43620515 -0.16038993 -0.07416255
v 0.39820672 -0.18358469 -0.096839076
v 0.41624104 -0.14078989 -0.12160929
v 0.36784912 -0.17177989 -0.1377843
v 0.39007871 -0.11705481 -0.15256483
v 0.43685412 -0.1087295 -0.11381247
v -0.24629559 -0.29936169 -0.12257525
v -0.35034724 -0.26520892 -0.13256388
v -0.29795234 -0.25659609 -0.16540503
v -0.40545638 -0.20239976 -0.17062966
v 0.2344466 0.11289347 -0.21046346
v 0.29352347 0.079626429 -0.19110859
v 0.2855333 0.12402194 -0.17865166
v 0.32822393 0.11364819 -0.14802469
v 0.17709777 0.076173509 -0.23728607
v -0.1928482 0.074754828 0.18576506
v -0.26787201 0.14040635 0.15528066
v -0.30869412 0.10504035 0.15912396
v -0.33762699 0.055240016 0.14919635
v -0.48500876 -0.066952481 -0.17096927
v -0.49544986 -0.020024754 -0.16260713
v -0.47873873 -0.064548905 -0.1965263
v -0.46007781 -0.084660337 -0.20871017
v -0.45548006 -0.04767258 -0.22676079
v -0.48248549 -0.0091446091 -0.19648368
v -0.45803963 -0.0078282589 -0.22287303
v -0.42838887 -0.097329287 -0.22413388
v -0.43605021 -0.079988399 0.055476112
v -0.46655539 -0.044628718 0.023669839
v -0.47160903 -0.15284933 -0.0033950471
v -0.40489238 0.096195238 0.10053638
v -0.44634295 0.10784483 0.050915184
v -0.36808508 0.13013782 0.10802858
v -0.37853065 0.16929634 0.035426235
v -0.47633384 0.087901758 0.019327251
v -0.44399645 0.13184955 0.022938007
v -0.38413619 0.17697558 -0.0018332623
v -0.43716795 0.14652301 -0.014569819
v -0.45183931 0.076016725 0.060155153
v -0.15452778 0.25480728 -0.14047908
v -0.020917973 0.26120594 -0.16896318
v -0.15202819 0.22309255 -0.1616638
v -0.20316329 0.16337829 -0.18278065
v -0.11078939 0.17971429 -0.18708035
v -0.25931599 0.21962385 -0.11774232
v -0.10630159 0.24453612 0.10442966
v -0.1562887 0.25419488 0.062421674
v -0.064195748 0.29446325 0.048263281
v -0.16098853 0.27775555 -0.0010496078
v 0.012526635 0.29121315 0.086635257
v 0.23356588 0.28737932 0.069362238
v 0.4152856 0.16801235 0.066401503
v 0.29676621 0.26586078 0.037040632
v 0.23969938 0.30210513 0.020410531
v 0.32447164 0.2473014 0.013093265
v 0.3745453 0.19840599 0.011839786
v 0.40316592 0.15573772 0.0035773474
v 0.36882165 0.072093191 -0.082534947
v 0.39063981 0.02249541 -0.1264317
v 0.43265937 -0.0044466278 -0.090455935
v 0.41606426 -0.029714291 -0.1353702
v 0.36351626 0.059961146 -0.13230687
v 0.35855049 0.021907471 -0.16177639
v 0.46369094 0.088309763 0.052441193
v 0.49883728 0.017278675 0.055825981
v 0.48341225 0.037049445 0.020993997
v 0.5 -0.027666372 0.014898117
v 0.44228762 -0.13334741 0.051229277
v 0.40449911 -0.18408082 0.069712897
v 0.37797165 -0.20289537 0.08131514
v 0.43622751 -0.17844319 0.02680472
v 0.44902747 -0.16987876 0.00045746063
v 0.4129933 -0.20676076 0.0051809587
v 0.13204329 -0.26206746 -0.15458302
v -0.096005703 -0.30893206 -0.11620763
v -0.040508547 -0.25878527 -0.16744322
v 0.10205476 -0.22592097 -0.19514129
v 0.15463379 -0.30485516 0.058211142
v 0.038787085 -0.32735307 0.046209837
v -0.032231903 -0.3196007 0.072410573
v 0.069886253 -0.32949753 0.0069847583
v -0.067605526 -0.33718492 0.011830316
v 0.0039845637 -0.33770525 -0.024105466
v 0.12112895 -0.31784688 -0.025552557
v -0.33729738 -0.2621648 0.069956753
v -0.38981012 -0.22254066 0.076809982
v -0.41989625 -0.23922968 0.02932562
v -0.36010386 -0.27187932 0.022865403
v 0.23895965 -0.097463448 -0.21212705
v 0.31015331 -0.11871025 -0.18766145
v 0.31017778 -0.050088783 -0.19365421
v 0.36909444 -0.036411525 -0.16789016
v -0.10992156 -0.086850309 -0.24909639
v 0.0084505264 -0.12914398 -0.23712034
v -0.093031288 -0.0038805236 -0.25743696
v -0.24071873 0.10265677 -0.23505032
v -0.045366994 0.13720938 -0.21919809
v -0.0054350743 0.093271593 -0.24739781
v -0.30837108 -0.088839828 0.15040064
v -0.2108178 -0.035230651 0.17579483
v 0.1465555 -0.10074933 0.25308411
v 0.20591831 -0.062413651 0.24864261
v 0.06968396 -0.1099159 0.25435206
v -0.0035718232 -0.14616078 0.24457887
v 0.021822372 -0.042557386 0.25141552
v 0.15647705 0.02700162 0.25743696
v -0.04837587 0.024955543 0.23444187
v 0.15015415 0.12306046 0.24559428
v 0.17406943 0.18247589 0.21775942
v 0.098220928 0.13829266 0.2378669
v 0.095079733 0.17883672 0.21530507
v 0.035702711 0.073159635 0.24800048
v 0.2295095 0.13716203 0.23002825
v 0.23281326 0.18275473 0.2083453
v -0.47461317 0.040226942 -0.17191655
v -0.49371893 0.05387421 -0.093615018
v -0.45150707 0.034479089 -0.20726702
v -0.40185273 0.054933551 -0.22657139
v -0.49571555 0.010391512 -0.032892972
v -0.49704295 0.056391164 -0.049160314
v -0.49046593 0.053742154 -0.003376896
v -0.5 -0.009355846 -0.080893982
v -0.47732768 0.107259 -0.012197547
v -0.47598897 0.10980015 -0.045323853
v -0.012149407 0.30138277 -0.14120671
v 0.12247844 0.27664386 -0.16695156
v 0.15014416 0.28604614 -0.15229125
v 0.079531859 0.19452507 -0.20109485
v 0.11095354 0.17223393 -0.20884538
v -0.022748341 0.32488162 -0.014796839
v 0.10279606 0.33515042 -0.00017467157
v 0.12060967 0.33770525 -0.047769255
v 0.18050123 0.3279097 -0.036615265
v 0.17009381 0.32614773 0.014261513
v 0.041590511 0.3356113 -0.057070516
v 0.19089104 0.31710321 -0.083276776
v 0.0078094502 0.32656968 -0.095809987
v 0.10383357 0.31921611 -0.12338363
v 0.18561774 0.30457632 -0.11521247
v 0.24398909 0.30320157 -0.033407516
v 0.30323327 0.25292983 -0.042283673
v 0.2480915 0.28387432 -0.084867234
v 0.32473155 0.21339776 -0.057278859
v 0.43310921 -0.063587423 -0.12445165
v 0.40644996 -0.081584382 -0.14892619
v 0.48100815 -0.042985121 -0.040552215
v 0.48864582 -0.066182505 -0.010593936
v 0.45997075 -0.12276084 -0.055773632
v 0.44866971 -0.17224156 -0.018175313
v 0.48677915 0.0028119755 -0.014116304
v 0.41223306 -0.20072618 -0.037573065
v -0.20745195 -0.28363809 -0.15057452
v -0.22369483 -0.24787119 -0.17895523
v -0.081855465 -0.33578965 -0.046945352
v -0.17360144 -0.32220131 0.002141042
v -0.21603664 -0.31693486 -0.064346744
v -0.32839413 -0.2901938 -0.04268668
v -0.40621268 -0.25975991 -0.021909444
v -0.32164323 -0.28962217 -0.09053722
v -0.38716059 -0.2609221 -0.089427109
v 0.25096832 0.031586749 -0.21691421
v 0.060362444 0.05074117 -0.25376123
v 0.15128873 0.018153348 -0.24306496
v 0.14490269 0.10670263 -0.2373321
v -0.312101 -0.02243701 0.14452021
v -0.19563216 0.033603364 0.18305975
v -0.033045283 0.086510173 0.23137827
v -0.0033029763 0.13129054 0.2209306
v -0.15296705 0.12269165 0.18776089
v -0.42028295 -0.18968188 -0.16429729
v -0.43818784 -0.16969356 -0.15054953
v -0.37266074 -0.21036179 -0.18347512
v -0.44261644 -0.22955882 -0.01804773
v -0.46294516 -0.19635912 -0.014328067
v -0.45601275 -0.19892632 -0.05265848
v -0.42106397 -0.23647229 -0.081526377
v -0.47211963 -0.1188202 -0.098268805
v -0.48669366 -0.08775234 -0.054321543
v -0.44888463 -0.17337692 0.032991093
v -0.44580078 -0.20452318 0.025537562
v -0.38720899 -0.19536239 0.088700538
v -0.34643265 -0.025255168 0.13141168
v -0.37552388 -0.058574033 0.110842
v -0.42517401 0.03527616 0.089210611
v -0.46810218 0.034198668 0.038857848
v -0.39608304 0.054349822 0.1155897
v -0.36674637 0.08371306 0.1339652
v -0.34644159 0.11306683 0.13765461
v -0.32178449 0.1553626 -0.15342004
v -0.28333938 0.1626049 -0.16253269
v -0.35110196 0.19347757 -0.043211747
v -0.19422532 0.26884441 -0.057559807
v -0.26814822 0.22839347 -0.092365221
v -0.070383436 0.31398911 -0.061418628
v -0.1445131 0.27992711 -0.11046109
v -0.32973047 0.17346505 0.074533727
v -0.2971629 0.1486338 0.13479305
v 0.023965255 0.21992847 0.16768181
v 0.087479416 0.26592234 0.13105155
v 0.15016967 0.29517956 0.09048645
v 0.054848714 0.32222078 0.03944184
v 0.15203214 0.21793501 0.18960809
v 0.23339936 0.22732071 0.16219886
v 0.29591021 0.19543526 0.17104108
v 0.35448938 0.16251703 0.16402134
v 0.36070863 0.18543794 0.13181837
v 0.42209858 0.14869878 0.11702601
v 0.36715254 0.1575581 -0.037356041
v 0.43293532 0.090957458 -0.00093701827
v 0.37299009 0.082769202 -0.063810366
v 0.44811439 0.043826386 -0.028071615
v 0.45185904 0.12779264 0.086444013
v 0.43730238 0.13593118 0.040077918
v 0.41064707 0.11655737 0.15214078
v 0.44997869 0.11366476 0.11507673
v 0.43874315 0.038155873 0.16162118
v 0.49015421 0.029888699 0.10242567
v 0.42723903 -0.0098966965 0.17576406
v 0.46958163 0.028156978 0.13869054
v 0.43082085 -0.033965334 0.16570492
v 0.4793535 -0.022918672 0.11910049
v 0.49762194 -0.027640592 0.063669366
v 0.46814348 -0.10183076 0.035009023
v 0.47996801 -0.091313115 0.0086683397
v 0.33853613 -0.10000908 0.18109706
v 0.44030494 -0.055648547 0.13746442
v 0.43247023 -0.10553306 0.086147019
v 0.40857548 -0.1357423 0.087967654
v 0.32245582 -0.21897515 -0.11455325
v 0.22103293 -0.25200833 -0.13329598
v 0.21819162 -0.2260988 -0.17098479
v 0.31696182 -0.19626784 -0.14862657
v 0.36997175 -0.22746987 -0.030552267
v 0.29687117 -0.26317153 0.02630517
v 0.27786669 -0.26156528 -0.055647889
v 0.015171436 -0.32019153 -0.082344229
v 0.15770659 -0.29132074 -0.086036008
v 0.39227026 -0.21195645 0.045529302
v 0.30671959 -0.25027424 0.07676342
v 0.2785275 -0.19591245 0.17384556
v 0.24361528 -0.22988475 0.17448322
v 0.25584676 -0.24611632 0.14450153
v 0.18447843 -0.23649702 0.20196953
v 0.18993192 -0.26957939 0.1484419
v 0.1104966 -0.26471569 0.18669445
v 0.043648689 -0.24825157 0.20899559
v -0.040419633 -0.27089995 0.16903447
v -0.13982433 -0.22962038 0.1996162
v -0.13931873 -0.31498085 0.055381147
v -0.12439167 -0.25104632 0.18350038
v -0.21266474 -0.23772735 0.1714946
v -0.19528071 -0.26357716 0.14606463
v -0.21915863 -0.21050252 0.18522026
v -0.27866008 -0.22059901 0.15013021
v -0.31413367 -0.24309061 0.11191607
v -0.27958526 -0.19050789 0.16114373
v 0.18406017 -0.20355249 -0.19614249
v 0.18490643 -0.16242812 -0.21123528
v 0.32040948 -0.15805923 -0.17213699
v -0.070121691 -0.2027178 -0.20522068
v 0.083668471 -0.1764463 -0.21967844
v 0.04120355 -0.055553583 -0.24919977
v 0.14088683 -0.085680483 -0.2347699
v -0.21558418 -0.17065241 -0.22184236
v -0.38673417 -0.16628904 -0.20607089
v -0.32202309 -0.20242896 -0.19990688
v -0.30590648 -0.14725747 -0.22770359
v -0.42075251 -0.01148847 -0.24161682
v -0.39817384 -0.080303544 -0.23853692
v -0.34247334 -0.053501455 -0.25037696
v -0.20397851 0.036348917 -0.25650994
v -0.30023254 0.065008734 -0.24669702
v -0.35481136 0.017399156 -0.24952781
v -0.30568419 0.10588951 -0.22386976
v -0.23976356 -0.16009215 0.18547359
v -0.32434511 -0.13355338 0.14286319
v -0.084429766 -0.20451318 0.22005935
v -0.063653582 -0.14620681 0.23504322
v -0.17998222 -0.19018196 0.20347844
v -0.12234954 -0.11020106 0.21896818
v -0.086414024 -0.037844411 0.22377927
v 0.11982233 -0.2294123 0.22148802
v 0.19387203 -0.18569811 0.22592952
v 0.11583172 -0.17784131 0.24290975
v 0.036176481 -0.20467233 0.23568561
v 0.31783991 -0.13653043 0.17000489
v 0.28166264 -0.11566086 0.20731753
v 0.35844263 -0.035987473 0.20577679
v 0.24554377 -0.10176395 0.22989278
v 0.27790036 -0.037771017 0.23504085
v 0.087270809 0.04075727 0.25675116
v 0.23413146 0.056432202 0.24481168
v 0.37850935 0.022185262 0.1998227
v 0.29825434 0.023565799 0.23018925
v 0.31115899 0.14077831 0.20087704
vt 0.114793 0.906422
vt 0.136532 0.908207
vt 0.122694 0.931280
vt 0.078692 0.925667
vt 0.100073 0.963338
vt 0.100781 0.876350
vt 0.109548 0.851243
vt 0.134054 0.876399
vt 0.478908 0.359167
vt 0.435385 0.350127
vt 0.476117 0.333099
vt 0.407123 0.341105
vt 0.426613 0.311101
vt 0.432232 0.406542
vt 0.463117 0.378068
vt 0.292982 0.309738
vt 0.310540 0.288158
vt 0.316805 0.307901
vt 0.291216 0.288469
vt 0.305495 0.260782
vt 0.301106 0.336344
vt 0.291367 0.271812
vt 0.322907 0.232461
vt 0.327037 0.274554
vt 0.524291 0.585998
vt 0.514534 0.618983
vt 0.515804 0.591508
vt 0.542595 0.623793
vt 0.521567 0.671199
vt 0.530903 0.615755
vt 0.513084 0.654282
vt 0.507142 0.637097
vt 0.411013 0.290807
vt 0.375652 0.318859
vt 0.455477 0.258225
vt 0.467393 0.293526
vt 0.440823 0.277061
vt 0.156980 0.229152
vt 0.167379 0.302074
vt 0.151622 0.325216
vt 0.141773 0.255496
vt 0.132527 0.346730
vt 0.533568 0.765715
vt 0.534471 0.690668
vt 0.558523 0.720835
vt 0.520563 0.769443
vt 0.528427 0.675681
vt 0.540306 0.798586
vt 0.580631 0.742861
vt 0.516768 0.796198
vt 0.504261 0.783633
vt 0.512926 0.757078
vt 0.505170 0.748888
vt 0.097366 0.455669
vt 0.053791 0.471966
vt 0.047520 0.443578
vt 0.165878 0.373288
vt 0.178762 0.416961
vt 0.170597 0.441150
vt 0.158548 0.431262
vt 0.151978 0.460921
vt 0.183110 0.437877
vt 0.176826 0.451886
vt 0.164336 0.466032
vt 0.091215 0.734251
vt 0.101311 0.652157
vt 0.103154 0.736793
vt 0.119747 0.776732
vt 0.112037 0.825916
vt 0.076242 0.722755
vt 0.086632 0.807492
vt 0.209054 0.216752
vt 0.233140 0.203496
vt 0.215049 0.265178
vt 0.230658 0.264612
vt 0.248057 0.191784
vt 0.200260 0.312470
vt 0.205690 0.323452
vt 0.325857 0.727708
vt 0.356713 0.712851
vt 0.346752 0.759412
vt 0.387790 0.618733
vt 0.389418 0.650165
vt 0.372147 0.698303
vt 0.308714 0.655073
vt 0.293662 0.685810
vt 0.344122 0.638217
vt 0.367932 0.606975
vt 0.464912 0.502712
vt 0.467178 0.527200
vt 0.452880 0.564817
vt 0.473620 0.495251
vt 0.477351 0.492285
vt 0.476068 0.524594
vt 0.468460 0.553541
vt 0.362446 0.481129
vt 0.322373 0.447245
vt 0.353907 0.455424
vt 0.337518 0.430935
vt 0.367597 0.422769
vt 0.321267 0.470036
vt 0.306811 0.450446
vt 0.313642 0.420006
vt 0.330286 0.404530
vt 0.431495 0.667177
vt 0.434208 0.697091
vt 0.418288 0.682256
vt 0.442221 0.688531
vt 0.423474 0.709918
vt 0.419954 0.700279
vt 0.654399 0.236430
vt 0.659625 0.359161
vt 0.649246 0.376483
vt 0.635132 0.301806
vt 0.626346 0.391838
vt 0.647803 0.433965
vt 0.635930 0.434097
vt 0.574019 0.263642
vt 0.585625 0.307305
vt 0.522634 0.341014
vt 0.604753 0.243918
vt 0.616579 0.292290
vt 0.601737 0.333319
vt 0.610742 0.367392
vt 0.575308 0.378847
vt 0.577815 0.473292
vt 0.576974 0.032440
vt 0.581030 0.071001
vt 0.568201 0.069070
vt 0.599112 0.018822
vt 0.602442 0.062650
vt 0.555756 0.141518
vt 0.588306 0.192762
vt 0.368315 0.258835
vt 0.336977 0.294275
vt 0.343914 0.233612
vt 0.414627 0.034751
vt 0.454942 0.041681
vt 0.421565 0.103014
vt 0.442860 0.127707
vt 0.136819 0.688004
vt 0.144046 0.797957
vt 0.153985 0.646745
vt 0.071901 0.326649
vt 0.045893 0.287106
vt 0.061667 0.213676
vt 0.095653 0.269398
vt 0.060668 0.087583
vt 0.088784 0.118449
vt 0.048209 0.136392
vt 0.073420 0.010019
vt 0.115370 0.032442
vt 0.062424 0.045160
vt 0.119728 0.071959
vt 0.118645 0.157895
vt 0.051057 0.175410
vt 0.182564 0.029061
vt 0.177207 0.076787
vt 0.161606 0.071078
vt 0.154387 0.036824
vt 0.134664 0.105760
vt 0.161343 0.135402
vt 0.139980 0.146965
vt 0.165552 0.002849
vt 0.136532 0.993394
vt 0.131497 0.962373
vt 0.150124 0.981226
vt 0.146005 0.947713
vt 0.159467 0.965325
vt 0.110365 0.980962
vt 0.150189 0.912769
vt 0.592729 0.802593
vt 0.585866 0.833292
vt 0.571583 0.796840
vt 0.603630 0.829673
vt 0.600109 0.856435
vt 0.582782 0.856435
vt 0.567139 0.836058
vt 0.084282 0.639354
vt 0.102682 0.561757
vt 0.118798 0.617425
vt 0.118882 0.714653
vt 0.127436 0.544160
vt 0.129537 0.587554
vt 0.075652 0.568945
vt 0.091584 0.538854
vt 0.105339 0.513728
vt 0.042641 0.557672
vt 0.047533 0.607630
vt 0.020819 0.569529
vt 0.065893 0.627001
vt 0.059981 0.508138
vt 0.031222 0.651430
vt 0.019048 0.612078
vt 0.022729 0.512748
vt 0.036792 0.484050
vt 0.038140 0.515552
vt 0.076584 0.511412
vt 0.089292 0.500137
vt 0.479606 0.438504
vt 0.449686 0.424510
vt 0.476077 0.401934
vt 0.408620 0.373855
vt 0.461432 0.456364
vt 0.445159 0.450255
vt 0.423603 0.445318
vt 0.400998 0.406075
vt 0.492726 0.408840
vt 0.493669 0.385385
vt 0.319352 0.374334
vt 0.336168 0.318473
vt 0.350365 0.323589
vt 0.305978 0.383009
vt 0.354218 0.349305
vt 0.272787 0.316688
vt 0.279251 0.334118
vt 0.273987 0.343531
vt 0.265503 0.332943
vt 0.339966 0.047635
vt 0.361326 0.044331
vt 0.330621 0.100380
vt 0.355874 0.034545
vt 0.357741 0.096407
vt 0.316336 0.083173
vt 0.610631 0.177550
vt 0.626183 0.234520
vt 0.635809 0.157605
vt 0.657569 0.140591
vt 0.627296 0.090150
vt 0.643300 0.046052
vt 0.647073 0.094207
vt 0.619348 0.030932
vt 0.637429 0.024710
vt 0.655315 0.078369
vt 0.406683 0.254086
vt 0.358831 0.298645
vt 0.417449 0.209885
vt 0.365127 0.205567
vt 0.381382 0.177496
vt 0.440874 0.235375
vt 0.442247 0.189089
vt 0.404849 0.152985
vt 0.454106 0.213279
vt 0.149254 0.569471
vt 0.122283 0.259011
vt 0.101462 0.331400
vt 0.101381 0.357827
vt 0.089099 0.194201
vt 0.560690 0.641912
vt 0.510161 0.695959
vt 0.587766 0.644494
vt 0.573019 0.671276
vt 0.590669 0.669010
vt 0.032857 0.450739
vt 0.019796 0.411735
vt 0.037481 0.396459
vt 0.084444 0.430797
vt 0.031060 0.468601
vt 0.018748 0.465599
vt 0.016098 0.447742
vt 0.056659 0.345757
vt 0.034082 0.318305
vt 0.126171 0.413464
vt 0.129296 0.449769
vt 0.139913 0.474470
vt 0.133051 0.390190
vt 0.089516 0.384576
vt 0.145033 0.366349
vt 0.156876 0.353095
vt 0.152103 0.397121
vt 0.144705 0.432665
vt 0.075109 0.809645
vt 0.034719 0.744901
vt 0.052589 0.678317
vt 0.055910 0.759027
vt 0.061912 0.869423
vt 0.020413 0.900570
vt 0.020824 0.869448
vt 0.037131 0.898563
vt 0.172797 0.325932
vt 0.179809 0.341090
vt 0.184198 0.316903
vt 0.195677 0.127827
vt 0.227115 0.148928
vt 0.233020 0.068021
vt 0.246344 0.132263
vt 0.239045 0.032775
vt 0.256024 0.063954
vt 0.257071 0.109317
vt 0.255871 0.027188
vt 0.198017 0.049177
vt 0.217301 0.095972
vt 0.185700 0.006205
vt 0.208559 0.012811
vt 0.279863 0.648757
vt 0.332926 0.621449
vt 0.466003 0.584357
vt 0.451485 0.599926
vt 0.474320 0.582349
vt 0.383018 0.372715
vt 0.392068 0.442626
vt 0.353749 0.393781
vt 0.377405 0.355555
vt 0.373784 0.457869
vt 0.374459 0.475040
vt 0.386744 0.458256
vt 0.353401 0.588565
vt 0.374649 0.583844
vt 0.384359 0.594716
vt 0.374896 0.528262
vt 0.392343 0.528601
vt 0.350639 0.506191
vt 0.365395 0.497151
vt 0.385126 0.499449
vt 0.328898 0.530676
vt 0.358291 0.538544
vt 0.402795 0.499671
vt 0.185412 0.672156
vt 0.224134 0.703751
vt 0.194533 0.705266
vt 0.227175 0.719919
vt 0.205516 0.728742
vt 0.220693 0.734116
vt 0.219767 0.586806
vt 0.226231 0.660698
vt 0.198096 0.646435
vt 0.188055 0.630980
vt 0.410512 0.581525
vt 0.416758 0.652688
vt 0.411001 0.663702
vt 0.404722 0.611757
vt 0.633626 0.485300
vt 0.619056 0.502451
vt 0.619191 0.526440
vt 0.606957 0.465486
vt 0.588528 0.528630
vt 0.603652 0.541846
vt 0.585038 0.561679
vt 0.559029 0.545933
vt 0.569346 0.559551
vt 0.544671 0.530417
vt 0.556483 0.473957
vt 0.520166 0.459498
vt 0.518328 0.427934
vt 0.539313 0.520350
vt 0.511626 0.386969
vt 0.532883 0.438461
vt 0.536364 0.394163
vt 0.514418 0.298624
vt 0.536277 0.252409
vt 0.531165 0.144576
vt 0.529980 0.199035
vt 0.520863 0.182366
vt 0.548872 0.156674
vt 0.523662 0.140375
vt 0.021077 0.320057
vt 0.012155 0.352159
vt 0.009417 0.285572
vt 0.020316 0.273574
vt 0.347315 0.176076
vt 0.329297 0.166672
vt 0.308400 0.227099
vt 0.316269 0.173869
vt 0.357772 0.139552
vt 0.332067 0.131688
vt 0.382956 0.124996
vt 0.388368 0.057977
vt 0.394065 0.006096
vt 0.418573 0.007719
vt 0.389262 0.023453
vt 0.476175 0.001328
vt 0.475008 0.016994
vt 0.452213 0.020449
vt 0.470875 0.107699
vt 0.496725 0.120200
vt 0.471695 0.170142
vt 0.488782 0.112708
vt 0.158281 0.852769
vt 0.166691 0.941398
vt 0.165820 0.892585
vt 0.172549 0.885773
vt 0.165864 0.971008
vt 0.166608 0.839591
vt 0.143912 0.838242
vt 0.024556 0.189829
vt 0.031437 0.246028
vt 0.012310 0.224386
vt 0.024818 0.025216
vt 0.032474 0.063694
vt 0.008700 0.067273
vt 0.022486 0.117002
vt 0.006513 0.115405
vt 0.430701 0.556407
vt 0.421461 0.498184
vt 0.440791 0.497803
vt 0.408164 0.545741
vt 0.406042 0.524124
vt 0.197638 0.575978
vt 0.228696 0.551263
vt 0.210378 0.525421
vt 0.228991 0.521567
vt 0.225380 0.491089
vt 0.239117 0.503943
vt 0.128995 0.001933
vt 0.321056 0.501663
vt 0.295844 0.537045
vt 0.289483 0.508838
vt 0.310551 0.606575
vt 0.270671 0.562727
vt 0.263296 0.515847
vt 0.274106 0.616488
vt 0.416246 0.363988
vt 0.503881 0.622413
vt 0.507407 0.797695
vt 0.437817 0.671001
vt 0.434539 0.710599
vt 0.442086 0.706939
vt 0.658459 0.278035
vt 0.609345 0.856435
vt 0.560040 0.851433
vt 0.060025 0.971997
vt 0.056413 0.939011
vt 0.073797 0.962814
vt 0.021862 0.482277
vt 0.479972 0.460825
vt 0.284804 0.361144
vt 0.333479 0.032933
vt 0.596930 0.699650
vt 0.587410 0.631058
vt 0.010703 0.461864
vt 0.047427 0.902896
vt 0.448309 0.573446
vt 0.233554 0.694408
vt 0.507801 0.347156
vt 0.006136 0.304162
vt 0.450222 0.004678
vt 0.003467 0.031677
vt 0.438386 0.522590
vt 0.184524 0.612146
vt 0.231517 0.578223
vn -0.4572 0.7736 -0.4387
vn -0.4421 0.6377 -0.6308
vn -0.5584 0.6790 -0.4766
vn -0.5628 0.7851 -0.2584
vn -0.6103 0.7209 -0.3284
vn -0.4261 0.7929 -0.4355
vn -0.3383 0.7563 -0.5600
vn -0.3057 0.6966 -0.6490
vn 0.4248 0.4701 -0.7737
vn 0.5146 0.3986 -0.7592
vn 0.4289 0.4670 -0.7732
vn 0.7239 0.4577 -0.5162
vn 0.7056 0.4320 -0.5617
vn 0.5204 0.3745 -0.7674
vn 0.7403 0.4471 -0.5020
vn 0.7159 0.4898 -0.4975
vn 0.7591 -0.5210 -0.3903
vn 0.6535 -0.4192 -0.6302
vn 0.8063 -0.2854 -0.5181
vn 0.5523 -0.6962 -0.4585
vn 0.4777 -0.5773 -0.6622
vn 0.9022 -0.2957 -0.3139
vn 0.4297 -0.7529 -0.4985
vn 0.3668 -0.3625 -0.8568
vn 0.4764 -0.2013 -0.8559
vn -0.1307 -0.7759 -0.6171
vn -0.4871 -0.8063 -0.3356
vn -0.5545 -0.7294 -0.4007
vn -0.4320 -0.8374 -0.3348
vn -0.4003 -0.7056 -0.5847
vn -0.2688 -0.5275 -0.8059
vn -0.1768 -0.5549 -0.8129
vn -0.1673 -0.5815 -0.7962
vn 0.4968 0.2298 -0.8369
vn 0.6058 0.3101 -0.7327
vn 0.1049 0.3804 -0.9188
vn 0.2116 0.3966 -0.8933
vn 0.3650 0.3323 -0.8697
vn -0.2278 0.3060 0.9244
vn -0.2576 0.5360 0.8039
vn -0.3201 0.2218 0.9211
vn -0.2229 0.0828 0.9713
vn -0.3736 -0.0708 0.9249
vn -0.9358 -0.3046 -0.1775
vn -0.8997 -0.3810 -0.2131
vn -0.9177 -0.3676 -0.1508
vn -0.8041 -0.4695 -0.3646
vn -0.7317 -0.5304 -0.4282
vn -0.8050 -0.4897 -0.3349
vn -0.9881 -0.1304 -0.0822
vn -0.9663 -0.2515 -0.0549
vn -0.9253 -0.0623 -0.3741
vn -0.7773 -0.0521 -0.6270
vn -0.5520 -0.1197 -0.8252
vn -0.7619 -0.2254 -0.6072
vn -0.6681 -0.3995 -0.6278
vn -0.4000 -0.3709 -0.8381
vn -0.6706 -0.6074 -0.4259
vn -0.8341 -0.1015 0.5421
vn -0.8992 -0.1079 0.4241
vn -0.8052 -0.1303 0.5785
vn -0.4911 0.6422 0.5886
vn -0.4582 0.8152 0.3544
vn -0.6366 0.6916 0.3413
vn -0.6971 0.4768 0.5355
vn -0.8339 0.2961 0.4658
vn -0.4741 0.8723 0.1197
vn -0.5871 0.8090 0.0297
vn -0.7311 0.6597 0.1743
vn -0.2007 0.5332 -0.8219
vn -0.2184 0.4862 -0.8461
vn -0.1894 0.5814 -0.7913
vn -0.1819 0.7013 -0.6893
vn -0.3711 0.7693 -0.5200
vn -0.3330 0.6907 -0.6419
vn -0.3583 0.6849 -0.6345
vn -0.2435 0.7531 0.6111
vn -0.2574 0.8797 0.3999
vn -0.3309 0.8327 0.4439
vn -0.3537 0.9124 0.2060
vn -0.2092 0.9669 0.1461
vn -0.3820 0.8049 0.4541
vn 0.4442 0.8411 0.3087
vn 0.6920 0.7118 -0.1202
vn 0.3697 0.6770 0.6364
vn 0.3314 0.7919 0.5129
vn 0.3054 0.7584 0.5759
vn 0.4989 0.7380 0.4543
vn 0.4032 0.7880 0.4653
vn 0.5567 0.6372 0.5330
vn 0.5421 0.7849 0.3003
vn 0.7652 0.4343 -0.4752
vn 0.7154 0.5626 -0.4143
vn 0.7002 0.6205 -0.3531
vn 0.7521 0.4162 -0.5110
vn 0.5417 0.1839 -0.8202
vn 0.7520 0.4723 -0.4598
vn 0.8021 0.5410 -0.2528
vn 0.8062 0.5492 -0.2198
vn 0.8443 0.5072 -0.1731
vn 0.8836 0.4282 -0.1897
vn 0.8529 0.4399 -0.2812
vn 0.8892 0.4329 -0.1480
vn 0.8478 0.4727 -0.2402
vn 0.7151 0.4347 -0.5475
vn 0.8983 0.3613 0.2499
vn 0.9249 0.3734 0.0713
vn 0.8002 0.5511 0.2366
vn 0.9833 0.0051 0.1818
vn 0.9540 0.2149 -0.2089
vn 0.6804 -0.4321 0.5919
vn 0.7457 -0.4563 0.4854
vn 0.7515 -0.3823 0.5377
vn 0.6573 -0.6373 0.4023
vn 0.8023 -0.5621 0.2008
vn 0.8852 -0.4080 0.2234
vn 0.8805 -0.4137 0.2315
vn 0.0384 -0.8844 -0.4652
vn 0.0778 -0.7135 -0.6963
vn 0.1188 -0.7739 -0.6221
vn 0.0945 -0.8799 -0.4657
vn 0.1739 -0.9076 -0.3821
vn 0.2131 -0.8471 -0.4868
vn 0.2247 -0.7950 -0.5635
vn 0.2170 -0.8277 -0.5176
vn -0.0356 -0.9272 0.3729
vn 0.0372 -0.9531 0.3003
vn 0.0078 -0.9052 0.4250
vn -0.0770 -0.9776 0.1960
vn 0.0529 -0.9914 0.1198
vn 0.1589 -0.9873 0.0015
vn 0.2536 -0.9649 -0.0687
vn 0.2756 -0.9606 0.0366
vn 0.3507 -0.9342 -0.0650
vn -0.4496 -0.6932 0.5633
vn -0.5072 -0.8299 0.2325
vn -0.3705 -0.8727 0.3179
vn -0.2712 -0.9026 0.3344
vn -0.2886 -0.8015 0.5237
vn -0.1570 -0.9281 0.3377
vn -0.1743 -0.8546 0.4892
vn 0.4032 -0.0646 -0.9128
vn 0.5718 -0.0644 -0.8179
vn 0.3984 -0.0799 -0.9137
vn -0.0774 -0.3438 -0.9358
vn -0.0802 -0.1551 -0.9846
vn 0.0014 -0.1939 -0.9810
vn 0.0083 -0.0368 -0.9993
vn -0.0832 0.5848 -0.8069
vn -0.0657 0.5121 -0.8564
vn -0.0655 0.5267 -0.8475
vn -0.0146 0.3339 -0.9425
vn -0.4314 0.0624 0.9000
vn -0.3748 -0.0196 0.9269
vn -0.2914 0.0659 0.9543
vn -0.3303 0.0511 0.9425
vn -0.0732 -0.0578 0.9956
vn -0.1448 0.0048 0.9894
vn -0.0929 -0.1688 0.9813
vn 0.1229 -0.0276 0.9920
vn 0.0701 0.0389 0.9968
vn 0.1071 -0.1194 0.9871
vn -0.0521 0.0778 0.9956
vn -0.2574 0.0587 0.9645
vn -0.2247 0.0117 0.9744
vn 0.0584 0.5311 0.8453
vn -0.1185 0.5581 0.8213
vn -0.1270 0.4611 0.8782
vn 0.0395 0.2701 0.9620
vn -0.0746 0.2908 0.9539
vn -0.1466 0.1744 0.9737
vn -0.2016 0.4335 0.8783
vn -0.2194 0.3328 0.9171
vn 0.2210 0.2993 0.9282
vn -0.9234 0.2786 -0.2639
vn -0.6088 0.5762 -0.5453
vn -0.6477 0.5618 -0.5147
vn -0.5263 0.3984 -0.7512
vn -0.6290 0.3527 -0.6928
vn -0.6983 0.3402 -0.6299
vn -0.8593 0.4254 -0.2838
vn -0.6995 0.5857 -0.4094
vn -0.4261 0.5300 -0.7331
vn -0.9933 -0.0440 0.1068
vn -0.9961 0.0024 0.0879
vn -0.9891 -0.0824 0.1222
vn -0.9538 0.2592 0.1520
vn -0.9243 0.3708 -0.0901
vn -0.9972 -0.0571 -0.0481
vn -0.9941 0.0854 -0.0665
vn -0.0946 0.6050 -0.7906
vn -0.0134 0.5405 -0.8412
vn -0.1124 0.4679 -0.8766
vn -0.0188 0.3614 -0.9322
vn -0.1264 0.4264 -0.8957
vn 0.2185 0.4321 -0.8750
vn 0.0503 0.3946 -0.9175
vn 0.1674 0.8044 -0.5700
vn 0.2075 0.7392 -0.6407
vn 0.1064 0.7336 -0.6713
vn 0.2745 0.4860 -0.8297
vn 0.2843 0.4214 -0.8611
vn -0.0314 0.9986 0.0419
vn 0.0011 0.9736 -0.2282
vn 0.1454 0.9531 -0.2653
vn -0.1429 0.9503 -0.2765
vn -0.0103 0.9547 -0.2973
vn -0.1839 0.8822 -0.4335
vn -0.0974 0.9817 0.1636
vn -0.1060 0.9258 0.3629
vn 0.1119 0.9892 0.0950
vn 0.3561 0.9285 0.1050
vn 0.3653 0.9215 -0.1321
vn 0.3374 0.7879 -0.5152
vn 0.4386 0.6780 -0.5899
vn 0.6079 0.7581 -0.2363
vn 0.7043 0.5522 -0.4460
vn 0.7960 0.3909 -0.4622
vn 0.5649 0.8250 0.0141
vn 0.6834 0.7048 -0.1905
vn 0.7405 0.3200 -0.5909
vn 0.6333 0.6123 -0.4732
vn 0.6169 0.6157 -0.4903
vn 0.5697 0.6248 -0.5339
vn 0.3540 0.8493 -0.3916
vn 0.4789 0.7297 -0.4880
vn 0.4772 0.8346 -0.2754
vn 0.8570 0.0801 -0.5090
vn 0.7744 -0.1103 -0.6230
vn 0.7827 0.0593 -0.6195
vn 0.6779 0.1478 -0.7201
vn 0.5657 -0.3502 -0.7465
vn 0.9357 -0.2543 -0.2445
vn 0.9116 -0.1649 -0.3765
vn 0.9496 -0.0791 -0.3034
vn 0.8273 0.2821 -0.4858
vn 0.8443 0.1841 -0.5033
vn 0.6736 0.4704 -0.5701
vn 0.5810 -0.7751 -0.2483
vn 0.7971 -0.5642 -0.2154
vn 0.8457 -0.5142 0.1427
vn 0.7180 -0.6921 0.0740
vn 0.8362 -0.5458 0.0533
vn -0.0164 -0.7359 -0.6768
vn -0.0249 -0.5632 -0.8259
vn 0.0127 -0.6571 -0.7537
vn -0.0650 -0.6382 -0.7671
vn -0.0020 -0.5089 -0.8608
vn 0.0005 -0.8420 -0.5395
vn -0.1950 -0.9580 0.2104
vn -0.1409 -0.9900 0.0107
vn -0.1318 -0.9659 -0.2230
vn -0.1759 -0.9640 -0.1995
vn -0.1050 -0.9658 -0.2369
vn -0.3000 -0.9533 -0.0361
vn -0.2233 -0.9738 0.0438
vn -0.2196 -0.9736 0.0630
vn 0.0167 -0.9311 -0.3645
vn 0.0526 -0.9591 -0.2783
vn 0.1129 -0.9568 -0.2679
vn 0.1047 -0.9770 -0.1859
vn -0.4013 -0.9135 -0.0675
vn -0.3206 -0.9455 -0.0565
vn -0.6014 -0.7835 -0.1562
vn -0.7021 -0.6557 -0.2777
vn -0.6038 -0.7495 -0.2716
vn -0.3068 -0.8995 -0.3111
vn -0.2628 -0.9014 -0.3441
vn 0.4095 0.1244 -0.9038
vn 0.4303 0.1007 -0.8971
vn 0.1779 -0.0390 -0.9833
vn 0.2524 -0.1417 -0.9572
vn 0.1426 -0.1581 -0.9771
vn 0.2320 0.1252 -0.9646
vn 0.2875 -0.0050 -0.9578
vn 0.3197 0.1799 -0.9303
vn 0.0647 0.0763 -0.9950
vn 0.0645 -0.1199 -0.9907
vn 0.1135 0.1182 -0.9865
vn -0.3179 -0.0325 0.9476
vn -0.3127 -0.0187 0.9497
vn -0.2953 -0.0428 0.9545
vn -0.3111 -0.0918 0.9459
vn -0.4384 -0.0878 0.8945
vn -0.3210 0.0478 0.9459
vn -0.4518 -0.5000 -0.7388
vn -0.3060 -0.4522 -0.8378
vn -0.8340 -0.5491 0.0547
vn -0.8721 -0.4489 -0.1948
vn -0.9054 -0.3324 -0.2641
vn -0.9566 -0.2587 -0.1344
vn -0.6965 -0.2315 0.6792
vn -0.8774 -0.1921 0.4396
vn -0.6162 -0.1910 0.7641
vn -0.7093 -0.0958 0.6984
vn -0.9045 -0.2642 0.3349
vn -0.8893 -0.4565 -0.0278
vn -0.8047 -0.5240 0.2790
vn -0.5326 -0.0753 0.8430
vn -0.4820 -0.2108 0.8504
vn -0.3133 0.0382 0.9489
vn -0.5276 0.0455 0.8483
vn -0.6939 -0.0654 0.7171
vn -0.8347 -0.0572 0.5477
vn -0.9330 -0.0207 0.3594
vn -0.5682 -0.0863 0.8184
vn -0.5940 -0.0919 0.7992
vn -0.4974 -0.0452 0.8664
vn -0.4482 0.4405 0.7779
vn -0.4512 0.2029 0.8691
vn -0.5664 0.4639 0.6811
vn -0.6764 0.1191 0.7269
vn -0.6250 0.1444 0.7671
vn -0.3008 0.6884 -0.6600
vn -0.4467 0.8497 -0.2802
vn -0.2841 0.9558 -0.0758
vn -0.3923 0.9189 -0.0424
vn -0.3193 0.8881 -0.3305
vn -0.2586 0.7815 -0.5678
vn -0.4715 0.8749 -0.1107
vn -0.3503 0.6916 0.6317
vn -0.1772 0.6573 0.7325
vn -0.1483 0.8191 0.5541
vn -0.0392 0.8509 0.5239
vn 0.2038 0.8520 0.4823
vn 0.1876 0.8919 0.4114
vn 0.1780 0.8445 0.5051
vn 0.0471 0.9314 0.3610
vn 0.2861 0.9071 0.3087
vn -0.1170 0.6588 0.7431
vn -0.1087 0.7068 0.6990
vn 0.0022 0.6247 0.7809
vn 0.2366 0.5200 0.8208
vn 0.1515 0.7668 0.6237
vn 0.1290 0.7570 0.6405
vn -0.0472 0.7961 0.6034
vn 0.4791 0.5439 0.6890
vn 0.8045 0.4673 -0.3666
vn 0.8423 0.4450 -0.3041
vn 0.8777 0.4017 -0.2612
vn 0.7216 0.4231 -0.5480
vn 0.7293 0.3750 -0.5722
vn 0.6545 0.5227 -0.5463
vn 0.8212 0.4635 -0.3329
vn 0.7338 0.6541 -0.1835
vn 0.5187 0.3971 0.7571
vn 0.7690 0.4354 0.4680
vn 0.7097 0.6633 0.2372
vn 0.6019 0.3597 0.7130
vn 0.7249 0.2330 0.6483
vn 0.6819 0.7092 0.1788
vn 0.6216 -0.1749 0.7636
vn 0.5945 -0.2327 0.7697
vn 0.8014 -0.0743 0.5935
vn 0.7575 -0.1764 0.6285
vn 0.8700 -0.0224 0.4925
vn 0.4007 0.0471 0.9150
vn 0.4760 0.0585 0.8775
vn 0.5063 0.1297 0.8525
vn 0.8465 -0.3738 0.3791
vn 0.8838 -0.3409 0.3203
vn 0.9433 -0.0923 0.3188
vn 0.7618 -0.4597 0.4565
vn 0.9515 -0.3040 0.0466
vn 0.9524 -0.3030 0.0337
vn 0.5425 -0.5427 0.6412
vn 0.6572 -0.5246 0.5411
vn 0.6157 -0.5674 0.5468
vn 0.6172 -0.4526 0.6436
vn 0.5758 -0.4207 0.7010
vn 0.6475 -0.3844 0.6580
vn 0.3531 -0.7513 -0.5576
vn 0.4068 -0.6750 -0.6155
vn 0.2942 -0.9186 -0.2640
vn 0.3345 -0.8390 -0.4292
vn 0.3472 -0.9095 -0.2287
vn 0.3763 -0.8492 -0.3704
vn 0.4445 -0.8774 -0.1804
vn 0.1819 -0.9362 -0.3006
vn 0.4512 -0.8846 0.1178
vn 0.4916 -0.7770 0.3932
vn 0.5475 -0.5508 0.6300
vn 0.6216 -0.3651 0.6931
vn 0.5994 -0.4280 0.6765
vn 0.3954 -0.5970 0.6980
vn 0.3879 -0.6047 0.6957
vn 0.3414 -0.7612 0.5514
vn 0.3358 -0.8709 0.3589
vn 0.2450 -0.8853 0.3952
vn 0.3675 -0.9103 0.1905
vn 0.2721 -0.6423 0.7165
vn 0.1029 -0.8204 0.5625
vn -0.0376 -0.6946 0.7184
vn -0.0676 -0.8511 0.5206
vn 0.1630 -0.9603 0.2264
vn 0.2075 -0.9411 0.2670
vn -0.2960 -0.9453 0.1370
vn -0.1985 -0.6765 0.7092
vn -0.1325 -0.7556 0.6415
vn -0.1604 -0.6561 0.7374
vn -0.1989 -0.7520 0.6284
vn -0.2678 -0.4839 0.8331
vn -0.3831 -0.5955 0.7061
vn -0.4727 -0.4942 0.7296
vn -0.4851 -0.3137 0.8163
vn -0.4238 -0.2238 0.8777
vn -0.6147 -0.2660 0.7425
vn -0.5217 -0.2995 0.7988
vn 0.2056 -0.3336 -0.9200
vn 0.1972 -0.4699 -0.8604
vn 0.3343 -0.5156 -0.7889
vn 0.2880 -0.1311 -0.9486
vn 0.2557 -0.2257 -0.9401
vn 0.0540 -0.3579 -0.9322
vn 0.0555 -0.4847 -0.8729
vn 0.1592 -0.6180 -0.7699
vn 0.0348 -0.2618 -0.9645
vn 0.1549 -0.2105 -0.9652
vn 0.1127 -0.2317 -0.9662
vn -0.0182 -0.3975 -0.9174
vn -0.0888 -0.4399 -0.8936
vn -0.3038 0.0655 -0.9505
vn -0.1982 -0.2362 -0.9513
vn -0.0278 0.1134 -0.9932
vn -0.1148 0.3140 -0.9425
vn -0.2129 0.2731 -0.9381
vn -0.1156 -0.0082 -0.9933
vn -0.5660 0.1087 -0.8172
vn -0.4026 0.3097 -0.8614
vn -0.0622 0.1301 -0.9896
vn -0.2151 0.6957 -0.6854
vn -0.2068 -0.3017 0.9307
vn -0.2804 -0.1447 0.9489
vn -0.3181 -0.2140 0.9236
vn -0.2466 -0.3400 0.9075
vn 0.1863 -0.2516 0.9497
vn 0.0843 -0.2662 0.9602
vn 0.1062 -0.5473 0.8302
vn -0.0389 -0.4342 0.9000
vn 0.0074 -0.1278 0.9918
vn -0.0876 -0.2253 0.9703
vn -0.1171 -0.4213 0.8993
vn 0.4861 -0.3719 0.7908
vn 0.3753 -0.4275 0.8224
vn 0.4203 -0.2992 0.8566
vn 0.4445 -0.4392 0.7807
vn 0.4730 -0.4411 0.7627
vn 0.4268 -0.2849 0.8583
vn 0.2521 -0.0539 0.9662
vn 0.2212 -0.1113 0.9689
vn 0.2481 -0.2017 0.9475
vn 0.2506 -0.1990 0.9474
vn 0.2145 0.1073 0.9708
vn -0.2335 0.1443 0.9616
vn 0.3708 -0.0372 0.9280
vn 0.3094 0.0745 0.9480
vn 0.3503 0.1908 0.9170
vn 0.3850 0.3745 0.8435
vn 0.6082 0.4714 -0.6386
vn 0.5475 0.4773 -0.6874
vn 0.5152 -0.4122 -0.7515
vn -0.2122 -0.8075 -0.5504
vn -0.2853 -0.7118 -0.6418
vn -0.0842 -0.5617 -0.8231
vn 0.2593 0.2720 -0.9267
vn -0.9119 -0.3224 -0.2540
vn -0.8605 -0.4424 -0.2527
vn -0.7339 0.0191 -0.6789
vn -0.5970 0.5108 0.6186
vn -0.7710 0.1487 0.6193
vn -0.6930 0.3088 0.6514
vn -0.1957 0.5860 -0.7863
vn -0.1158 0.4179 -0.9011
vn -0.1613 0.3803 -0.9107
vn -0.2372 0.5266 -0.8163
vn 0.6166 0.7796 0.1092
vn 0.4635 0.8050 0.3704
vn 0.5887 0.7784 0.2178
vn 0.7265 0.4436 -0.5249
vn 0.6565 0.4064 -0.6354
vn 0.9199 0.3212 -0.2250
vn 0.9986 -0.0185 0.0487
vn 0.7392 0.5162 -0.4325
vn 0.6400 -0.6441 0.4188
vn 0.6514 -0.7192 0.2419
vn 0.7176 -0.6850 0.1260
vn 0.2056 -0.8700 -0.4482
vn 0.1480 -0.6814 -0.7168
vn 0.1686 -0.9679 0.1866
vn 0.0712 -0.9913 0.1107
vn -0.4611 -0.7044 0.5397
vn -0.5795 -0.8116 0.0741
vn 0.2947 -0.0709 -0.9530
vn 0.3361 -0.2505 -0.9079
vn 0.4568 0.0043 -0.8896
vn 0.1986 -0.1963 0.9602
vn -0.1567 -0.0267 0.9873
vn -0.9214 0.2765 -0.2730
vn -0.7403 0.3904 -0.5473
vn -0.9685 -0.0637 0.2408
vn -0.9894 0.0222 0.1434
vn -0.9934 0.0828 -0.0790
vn -0.9454 0.2637 0.1917
vn -0.9301 0.3673 -0.0094
vn -0.8613 0.4598 -0.2163
vn -0.6661 0.7439 -0.0540
vn -0.6407 0.7096 -0.2932
vn -0.0024 0.7147 -0.6994
vn 0.3304 0.5346 -0.7778
vn -0.1353 0.9901 0.0377
vn 0.1493 0.9867 0.0647
vn 0.1915 0.9647 -0.1808
vn 0.0058 0.9711 -0.2387
vn 0.3226 0.9455 0.0450
vn 0.6243 0.7643 -0.1618
vn 0.7237 0.5628 -0.3995
vn 0.7293 0.5507 -0.4061
vn 0.6716 0.6015 -0.4326
vn 0.5229 0.8504 0.0590
vn 0.7172 0.3249 -0.6165
vn 0.7934 0.3562 -0.4936
vn 0.9361 0.0798 -0.3427
vn 0.9360 -0.3503 -0.0353
vn 0.5481 -0.8319 -0.0866
vn -0.0366 -0.8843 -0.4655
vn -0.1406 -0.9900 0.0113
vn -0.0445 -0.9345 -0.3533
vn -0.2689 -0.9535 0.1362
vn -0.3840 -0.9187 -0.0925
vn -0.3400 -0.9354 0.0969
vn -0.2029 -0.9616 -0.1848
vn 0.5347 0.1832 -0.8250
vn 0.3956 0.0253 -0.9181
vn -0.9484 -0.2778 -0.1529
vn -0.9788 -0.2027 0.0309
vn -0.6382 -0.7698 0.0044
vn -0.6411 -0.7554 -0.1354
vn -0.9832 -0.1204 0.1374
vn -0.9832 -0.1203 0.1373
vn -0.6789 -0.4428 0.5857
vn -0.7925 -0.5670 0.2247
vn -0.3584 0.0256 0.9332
vn -0.5716 0.2993 0.7640
vn -0.4155 0.0605 0.9076
vn -0.4319 0.7954 -0.4252
vn -0.0003 0.8109 0.5851
vn 0.0534 0.9202 0.3878
vn 0.0293 0.7887 0.6141
vn 0.1498 0.7103 0.6878
vn 0.7582 0.3345 -0.5597
vn 0.7649 0.6311 -0.1294
vn 0.7329 0.5650 -0.3789
vn 0.6257 0.4630 0.6278
vn 0.5797 0.2268 0.7826
vn 0.8745 -0.4324 0.2199
vn 0.3489 -0.7598 -0.5486
vn -0.0171 -0.9997 -0.0196
vn 0.4466 -0.8839 0.1388
vn 0.3709 -0.9145 0.1614
vn 0.5186 -0.6453 0.5609
vn 0.4860 -0.7706 0.4123
vn 0.1143 -0.9277 0.3553
vn -0.2964 -0.7636 0.5736
vn -0.3808 -0.4871 0.7859
vn 0.3024 -0.4684 -0.8301
vn -0.2631 0.3550 -0.8971
vn -0.0467 0.0038 -0.9989
vn -0.2162 0.4539 -0.8644
vn -0.1577 0.5639 -0.8106
vn -0.1914 0.7544 -0.6279
vn -0.1145 -0.4630 0.8789
vn -0.1942 -0.1787 0.9646
vn -0.1536 -0.1942 0.9689
vn 0.5056 -0.3866 0.7713
vn 0.4210 -0.4175 0.8053
vn 0.3314 -0.3021 0.8938
vn 0.4710 -0.2796 0.8367
vn 0.4642 0.2684 0.8441
vn 0.4753 0.2624 0.8398
usemtl Material.004
s 1
f 3/1/1 4/2/2 1/3/3
f 2/4/4 1/3/3 5/5/5
f 6/6/6 3/1/1 2/4/4
f 6/6/6 203/7/7 3/1/1
f 3/1/1 7/8/8 4/2/2
f 8/9/9 13/10/10 9/11/11
f 13/10/12 28/12/13 27/13/14
f 157/14/15 13/10/12 10/15/16
f 15/16/17 17/17/18 20/18/19
f 16/19/20 18/20/21 17/17/18
f 162/21/22 15/16/17 20/18/19
f 243/22/23 18/20/21 16/19/20
f 18/20/21 273/23/24 19/24/25
f 21/25/26 23/26/26 166/27/26
f 174/28/27 24/29/28 22/30/29
f 22/30/30 24/29/30 186/31/30
f 186/31/31 280/32/32 23/26/33
f 27/13/14 28/12/13 26/33/34
f 26/33/34 28/12/13 77/34/35
f 178/35/36 14/36/37 25/37/38
f 183/38/39 31/39/40 32/40/41
f 30/41/42 32/40/41 33/42/43
f 34/43/44 185/44/45 191/45/46
f 36/46/47 184/47/48 185/44/49
f 35/48/50 34/43/44 192/49/51
f 35/48/52 39/50/52 36/46/52
f 39/50/53 38/51/54 36/46/55
f 37/52/56 38/51/54 41/53/57
f 184/47/48 37/52/56 24/29/58
f 43/54/59 44/55/60 193/56/61
f 47/57/62 48/58/63 50/59/64
f 46/60/65 50/59/64 49/61/66
f 50/59/64 51/62/67 52/63/68
f 50/59/64 52/63/68 137/64/69
f 54/65/70 55/66/70 56/67/70
f 56/67/71 57/68/72 204/69/73
f 209/70/74 54/65/75 59/71/76
f 60/72/77 62/73/78 61/74/79
f 61/74/79 62/73/78 63/75/80
f 62/73/78 144/76/81 63/75/80
f 210/77/82 61/74/79 48/78/63
f 65/79/83 67/80/83 68/81/83
f 66/82/84 70/83/84 69/84/84
f 218/85/85 65/79/86 217/86/87
f 220/87/88 65/79/89 218/85/85
f 221/88/90 67/80/91 220/87/88
f 74/89/92 73/90/93 72/91/94
f 74/89/92 75/92/95 73/90/93
f 75/92/96 106/93/96 77/94/96
f 73/90/97 76/95/98 72/91/99
f 226/96/100 79/97/101 78/98/102
f 78/98/102 79/97/103 80/99/104
f 78/98/102 80/99/104 223/100/105
f 231/101/106 79/97/107 226/96/108
f 236/102/109 79/97/109 231/101/109
f 81/103/110 164/104/110 79/97/110
f 83/105/111 85/106/112 82/107/113
f 83/105/111 252/108/114 85/106/112
f 85/106/115 238/109/116 237/110/117
f 89/111/118 91/112/119 88/113/120
f 250/114/121 88/113/120 251/115/122
f 89/111/118 88/113/120 250/114/121
f 88/113/123 245/116/124 244/117/125
f 94/118/126 93/119/127 259/120/128
f 96/121/129 97/122/130 93/119/127
f 95/123/131 98/124/132 92/125/133
f 92/125/133 98/124/132 248/126/134
f 100/127/135 99/128/135 269/129/135
f 101/130/136 102/131/137 99/128/138
f 269/129/139 99/128/139 266/132/139
f 99/128/138 263/133/140 266/132/141
f 105/134/142 159/135/143 104/136/144
f 281/137/145 284/138/146 107/139/147
f 284/138/146 109/140/148 107/139/147
f 57/68/149 111/141/150 110/142/151
f 111/141/150 112/143/152 110/142/151
f 113/144/153 289/145/154 294/146/155
f 114/147/156 113/144/153 294/146/155
f 117/148/157 119/149/158 118/150/159
f 116/151/160 120/152/161 115/153/162
f 120/152/161 305/154/163 117/148/157
f 119/149/158 121/155/164 292/156/165
f 123/157/166 125/158/167 124/159/168
f 122/160/169 124/159/170 126/161/171
f 124/159/168 182/162/172 181/163/173
f 127/164/174 123/157/166 122/160/169
f 35/165/175 129/166/175 39/167/175
f 1/3/3 131/168/176 129/166/177
f 131/168/178 40/169/179 39/167/180
f 130/170/181 5/5/181 129/166/181
f 1/3/182 129/166/182 5/5/182
f 4/2/2 132/171/183 131/168/178
f 133/172/184 134/173/185 136/174/186
f 135/175/187 137/176/187 134/173/187
f 134/173/188 138/177/188 130/178/188
f 136/174/189 130/178/190 35/48/50
f 139/179/191 140/180/192 55/66/193
f 55/66/193 142/181/194 58/182/195
f 140/180/196 14/183/37 143/184/197
f 152/185/198 141/186/199 140/180/200
f 141/186/201 9/187/202 140/180/196
f 146/188/203 149/189/203 145/190/203
f 149/189/204 146/188/204 151/191/204
f 146/188/205 150/192/205 152/185/205
f 151/191/206 152/185/207 139/179/208
f 145/190/209 144/193/81 215/194/210
f 145/190/211 148/195/211 146/188/211
f 148/195/212 154/196/212 147/197/212
f 147/197/213 154/196/213 150/192/213
f 153/198/214 8/199/215 141/186/199
f 154/200/216 155/201/216 156/202/216
f 155/201/217 157/14/15 10/15/16
f 157/14/15 12/203/218 13/10/12
f 67/204/219 69/205/219 154/200/219
f 69/205/220 70/206/220 155/201/220
f 157/14/15 222/207/221 12/203/218
f 156/202/222 10/15/223 8/9/224
f 150/208/225 156/202/226 153/209/214
f 154/200/227 156/202/227 150/208/227
f 160/210/228 20/18/229 158/211/230
f 158/211/230 159/135/143 75/212/231
f 160/210/228 158/211/230 75/212/231
f 17/17/18 19/24/232 20/18/19
f 161/213/233 162/21/22 160/210/234
f 161/213/235 160/210/235 81/103/235
f 164/104/236 160/210/237 74/214/238
f 165/215/239 15/16/17 163/216/240
f 86/217/241 87/218/242 163/216/243
f 166/219/244 167/220/245 90/221/246
f 166/219/244 23/222/247 167/220/245
f 90/221/246 167/220/245 274/223/248
f 166/219/244 90/221/246 89/224/249
f 169/225/250 168/226/251 96/121/129
f 170/227/252 21/228/253 168/226/254
f 171/229/255 170/227/256 169/225/257
f 168/226/258 89/111/118 250/114/121
f 168/226/259 250/114/260 97/122/261
f 171/229/255 174/230/262 173/231/263
f 172/232/264 190/233/265 174/230/266
f 173/231/267 22/234/29 21/228/268
f 175/235/269 26/33/34 106/236/270
f 177/237/271 103/238/272 277/239/273
f 177/237/271 29/240/274 175/235/275
f 29/240/274 25/37/276 175/235/275
f 176/241/277 276/242/278 109/140/148
f 176/241/277 177/237/271 276/242/278
f 178/243/279 29/240/274 176/241/277
f 109/140/148 276/242/278 107/139/147
f 112/143/152 143/184/197 178/244/36
f 143/184/197 14/183/37 178/244/36
f 180/245/280 30/41/281 179/246/282
f 179/246/283 33/42/43 196/247/284
f 121/155/164 180/245/280 295/248/285
f 121/155/164 30/41/281 180/245/280
f 295/248/285 180/245/280 114/147/156
f 181/163/173 182/162/172 183/38/39
f 182/162/172 125/158/167 183/38/39
f 190/249/265 184/47/48 24/29/58
f 24/29/286 41/53/57 279/250/287
f 24/29/286 279/250/287 186/31/31
f 187/251/288 189/252/289 190/249/265
f 191/45/46 185/44/45 189/252/290
f 192/49/291 191/45/291 188/253/291
f 193/56/292 194/254/292 100/255/292
f 193/56/61 44/55/60 194/254/293
f 195/256/294 42/257/295 193/56/61
f 44/55/296 188/258/296 194/254/296
f 188/258/297 187/259/288 101/260/298
f 290/261/299 195/256/294 270/262/300
f 179/246/301 290/261/302 113/144/153
f 198/263/303 199/264/304 42/257/295
f 199/264/304 43/54/59 42/257/295
f 199/264/304 135/265/305 43/54/59
f 199/264/304 49/61/66 135/265/305
f 33/42/43 200/266/306 196/247/284
f 200/266/306 198/263/303 197/267/307
f 33/42/43 201/268/308 200/266/306
f 32/40/41 202/269/309 201/268/310
f 202/269/309 47/57/62 45/270/311
f 200/266/312 45/270/312 53/271/312
f 201/268/313 45/270/313 200/266/313
f 54/65/75 204/69/314 59/71/76
f 207/272/315 6/6/6 2/4/4
f 63/273/80 208/274/316 206/275/317
f 208/274/316 151/191/206 209/70/318
f 209/70/318 139/179/208 54/65/319
f 206/275/317 207/272/315 205/276/320
f 47/277/62 210/278/82 48/279/63
f 211/280/321 210/281/82 47/57/62
f 32/40/41 31/39/40 202/269/309
f 211/280/321 60/72/77 61/282/79
f 202/269/309 211/280/321 47/57/62
f 31/39/40 60/72/77 211/280/321
f 212/283/322 64/284/323 60/72/77
f 214/285/324 215/286/210 64/284/323
f 65/287/325 148/288/326 214/285/327
f 148/288/328 145/289/328 215/286/328
f 68/290/329 148/288/329 65/287/329
f 215/286/210 144/76/81 62/73/78
f 125/158/167 216/291/330 212/283/322
f 212/283/331 216/291/331 213/292/331
f 123/157/166 216/291/332 125/158/167
f 128/293/333 216/291/332 123/157/166
f 217/294/334 214/285/327 216/291/335
f 212/283/322 213/292/336 64/284/323
f 218/85/85 217/86/87 128/295/333
f 221/88/90 220/87/88 219/296/337
f 72/91/338 11/297/339 12/298/218
f 11/297/339 76/95/340 28/299/13
f 222/207/221 224/300/341 12/203/218
f 71/301/342 223/100/105 222/207/221
f 225/302/343 74/214/238 224/300/341
f 224/300/341 74/214/238 72/303/338
f 223/100/105 225/302/343 224/300/341
f 226/96/100 78/98/102 227/304/344
f 227/304/344 223/100/105 71/301/342
f 66/305/345 227/304/345 70/306/345
f 228/307/346 221/88/90 219/296/337
f 229/308/347 226/309/108 221/88/348
f 228/307/349 233/310/350 229/308/347
f 229/308/347 231/311/106 226/309/108
f 221/88/348 226/309/108 66/82/351
f 232/312/352 234/313/353 233/310/350
f 233/310/354 235/314/355 231/311/356
f 307/315/357 232/312/358 230/316/359
f 235/314/360 236/317/361 231/311/362
f 235/318/360 237/319/363 236/320/361
f 238/321/364 81/322/364 236/320/364
f 238/321/365 161/323/365 81/322/365
f 239/324/366 241/325/367 240/326/368
f 234/327/369 240/326/368 235/318/355
f 240/326/368 241/325/367 237/319/363
f 234/327/369 239/324/366 240/326/368
f 300/328/370 242/329/371 241/330/367
f 242/329/371 82/107/113 241/330/367
f 239/331/366 300/328/370 241/330/367
f 245/116/372 246/332/373 243/333/23
f 246/332/373 18/334/21 243/333/23
f 251/115/374 244/117/375 249/335/376
f 98/124/132 249/335/376 248/126/134
f 249/335/376 243/333/377 247/336/378
f 247/336/378 16/337/20 165/338/239
f 97/122/261 250/114/260 98/124/132
f 250/114/121 251/115/122 98/124/379
f 98/124/132 251/115/374 249/335/376
f 252/339/380 248/126/380 87/340/380
f 84/341/381 253/342/381 252/339/381
f 254/343/382 255/344/382 84/341/382
f 254/343/383 84/341/384 83/345/111
f 255/344/385 257/346/386 256/347/387
f 256/347/388 258/348/389 253/342/390
f 257/346/391 259/120/392 258/348/389
f 260/349/393 261/350/394 259/120/392
f 258/348/389 93/119/395 92/125/396
f 266/132/141 94/118/126 261/350/394
f 102/131/397 169/225/250 263/133/140
f 265/351/398 264/352/399 262/353/400
f 265/351/401 266/354/141 264/352/399
f 264/352/399 266/132/141 261/350/394
f 267/355/402 265/351/402 262/353/402
f 268/356/403 269/357/403 265/358/403
f 100/255/404 269/357/404 268/356/404
f 270/262/300 268/356/405 267/359/406
f 195/256/294 100/255/407 268/356/408
f 272/360/409 273/23/24 271/361/410
f 273/23/411 246/362/411 245/363/411
f 103/238/272 104/136/412 272/360/413
f 275/364/414 271/361/410 91/365/415
f 91/365/415 271/361/410 245/363/416
f 276/242/278 277/239/273 108/366/417
f 277/239/273 272/360/418 275/364/419
f 278/367/420 274/223/248 167/220/245
f 278/367/420 275/364/414 274/223/248
f 186/368/31 279/369/287 280/370/32
f 280/370/421 278/367/420 167/220/245
f 280/370/421 281/137/145 278/367/420
f 38/371/54 282/372/422 283/373/423
f 283/373/423 284/138/146 281/137/145
f 285/374/424 109/140/148 284/138/146
f 110/375/151 112/376/152 286/377/425
f 112/376/152 176/241/277 285/374/424
f 285/374/424 176/241/277 109/140/148
f 132/171/426 286/378/426 282/379/426
f 287/380/427 284/381/146 282/379/422
f 40/169/428 282/379/422 38/382/54
f 132/171/429 282/379/422 40/169/428
f 286/378/425 285/383/424 287/380/430
f 203/7/7 204/69/314 7/8/8
f 7/8/8 288/384/431 132/171/183
f 289/145/154 270/262/300 267/359/406
f 113/144/153 290/261/299 289/145/154
f 291/385/432 293/386/432 262/387/432
f 293/386/433 267/359/434 262/387/435
f 292/156/165 295/248/285 294/146/155
f 297/388/436 298/389/437 296/390/438
f 296/390/438 299/391/439 260/392/393
f 297/388/436 115/153/162 298/389/437
f 298/389/437 117/148/440 299/391/439
f 299/391/441 118/150/159 291/385/442
f 260/392/393 299/391/439 262/387/400
f 242/329/371 300/328/370 254/393/383
f 254/393/443 297/394/444 257/395/391
f 301/396/445 303/397/445 297/394/445
f 234/327/446 302/398/446 239/324/446
f 239/324/447 302/398/447 301/399/447
f 301/399/448 304/400/448 303/401/448
f 304/400/449 116/402/450 303/401/451
f 303/401/452 116/402/452 297/403/452
f 120/152/161 122/160/169 305/154/163
f 305/154/163 126/161/171 119/149/158
f 306/404/453 122/160/169 120/152/161
f 126/161/171 181/163/454 121/155/164
f 232/312/358 307/315/357 302/405/455
f 302/405/455 308/406/456 304/407/449
f 309/408/457 308/406/456 307/315/357
f 309/408/458 306/409/453 308/406/456
f 304/407/449 306/409/453 116/410/450
f 309/408/458 128/295/333 127/411/174
f 219/296/337 309/408/458 228/307/346
f 309/408/458 218/85/85 128/295/333
f 2/4/4 3/1/1 1/3/3
f 3/1/1 203/7/7 7/8/8
f 13/10/12 12/203/218 11/412/339
f 8/9/459 10/15/459 13/10/459
f 13/10/460 27/13/460 9/11/460
f 13/10/12 11/412/339 28/12/13
f 9/11/202 25/37/38 14/36/37
f 15/16/17 16/19/20 17/17/18
f 17/17/18 18/20/461 19/24/232
f 21/25/462 22/30/462 23/26/462
f 23/26/463 22/30/463 186/31/463
f 174/28/266 190/249/265 24/29/58
f 167/413/464 23/26/464 280/32/464
f 26/33/34 25/37/38 27/13/14
f 25/37/38 9/11/202 27/13/14
f 29/240/274 178/35/465 25/37/276
f 30/41/42 183/38/39 32/40/41
f 34/43/44 36/46/466 185/44/467
f 34/43/44 35/48/50 36/46/466
f 184/47/48 36/46/55 37/52/56
f 37/52/56 36/46/55 38/51/54
f 39/50/468 40/414/428 38/51/54
f 24/29/286 37/52/56 41/53/57
f 193/56/61 42/257/295 43/54/59
f 43/54/59 135/265/305 44/55/60
f 45/270/469 47/57/469 46/60/469
f 46/60/65 47/57/62 50/59/64
f 50/59/64 48/58/63 51/62/67
f 49/61/66 50/59/64 137/64/69
f 53/271/470 46/60/65 49/61/66
f 53/271/470 45/270/471 46/60/65
f 54/65/472 139/179/191 55/66/193
f 57/68/149 56/67/473 58/182/195
f 56/67/474 55/66/193 58/182/195
f 54/65/75 56/67/475 204/69/314
f 60/72/77 64/284/323 62/73/78
f 48/78/63 61/74/79 63/75/80
f 67/80/476 66/82/476 69/84/476
f 220/87/477 67/80/477 65/79/477
f 221/88/478 66/82/478 67/80/478
f 76/95/98 73/90/97 75/92/479
f 76/95/480 75/92/480 77/94/480
f 80/99/481 79/97/481 164/104/481
f 236/102/482 81/103/482 79/97/482
f 223/100/483 80/99/483 164/104/483
f 83/105/484 84/415/484 252/108/484
f 85/106/115 86/416/241 238/109/116
f 85/106/485 252/108/485 87/417/485
f 86/416/241 85/106/115 87/417/486
f 82/107/113 85/106/112 237/110/363
f 89/111/249 90/418/246 91/112/415
f 251/115/487 88/113/123 244/117/125
f 88/113/120 91/112/119 245/116/488
f 93/119/395 95/123/489 92/125/396
f 94/118/126 96/121/129 93/119/127
f 93/119/490 97/122/261 95/123/131
f 100/127/491 101/130/491 99/128/491
f 101/130/136 172/232/492 102/131/137
f 103/238/272 105/134/493 104/136/412
f 104/136/494 159/135/143 19/24/25
f 105/134/142 106/236/495 159/135/143
f 277/239/273 103/238/272 272/360/418
f 103/238/272 175/235/275 105/134/493
f 278/367/420 281/137/145 107/139/147
f 278/367/420 107/139/147 108/366/417
f 57/68/149 58/182/195 111/141/150
f 114/147/156 179/246/301 113/144/153
f 298/389/437 115/153/162 117/148/440
f 115/153/162 120/152/161 117/148/440
f 297/388/436 116/151/496 115/153/162
f 117/148/157 305/154/163 119/149/158
f 118/150/497 119/149/158 292/156/165
f 122/160/169 123/157/166 124/159/170
f 126/161/171 124/159/170 181/163/454
f 124/159/168 125/158/167 182/162/172
f 306/404/453 127/164/174 122/160/169
f 127/164/174 128/293/333 123/157/166
f 35/165/498 130/170/498 129/166/498
f 129/166/499 131/168/499 39/167/499
f 1/3/3 4/2/2 131/168/176
f 131/168/178 132/171/183 40/169/179
f 133/172/500 135/175/305 134/173/501
f 136/174/502 134/173/502 130/178/502
f 135/175/503 49/419/503 137/176/503
f 134/173/504 137/176/504 138/177/504
f 130/178/505 138/177/505 5/420/505
f 137/421/69 52/422/68 138/423/506
f 52/422/68 2/4/4 138/423/506
f 5/5/5 138/423/507 2/4/4
f 52/422/68 205/276/320 2/4/4
f 55/66/193 140/180/192 142/181/194
f 142/181/194 140/180/192 143/184/197
f 139/179/191 152/185/508 140/180/192
f 141/186/509 8/199/9 9/187/11
f 140/180/196 9/187/202 14/183/37
f 145/190/209 149/189/510 144/193/81
f 146/188/511 148/195/511 147/197/511
f 146/188/512 147/197/512 150/192/512
f 151/191/206 146/188/513 152/185/207
f 152/185/198 150/192/225 153/198/214
f 148/195/514 68/424/514 154/196/514
f 152/185/198 153/198/214 141/186/199
f 208/274/316 149/189/510 151/191/206
f 144/193/81 149/189/510 208/274/316
f 154/200/515 69/205/515 155/201/515
f 70/206/516 71/301/516 157/14/516
f 155/201/517 70/206/517 157/14/517
f 156/202/222 155/201/518 10/15/223
f 68/425/519 67/204/519 154/200/519
f 157/14/520 71/301/520 222/207/520
f 153/209/214 156/202/226 8/9/215
f 158/211/230 20/18/229 159/135/143
f 20/18/229 19/24/25 159/135/143
f 74/214/92 160/210/521 75/212/95
f 75/212/231 159/135/143 106/236/495
f 81/103/522 160/210/237 164/104/236
f 161/213/233 238/426/523 163/216/240
f 161/213/233 163/216/240 162/21/22
f 160/210/234 162/21/22 20/18/19
f 87/218/524 165/215/239 163/216/240
f 162/21/22 163/216/240 15/16/17
f 165/215/239 16/19/20 15/16/17
f 238/426/116 86/217/241 163/216/243
f 89/224/249 21/427/525 166/219/244
f 169/225/526 170/227/526 168/226/526
f 168/226/527 21/228/525 89/111/249
f 102/131/397 171/229/528 169/225/250
f 171/229/529 172/232/529 174/230/529
f 173/231/267 174/230/27 22/234/29
f 102/131/397 172/232/530 171/229/528
f 170/227/252 173/231/531 21/228/253
f 170/227/256 171/229/255 173/231/263
f 106/236/532 26/33/532 77/34/532
f 177/237/271 175/235/275 103/238/272
f 175/235/269 25/37/38 26/33/34
f 105/134/533 175/235/533 106/236/533
f 112/376/152 178/243/36 176/241/277
f 176/241/277 29/240/274 177/237/271
f 276/242/278 177/237/271 277/239/273
f 111/141/150 58/182/195 142/181/194
f 112/143/152 111/141/150 143/184/197
f 111/141/150 142/181/194 143/184/197
f 114/147/156 180/245/280 179/246/301
f 179/246/283 30/41/42 33/42/43
f 121/155/164 181/163/454 30/41/281
f 292/156/165 121/155/164 295/248/285
f 183/38/39 125/158/167 31/39/40
f 181/163/173 183/38/39 30/41/42
f 187/251/288 188/253/297 189/252/289
f 188/253/297 191/45/534 189/252/289
f 190/249/265 189/252/289 184/47/48
f 189/252/289 185/44/49 184/47/48
f 44/428/535 192/49/535 188/253/535
f 172/429/492 187/251/536 190/249/537
f 44/428/60 133/172/500 192/49/538
f 133/172/184 136/174/186 192/49/539
f 136/174/189 35/48/50 192/49/51
f 135/175/305 133/172/500 44/428/60
f 192/49/51 34/43/44 191/45/46
f 195/256/294 193/56/61 100/255/407
f 100/255/540 194/254/540 101/260/540
f 194/254/541 188/258/541 101/260/541
f 195/256/294 197/267/307 42/257/295
f 101/260/136 187/259/536 172/430/492
f 290/261/299 197/267/307 195/256/294
f 196/247/284 197/267/307 290/261/299
f 179/246/283 196/247/284 290/261/542
f 198/263/303 53/271/470 199/264/304
f 53/271/470 49/61/66 199/264/304
f 200/266/306 53/271/470 198/263/303
f 196/247/284 200/266/306 197/267/307
f 197/267/307 198/263/303 42/257/295
f 201/268/543 202/269/543 45/270/543
f 33/42/43 32/40/41 201/268/544
f 59/71/76 203/7/7 6/6/6
f 59/71/76 204/69/314 203/7/7
f 207/272/315 59/71/545 6/6/6
f 52/422/68 51/431/67 205/276/320
f 51/431/67 206/275/317 205/276/320
f 205/276/320 207/272/315 2/4/4
f 51/431/67 63/273/80 206/275/317
f 63/273/80 144/193/81 208/274/316
f 206/275/317 209/70/318 207/272/315
f 206/275/317 208/274/316 209/70/318
f 209/70/318 151/191/206 139/179/208
f 207/272/315 209/70/318 59/71/545
f 48/279/63 63/273/80 51/431/67
f 211/280/321 61/282/79 210/281/82
f 202/269/309 31/39/40 211/280/321
f 31/39/40 125/158/167 212/283/322
f 31/39/40 212/283/322 60/72/77
f 213/292/336 214/285/546 64/284/323
f 214/285/547 148/288/547 215/286/547
f 217/294/334 65/287/325 214/285/327
f 64/284/323 215/286/210 62/73/78
f 216/291/548 214/285/546 213/292/336
f 128/293/549 217/294/334 216/291/335
f 219/296/337 220/87/88 218/85/85
f 72/91/338 76/95/340 11/297/339
f 224/432/341 72/91/338 12/298/218
f 28/299/550 76/95/550 77/94/550
f 222/207/221 223/100/105 224/300/341
f 225/302/343 164/104/236 74/214/238
f 223/100/105 164/104/236 225/302/343
f 66/305/551 226/96/100 227/304/344
f 227/304/344 78/98/102 223/100/105
f 70/306/552 227/304/552 71/301/552
f 228/307/349 229/308/347 221/88/553
f 230/316/554 232/312/352 233/310/350
f 233/310/354 234/313/369 235/314/355
f 229/308/347 233/310/350 231/311/106
f 228/307/349 230/316/554 233/310/350
f 241/325/367 82/433/113 237/319/363
f 237/319/117 238/321/116 236/320/555
f 235/318/360 240/326/368 237/319/363
f 242/329/371 254/393/383 83/105/111
f 242/329/371 83/105/111 82/107/113
f 244/117/375 245/116/556 243/333/377
f 249/335/376 244/117/375 243/333/377
f 248/126/134 249/335/376 247/336/378
f 247/336/378 243/333/23 16/337/20
f 87/340/524 247/336/378 165/338/239
f 95/123/131 97/122/261 98/124/132
f 96/121/557 168/226/557 97/122/557
f 253/342/390 258/348/389 92/125/396
f 252/339/558 253/342/390 248/126/559
f 253/342/390 92/125/396 248/126/559
f 87/340/524 248/126/134 247/336/378
f 84/341/560 255/344/560 256/347/560
f 256/347/388 257/346/391 258/348/389
f 84/341/561 256/347/561 253/342/561
f 259/120/128 261/350/394 94/118/126
f 257/346/391 296/434/438 259/120/392
f 296/434/438 260/349/393 259/120/392
f 262/353/400 264/352/399 260/349/393
f 260/349/393 264/352/399 261/350/394
f 258/348/389 259/120/392 93/119/562
f 94/118/126 263/133/140 96/121/129
f 263/133/140 169/225/250 96/121/129
f 266/132/141 263/133/140 94/118/126
f 99/128/138 102/131/137 263/133/140
f 265/358/563 269/357/563 266/435/563
f 267/359/564 268/356/564 265/358/564
f 270/262/300 195/256/294 268/356/405
f 271/361/410 273/23/24 245/363/565
f 272/360/409 104/136/494 273/23/24
f 104/136/494 19/24/25 273/23/24
f 273/23/24 18/20/21 246/362/373
f 274/223/248 275/364/414 91/365/415
f 275/364/414 272/360/409 271/361/410
f 90/221/246 274/223/248 91/365/415
f 108/366/417 107/139/147 276/242/278
f 108/366/417 277/239/273 275/364/414
f 278/367/420 108/366/417 275/364/414
f 280/370/421 279/369/287 281/137/145
f 41/436/57 38/371/54 283/373/423
f 283/373/423 282/372/422 284/138/146
f 279/369/287 283/373/423 281/137/145
f 279/369/287 41/436/57 283/373/423
f 286/377/425 112/376/152 285/374/424
f 282/379/566 286/378/566 287/380/566
f 287/380/567 285/383/567 284/381/567
f 4/2/2 7/8/8 132/171/183
f 132/171/568 288/384/569 286/378/425
f 288/384/569 110/142/151 286/378/425
f 7/8/8 204/69/570 288/384/431
f 204/69/73 57/68/72 288/384/569
f 288/384/569 57/68/72 110/142/151
f 293/386/433 289/145/154 267/359/434
f 289/145/154 290/261/299 270/262/300
f 262/387/571 299/391/441 291/385/442
f 291/385/572 292/156/572 293/386/572
f 292/156/165 294/146/155 293/386/433
f 294/146/155 289/145/154 293/386/433
f 291/385/573 118/150/573 292/156/573
f 295/248/285 114/147/156 294/146/155
f 257/437/391 297/388/444 296/390/438
f 296/390/438 298/389/437 299/391/439
f 299/391/441 117/148/157 118/150/159
f 254/393/443 300/328/370 301/396/574
f 254/393/443 301/396/574 297/394/444
f 255/438/385 254/393/575 257/395/386
f 301/399/576 302/398/576 304/400/576
f 234/327/353 232/439/352 302/398/577
f 300/440/370 239/324/366 301/399/574
f 116/151/160 306/404/453 120/152/161
f 305/154/163 122/160/169 126/161/171
f 119/149/158 126/161/171 121/155/164
f 302/405/455 307/315/357 308/406/456
f 304/407/449 308/406/456 306/409/453
f 230/316/554 228/307/349 307/315/578
f 228/307/346 309/408/458 307/315/579
f 309/408/458 127/411/174 306/409/453
f 309/408/458 219/296/337 218/85/85
